<svg width="835" height="476" viewBox="0 0 835 476" fill="none" xmlns="http://www.w3.org/2000/svg">
<g clip-path="url(#clip0)">
<rect width="835" height="476" fill="white"/>
<path d="M231.122 390.296V390.296C224.94 380.995 213.569 376.557 202.712 379.172V379.172V379.172C191.859 381.719 180.526 377.295 174.302 368.048V368.048V368.048C168.163 358.694 156.753 354.241 145.892 356.924V356.924V356.924C135.044 359.403 123.75 354.994 117.482 345.801V345.801V345.801C111.386 336.394 99.9375 331.926 89.0715 334.677V334.677V334.677C78.2295 337.086 66.9729 332.692 60.6615 323.553V323.553V323.553C54.609 314.094 43.1216 309.611 32.2514 312.429V312.429V312.429C21.4149 314.769 10.1963 310.39 3.84139 301.306V301.306" stroke="#E7002A" stroke-width="4"/>
<path d="M832.541 217.611V217.611C823.106 214.176 812.509 217.028 806.045 224.711V224.711V224.711C799.548 232.342 788.986 235.184 779.549 231.81V231.81V231.81C770.118 228.313 759.484 231.175 753.054 238.91V238.91V238.91C746.524 246.488 735.997 249.32 726.558 246.009V246.009V246.009C717.129 242.451 706.46 245.323 700.062 253.109V253.109V253.109C693.499 260.634 683.008 263.457 673.566 260.208V260.208V260.208C664.141 256.589 653.436 259.471 647.071 267.308V267.308V267.308C640.475 274.78 630.019 277.593 620.575 274.407V274.407" stroke="#E7002A" stroke-width="4"/>
<path d="M524.88 36.6995V36.6995C515.545 33.0023 504.872 35.5571 498.197 43.0566V43.0566V43.0566C491.489 50.5032 480.852 53.0493 471.513 49.4137V49.4137V49.4137C462.183 45.655 451.474 48.2186 444.83 55.7707V55.7707V55.7707C438.091 63.1639 427.489 65.7013 418.146 62.1278V62.1278V62.1278C408.821 58.3081 398.075 60.8805 391.462 68.4848V68.4848V68.4848C384.692 75.8243 374.126 78.353 364.779 74.8419V74.8419V74.8419C355.458 70.9615 344.677 73.5428 338.095 81.199V81.199V81.199C331.293 88.4843 320.763 91.0044 311.412 87.556V87.556" stroke="#E7002A" stroke-width="4"/>
<circle cx="253.5" cy="405.5" r="18.5" fill="#2A2A2A"/>
<circle cx="804.074" cy="436" r="11" fill="#E7002A"/>
<circle cx="759.074" cy="436" r="11" fill="#E7002A"/>
<ellipse cx="781.5" cy="422" rx="11.5" ry="11" fill="#E7002A"/>
<ellipse cx="781.5" cy="394" rx="11.5" ry="11" fill="#E7002A"/>
<path d="M713.479 76.5281C712.077 60.9331 717.854 50.2439 724.477 43.6416C731.116 37.023 740.925 35.4304 750.298 35.5982C760.229 35.776 771.161 36.8538 775.674 40.0556C779.233 42.5794 783.566 46.49 787.501 50.314C793.781 56.416 801.51 61.581 805.557 69.3454C810.14 78.1367 809.145 90.9153 788.634 104.914C773.34 115.352 738.8 109.662 724.733 97.6214C718.716 92.4715 714.294 85.5874 713.479 76.5281Z" fill="#2A2A2A"/>
<path d="M762.709 20.6491C750.081 12.8741 738.817 15.7743 729.887 22.5228C714.199 34.3778 717.808 57.0175 723.812 75.7421C724.265 77.1579 724.667 78.4925 725.019 79.7338C726.448 84.7793 726.466 90.0594 726.541 95.3031C726.727 108.19 729.938 125.849 741.928 130.399C760.348 137.39 792.633 108.155 799.134 83.9109C805.635 59.6664 794.081 39.964 762.709 20.6491Z" fill="#E7002A"/>
<path d="M139 136V64L190 136M164 136V64" stroke="#E7002A" stroke-width="4" stroke-linejoin="round"/>
<path d="M421.526 459.359L404.563 457.795C383.89 455.888 368.758 437.459 370.911 416.81C373.228 394.576 394.46 379.367 416.258 384.327L432.868 388.106C449.324 391.851 461 406.482 461 423.359C461 444.637 442.714 461.313 421.526 459.359Z" fill="#232323"/>
<path d="M381.66 379.06L397.332 369.007C412.834 359.063 433.2 370.195 433.2 388.613C433.2 398.196 439.069 406.801 447.991 410.298L450.254 411.185C469.599 418.768 473.374 444.504 457.023 457.323L452.014 461.25C440.966 469.911 425.434 469.911 414.386 461.25L379.081 433.571C360.949 419.356 362.268 391.499 381.66 379.06Z" fill="#E7002A"/>
<mask id="mask0" mask-type="alpha" maskUnits="userSpaceOnUse" x="353" y="-9" width="142" height="142">
<circle cx="423.708" cy="61.7075" r="50" transform="rotate(45.54 423.708 61.7075)" fill="white"/>
</mask>
<g mask="url(#mask0)">
<path d="M470.641 33.8643L394.985 108.108M388.681 101.684L464.337 27.4407" stroke="#E7002A" stroke-width="2"/>
<path d="M458.034 21.0172L382.377 95.2607M376.074 88.8371L451.73 14.5935" stroke="#E7002A" stroke-width="2"/>
<path d="M445.426 8.16975L369.77 82.4133M363.466 75.9897L439.123 1.74609" stroke="#E7002A" stroke-width="2"/>
<path d="M432.819 -4.67766L357.162 69.5659M350.859 63.1423L426.515 -11.1013" stroke="#E7002A" stroke-width="2"/>
<path d="M470.641 33.8643L394.985 108.108M388.681 101.684L464.337 27.4407" stroke="#E7002A" stroke-width="2"/>
<path d="M458.034 21.0172L382.377 95.2607M376.074 88.8371L451.73 14.5935" stroke="#E7002A" stroke-width="2"/>
<path d="M495.856 59.5589L420.2 133.802M413.896 127.379L489.552 53.1353" stroke="#E7002A" stroke-width="2"/>
<path d="M483.249 46.7117L407.592 120.955M401.288 114.532L476.945 40.2881" stroke="#E7002A" stroke-width="2"/>
</g>
</g>
<defs>
<clipPath id="clip0">
<rect width="835" height="476" fill="white"/>
</clipPath>
</defs>
</svg>
