<svg width="835" height="476" viewBox="0 0 835 476" fill="none" xmlns="http://www.w3.org/2000/svg">
<g clip-path="url(#clip0)">
<rect width="835" height="476" fill="white"/>
<path d="M231.122 390.296V390.296C224.94 380.995 213.569 376.557 202.712 379.172V379.172V379.172C191.859 381.719 180.526 377.295 174.302 368.048V368.048V368.048C168.163 358.694 156.753 354.241 145.892 356.924V356.924V356.924C135.044 359.403 123.75 354.994 117.482 345.801V345.801V345.801C111.386 336.394 99.9375 331.926 89.0715 334.677V334.677V334.677C78.2295 337.086 66.9729 332.692 60.6615 323.553V323.553V323.553C54.609 314.094 43.1216 309.611 32.2514 312.429V312.429V312.429C21.4149 314.769 10.1963 310.39 3.84139 301.306V301.306" stroke="#E7002A" stroke-width="4"/>
<path d="M832.541 217.611V217.611C823.106 214.176 812.509 217.028 806.045 224.711V224.711V224.711C799.548 232.342 788.986 235.184 779.549 231.81V231.81V231.81C770.118 228.313 759.484 231.175 753.054 238.91V238.91V238.91C746.524 246.488 735.997 249.32 726.558 246.009V246.009V246.009C717.129 242.451 706.46 245.323 700.062 253.109V253.109V253.109C693.499 260.634 683.008 263.457 673.566 260.208V260.208V260.208C664.141 256.589 653.436 259.471 647.071 267.308V267.308V267.308C640.475 274.78 630.019 277.593 620.575 274.407V274.407" stroke="#E7002A" stroke-width="4"/>
<circle cx="248" cy="407" r="13" fill="#3F3D56"/>
<circle cx="804.074" cy="436" r="11" fill="#E7002A"/>
<circle cx="759.074" cy="436" r="11" fill="#E7002A"/>
<ellipse cx="781.574" cy="424" rx="11.5" ry="11" fill="#E7002A"/>
<ellipse cx="781.574" cy="400" rx="11.5" ry="11" fill="#E7002A"/>
<rect x="22" y="138.28" width="3.74268" height="48.6549" rx="1.87134" transform="rotate(-20 22 138.28)" fill="#E7002A"/>
<rect x="15" y="141.28" width="3.74268" height="48.6549" rx="1.87134" transform="rotate(-20 15 141.28)" fill="#E7002A"/>
<rect x="54.4829" y="137.001" width="3.74268" height="48.6549" rx="1.87134" transform="rotate(20 54.4829 137.001)" fill="#E7002A"/>
<path fill-rule="evenodd" clip-rule="evenodd" d="M468.667 411.486C467.841 415.551 465.319 418.999 461.871 421.059C460.826 422.25 459.59 423.269 458.21 424.067C456.83 423.269 455.594 422.25 454.549 421.059C450.304 418.524 447.462 413.885 447.462 408.581C447.462 403.205 450.383 398.511 454.724 396C456.027 396.754 457.203 397.705 458.21 398.812C459.216 397.705 460.392 396.754 461.695 396C465.233 398.047 467.827 401.542 468.667 405.676C468.667 405.676 468.667 405.676 468.667 405.676C468.857 406.614 468.957 407.586 468.957 408.581C468.957 409.576 468.857 410.548 468.667 411.487C468.667 411.487 468.667 411.486 468.667 411.486Z" fill="#E7002A"/>
<path fill-rule="evenodd" clip-rule="evenodd" d="M430.244 419.124C431.364 418.117 432.632 417.293 433.996 416.677C433.255 415.378 432.713 413.966 432.399 412.493C436.129 409.141 441.495 407.814 446.608 409.475C451.654 411.114 455.188 415.253 456.287 420.076C457.095 421.436 457.681 422.925 458.014 424.482C456.828 425.548 455.478 426.409 454.022 427.034C450.3 430.287 445.009 431.557 439.965 429.918C434.852 428.257 431.291 424.029 430.244 419.124Z" fill="#E7002A"/>
<path fill-rule="evenodd" clip-rule="evenodd" d="M444.743 449.731C444.132 448.354 443.74 446.894 443.576 445.407C442.111 445.71 440.601 445.789 439.103 445.632C437.068 441.049 437.464 435.535 440.624 431.186C443.741 426.896 448.767 424.813 453.691 425.257C455.237 424.907 456.836 424.81 458.422 424.975C459.069 426.432 459.47 427.982 459.615 429.56C461.559 434.106 461.132 439.53 458.014 443.821C454.854 448.17 449.732 450.251 444.743 449.731Z" fill="#E7002A"/>
<path fill-rule="evenodd" clip-rule="evenodd" d="M457.706 441.3C455.984 437.525 455.999 433.252 457.579 429.558C457.724 427.981 458.126 426.43 458.773 424.973C460.36 424.808 461.96 424.906 463.506 425.256C468.429 424.814 473.453 426.897 476.569 431.186C479.729 435.535 480.125 441.05 478.088 445.633C476.591 445.79 475.081 445.711 473.616 445.407C473.452 446.895 473.06 448.355 472.448 449.732C467.46 450.252 462.338 448.171 459.179 443.822C459.053 443.649 458.932 443.475 458.815 443.299C458.387 442.653 458.018 441.984 457.705 441.299C457.705 441.3 457.706 441.3 457.706 441.3Z" fill="#E7002A"/>
<path fill-rule="evenodd" clip-rule="evenodd" d="M479.34 428.747C483.016 426.672 485.543 423.122 486.397 419.121C485.277 418.115 484.009 417.291 482.645 416.675C483.387 415.376 483.927 413.964 484.242 412.492C480.512 409.139 475.145 407.812 470.033 409.473C464.989 411.112 461.455 415.249 460.355 420.068C459.546 421.43 458.959 422.921 458.626 424.48C459.811 425.545 461.162 426.406 462.618 427.032C465.645 429.676 469.707 431.01 473.832 430.536C473.829 430.538 473.826 430.539 473.824 430.54C474.775 430.432 475.73 430.227 476.675 429.919C477.621 429.612 478.514 429.217 479.348 428.746C479.345 428.746 479.342 428.746 479.34 428.747Z" fill="#E7002A"/>
<path d="M465.763 424.323C465.763 428.414 462.447 431.73 458.356 431.73C454.265 431.73 450.948 428.414 450.948 424.323C450.948 420.232 454.265 416.916 458.356 416.916C462.447 416.916 465.763 420.232 465.763 424.323Z" fill="white"/>
<path d="M475.785 430.131L465.14 427.22" stroke="black" stroke-opacity="0.2"/>
<line x1="458.71" y1="431.717" x2="459.008" y2="443.046" stroke="black" stroke-opacity="0.2"/>
<line x1="441.212" y1="429.801" x2="451.379" y2="426.605" stroke="black" stroke-opacity="0.2"/>
<line x1="447.842" y1="409.617" x2="454.813" y2="417.751" stroke="black" stroke-opacity="0.2"/>
<path d="M468.958 409.799L462.097 417.881" stroke="black" stroke-opacity="0.2"/>
<g filter="url(#filter0_d)">
<path d="M547.755 4.33863L542.447 64.4999L493 29.8227L547.755 4.33863Z" fill="white"/>
</g>

<path d="M713.479 76.5281C712.077 60.9331 717.854 50.2439 724.477 43.6416C731.116 37.023 740.925 35.4304 750.298 35.5982C760.229 35.776 771.161 36.8538 775.674 40.0556C779.233 42.5794 783.566 46.49 787.501 50.314C793.781 56.416 801.51 61.581 805.557 69.3454C810.14 78.1367 809.145 90.9153 788.634 104.914C773.34 115.352 738.8 109.662 724.733 97.6214C718.716 92.4715 714.294 85.5874 713.479 76.5281Z" fill="#3F3D56"/>
<path d="M762.709 20.6491C750.081 12.8741 738.817 15.7743 729.887 22.5228C714.199 34.3778 717.808 57.0175 723.812 75.7421C724.265 77.1579 724.667 78.4925 725.019 79.7338C726.448 84.7793 726.466 90.0594 726.541 95.3031C726.727 108.19 729.938 125.849 741.928 130.399C760.348 137.39 792.633 108.155 799.134 83.9109C805.635 59.6664 794.081 39.964 762.709 20.6491Z" fill="#E7002A"/>
</g>
<defs>
<filter id="filter0_d" x="489" y="-13" width="87.4788" height="85.4999" filterUnits="userSpaceOnUse" color-interpolation-filters="sRGB">
<feFlood flood-opacity="0" result="BackgroundImageFix"/>
<feColorMatrix in="SourceAlpha" type="matrix" values="0 0 0 0 0 0 0 0 0 0 0 0 0 0 0 0 0 0 127 0"/>
<feOffset dy="4"/>
<feGaussianBlur stdDeviation="2"/>
<feColorMatrix type="matrix" values="0 0 0 0 0 0 0 0 0 0 0 0 0 0 0 0 0 0 0.25 0"/>
<feBlend mode="normal" in2="BackgroundImageFix" result="effect1_dropShadow"/>
<feBlend mode="normal" in="SourceGraphic" in2="effect1_dropShadow" result="shape"/>
</filter>
<clipPath id="clip0">
<rect width="835" height="476" fill="white"/>
</clipPath>
</defs>
</svg>
