<svg width="128" height="128" viewBox="0 0 128 128" fill="none" xmlns="http://www.w3.org/2000/svg">
<rect x="8.5" y="21.5" width="111" height="85" rx="9.5" stroke="black" stroke-width="3"/>
<line x1="120" y1="36.5" x2="7" y2="36.5" stroke="black" stroke-width="3"/>
<circle cx="17" cy="29" r="2" fill="black"/>
<circle cx="23" cy="29" r="2" fill="black"/>
<circle cx="29" cy="29" r="2" fill="black"/>
<path d="M41.9291 59.83C41.5557 60.1536 41.5206 60.7165 41.8546 61.0825C42.1835 61.4429 42.7445 61.4739 43.1123 61.1551L51.8963 53.5418C52.5346 52.9885 52.5346 52.0115 51.8963 51.4582L43.1123 43.8449C42.7445 43.5261 42.1835 43.5571 41.8546 43.9175C41.5206 44.2835 41.5557 44.8464 41.9291 45.17L50.3861 52.5L41.9291 59.83Z" fill="black" stroke="black" stroke-width="0.75" stroke-linecap="round" stroke-linejoin="round"/>
<path d="M25.0709 59.83C25.4443 60.1536 25.4794 60.7165 25.1454 61.0825C24.8165 61.4429 24.2555 61.4739 23.8877 61.1551L15.1037 53.5418C14.4654 52.9885 14.4654 52.0115 15.1037 51.4582L23.8877 43.8449C24.2555 43.5261 24.8165 43.5571 25.1454 43.9175C25.4794 44.2835 25.4443 44.8464 25.0709 45.17L16.6139 52.5L25.0709 59.83Z" fill="black" stroke="black" stroke-width="0.75" stroke-linecap="round" stroke-linejoin="round"/>
<path d="M39 43L29 63" stroke="black" stroke-width="2" stroke-linecap="round" stroke-linejoin="round"/>
<path fill-rule="evenodd" clip-rule="evenodd" d="M99 52.7656C95.5568 52.7656 92.7656 55.5568 92.7656 59C92.7656 62.4431 95.5568 65.2344 99 65.2344C102.443 65.2344 105.234 62.4431 105.234 59C105.234 55.5568 102.443 52.7656 99 52.7656ZM94.2656 59C94.2656 56.3853 96.3853 54.2656 99 54.2656C101.615 54.2656 103.734 56.3853 103.734 59C103.734 61.6147 101.615 63.7344 99 63.7344C96.3853 63.7344 94.2656 61.6147 94.2656 59Z" fill="black"/>
<path fill-rule="evenodd" clip-rule="evenodd" d="M109.688 56.8438H108.13L107.987 56.7006C107.308 56.0219 106.919 55.1077 106.899 54.1501L108.034 53.0156C108.546 52.503 108.546 51.672 108.034 51.1594L106.84 49.9661C106.328 49.4536 105.497 49.4536 104.984 49.9661L104.013 50.9375H103.811C102.82 50.9375 101.869 50.5539 101.156 49.8691V48.3125C101.156 47.5876 100.569 47 99.8438 47H98.1562C97.4314 47 96.8438 47.5876 96.8438 48.3125V49.7061L96.8167 49.7332C96.0638 50.4861 95.0489 50.9169 93.9862 50.9368L93.0155 49.9661C92.5029 49.4536 91.6719 49.4536 91.1594 49.9661L89.9661 51.1594C89.4535 51.672 89.4535 52.503 89.9661 53.0156L90.9368 53.9862C90.9169 55.0489 90.4862 56.0637 89.7332 56.8167L89.7062 56.8438H88.3125C87.5876 56.8438 87 57.4314 87 58.1562V59.8438C87 60.5686 87.5876 61.1562 88.3125 61.1562H89.8691C90.554 61.8691 90.9375 62.8201 90.9375 63.8106V64.0131L89.9661 64.9845C89.4535 65.497 89.4535 66.3281 89.9661 66.8406L91.1594 68.0339C91.6719 68.5464 92.5029 68.5464 93.0155 68.0339L94.1502 66.8992C95.1078 66.919 96.022 67.3081 96.7007 67.9868L96.8438 68.1298V69.6875C96.8438 70.4124 97.4314 71 98.1562 71H99.8438C100.569 71 101.156 70.4124 101.156 69.6875V67.9669C101.869 67.282 102.82 66.8984 103.811 66.8984H103.849L104.984 68.0339C105.497 68.5464 106.328 68.5464 106.84 68.0339L108.034 66.8406C108.546 66.3281 108.546 65.497 108.034 64.9845L106.898 63.8492V63.8109C106.898 62.8203 107.282 61.8692 107.967 61.1562H109.688C110.412 61.1562 111 60.5686 111 59.8438V58.1562C111 57.4314 110.412 56.8438 109.688 56.8438ZM105.398 54.0732C105.398 55.3939 105.899 56.6629 106.796 57.6263L106.794 57.6287L107.509 58.3438H109.5V59.6562H107.345L106.96 60.0407C105.96 61.0406 105.398 62.3968 105.398 63.8109V64.4705L106.841 65.9125L105.912 66.8406L104.47 65.3984H103.811C102.397 65.3984 101.041 65.9602 100.041 66.96L99.6562 67.3445V69.5H98.3438V67.5085L97.7614 66.9261C96.7832 65.948 95.4566 65.3984 94.0733 65.3984H93.5297L92.0874 66.8406L91.1593 65.9125L92.4375 64.6344V63.8106C92.4375 62.3966 91.8758 61.0405 90.876 60.0407L90.4915 59.6562H88.5V58.3438H90.3275L90.7939 57.8773C91.8463 56.8249 92.4375 55.3976 92.4375 53.9093V53.3656L91.1593 52.0875L92.0874 51.1594L93.3656 52.4375H93.9093C95.3976 52.4375 96.825 51.8462 97.8774 50.7938L98.3438 50.3274V48.5H99.6562V50.4915L100.041 50.8759C101.041 51.8758 102.397 52.4375 103.811 52.4375H104.634L105.912 51.1594L106.841 52.0875L105.398 53.5295V54.0732Z" fill="black"/>
<path fill-rule="evenodd" clip-rule="evenodd" d="M99 52.7656C95.5568 52.7656 92.7656 55.5568 92.7656 59C92.7656 62.4431 95.5568 65.2344 99 65.2344C102.443 65.2344 105.234 62.4431 105.234 59C105.234 55.5568 102.443 52.7656 99 52.7656ZM94.2656 59C94.2656 56.3853 96.3853 54.2656 99 54.2656C101.615 54.2656 103.734 56.3853 103.734 59C103.734 61.6147 101.615 63.7344 99 63.7344C96.3853 63.7344 94.2656 61.6147 94.2656 59Z" fill="black"/>
<path fill-rule="evenodd" clip-rule="evenodd" d="M109.688 56.8438H108.13L107.987 56.7006C107.308 56.0219 106.919 55.1077 106.899 54.1501L108.034 53.0156C108.546 52.503 108.546 51.672 108.034 51.1594L106.84 49.9661C106.328 49.4536 105.497 49.4536 104.984 49.9661L104.013 50.9375H103.811C102.82 50.9375 101.869 50.5539 101.156 49.8691V48.3125C101.156 47.5876 100.569 47 99.8438 47H98.1562C97.4314 47 96.8438 47.5876 96.8438 48.3125V49.7061L96.8167 49.7332C96.0638 50.4861 95.0489 50.9169 93.9862 50.9368L93.0155 49.9661C92.5029 49.4536 91.6719 49.4536 91.1594 49.9661L89.9661 51.1594C89.4535 51.672 89.4535 52.503 89.9661 53.0156L90.9368 53.9862C90.9169 55.0489 90.4862 56.0637 89.7332 56.8167L89.7062 56.8438H88.3125C87.5876 56.8438 87 57.4314 87 58.1562V59.8438C87 60.5686 87.5876 61.1562 88.3125 61.1562H89.8691C90.554 61.8691 90.9375 62.8201 90.9375 63.8106V64.0131L89.9661 64.9845C89.4535 65.497 89.4535 66.3281 89.9661 66.8406L91.1594 68.0339C91.6719 68.5464 92.5029 68.5464 93.0155 68.0339L94.1502 66.8992C95.1078 66.919 96.022 67.3081 96.7007 67.9868L96.8438 68.1298V69.6875C96.8438 70.4124 97.4314 71 98.1562 71H99.8438C100.569 71 101.156 70.4124 101.156 69.6875V67.9669C101.869 67.282 102.82 66.8984 103.811 66.8984H103.849L104.984 68.0339C105.497 68.5464 106.328 68.5464 106.84 68.0339L108.034 66.8406C108.546 66.3281 108.546 65.497 108.034 64.9845L106.898 63.8492V63.8109C106.898 62.8203 107.282 61.8692 107.967 61.1562H109.688C110.412 61.1562 111 60.5686 111 59.8438V58.1562C111 57.4314 110.412 56.8438 109.688 56.8438ZM105.398 54.0732C105.398 55.3939 105.899 56.6629 106.796 57.6263L106.794 57.6287L107.509 58.3438H109.5V59.6562H107.345L106.96 60.0407C105.96 61.0406 105.398 62.3968 105.398 63.8109V64.4705L106.841 65.9125L105.912 66.8406L104.47 65.3984H103.811C102.397 65.3984 101.041 65.9602 100.041 66.96L99.6562 67.3445V69.5H98.3438V67.5085L97.7614 66.9261C96.7832 65.948 95.4566 65.3984 94.0733 65.3984H93.5297L92.0874 66.8406L91.1593 65.9125L92.4375 64.6344V63.8106C92.4375 62.3966 91.8758 61.0405 90.876 60.0407L90.4915 59.6562H88.5V58.3438H90.3275L90.7939 57.8773C91.8463 56.8249 92.4375 55.3976 92.4375 53.9093V53.3656L91.1593 52.0875L92.0874 51.1594L93.3656 52.4375H93.9093C95.3976 52.4375 96.825 51.8462 97.8774 50.7938L98.3438 50.3274V48.5H99.6562V50.4915L100.041 50.8759C101.041 51.8758 102.397 52.4375 103.811 52.4375H104.634L105.912 51.1594L106.841 52.0875L105.398 53.5295V54.0732Z" fill="black"/>
<path fill-rule="evenodd" clip-rule="evenodd" d="M104 74.7656C100.557 74.7656 97.7656 77.5568 97.7656 81C97.7656 84.4431 100.557 87.2344 104 87.2344C107.443 87.2344 110.234 84.4431 110.234 81C110.234 77.5568 107.443 74.7656 104 74.7656ZM99.2656 81C99.2656 78.3853 101.385 76.2656 104 76.2656C106.615 76.2656 108.734 78.3853 108.734 81C108.734 83.6147 106.615 85.7344 104 85.7344C101.385 85.7344 99.2656 83.6147 99.2656 81Z" fill="black"/>
<path fill-rule="evenodd" clip-rule="evenodd" d="M114.688 78.8438H113.13L112.987 78.7006C112.308 78.0219 111.919 77.1077 111.899 76.1501L113.034 75.0156C113.546 74.503 113.546 73.672 113.034 73.1594L111.84 71.9661C111.328 71.4536 110.497 71.4536 109.984 71.9661L109.013 72.9375H108.811C107.82 72.9375 106.869 72.5539 106.156 71.8691V70.3125C106.156 69.5876 105.569 69 104.844 69H103.156C102.431 69 101.844 69.5876 101.844 70.3125V71.7061L101.817 71.7332C101.064 72.4861 100.049 72.9169 98.9862 72.9368L98.0155 71.9661C97.5029 71.4536 96.6719 71.4536 96.1594 71.9661L94.9661 73.1594C94.4535 73.672 94.4535 74.503 94.9661 75.0156L95.9368 75.9862C95.9169 77.0489 95.4862 78.0637 94.7332 78.8167L94.7062 78.8438H93.3125C92.5876 78.8438 92 79.4314 92 80.1562V81.8438C92 82.5686 92.5876 83.1562 93.3125 83.1562H94.8691C95.554 83.8691 95.9375 84.8201 95.9375 85.8106V86.0131L94.9661 86.9845C94.4535 87.497 94.4535 88.3281 94.9661 88.8406L96.1594 90.0339C96.6719 90.5464 97.5029 90.5464 98.0155 90.0339L99.1502 88.8992C100.108 88.919 101.022 89.3081 101.701 89.9868L101.844 90.1298V91.6875C101.844 92.4124 102.431 93 103.156 93H104.844C105.569 93 106.156 92.4124 106.156 91.6875V89.9669C106.869 89.282 107.82 88.8984 108.811 88.8984H108.849L109.984 90.0339C110.497 90.5464 111.328 90.5464 111.84 90.0339L113.034 88.8406C113.546 88.3281 113.546 87.497 113.034 86.9845L111.898 85.8492V85.8109C111.898 84.8203 112.282 83.8692 112.967 83.1562H114.688C115.412 83.1562 116 82.5686 116 81.8438V80.1562C116 79.4314 115.412 78.8438 114.688 78.8438ZM110.398 76.0732C110.398 77.3939 110.899 78.6629 111.796 79.6263L111.794 79.6287L112.509 80.3438H114.5V81.6562H112.345L111.96 82.0407C110.96 83.0406 110.398 84.3968 110.398 85.8109V86.4705L111.841 87.9125L110.912 88.8406L109.47 87.3984H108.811C107.397 87.3984 106.041 87.9602 105.041 88.96L104.656 89.3445V91.5H103.344V89.5085L102.761 88.9261C101.783 87.948 100.457 87.3984 99.0733 87.3984H98.5297L97.0874 88.8406L96.1593 87.9125L97.4375 86.6344V85.8106C97.4375 84.3966 96.8758 83.0405 95.876 82.0407L95.4915 81.6562H93.5V80.3438H95.3275L95.7939 79.8773C96.8463 78.8249 97.4375 77.3976 97.4375 75.9093V75.3656L96.1593 74.0875L97.0874 73.1594L98.3656 74.4375H98.9093C100.398 74.4375 101.825 73.8462 102.877 72.7938L103.344 72.3274V70.5H104.656V72.4915L105.041 72.8759C106.041 73.8758 107.397 74.4375 108.811 74.4375H109.634L110.912 73.1594L111.841 74.0875L110.398 75.5295V76.0732Z" fill="black"/>
<rect x="15" y="68" width="44" height="2" rx="1" fill="black"/>
<rect x="15" y="71" width="44" height="2" rx="1" fill="black"/>
<rect x="15" y="74" width="35" height="2" rx="1" fill="black"/>
<rect x="15" y="84" width="39" height="2" rx="1" fill="black"/>
<rect x="15" y="87" width="34" height="2" rx="1" fill="black"/>
<rect x="15" y="90" width="42" height="2" rx="1" fill="black"/>
<rect x="15" y="93" width="24" height="2" rx="1" fill="black"/>
</svg>
