<svg width="128" height="128" viewBox="0 0 128 128" fill="none" xmlns="http://www.w3.org/2000/svg">
<rect x="8.5" y="14.5" width="111" height="75" rx="5.5" stroke="black" stroke-width="3"/>
<path d="M22 32C22 30.3431 23.3431 29 25 29C26.6569 29 28 30.3431 28 32V72H22V32Z" fill="black"/>
<path d="M28 49C31.3137 49 34 51.6863 34 55V72H28V49Z" fill="black"/>
<path d="M40 39C40 37.3431 41.3431 36 43 36C44.6569 36 46 37.3431 46 39V72H40V39Z" fill="black"/>
<path d="M46 43C49.3137 43 52 45.6863 52 49V72H46V43Z" fill="black"/>
<path d="M58 50C58 48.3431 59.3431 47 61 47C62.6569 47 64 48.3431 64 50V72H58V50Z" fill="black"/>
<path d="M64 68H66C68.2091 68 70 69.7909 70 72H64V68Z" fill="black"/>
<rect x="19" y="72" width="90" height="2" rx="1" fill="black"/>
<path d="M76 58C76 54.6863 78.6863 52 82 52V72H76V58Z" fill="black"/>
<path d="M82 52C82 50.3431 83.3431 49 85 49C86.6569 49 88 50.3431 88 52V72H82V52Z" fill="black"/>
<path d="M94 57C94 53.6863 96.6863 51 100 51V72H94V57Z" fill="black"/>
<path d="M100 36C100 34.3431 101.343 33 103 33C104.657 33 106 34.3431 106 36V72H100V36Z" fill="black"/>
<path fill-rule="evenodd" clip-rule="evenodd" d="M66.8786 97H62.9462L37.4239 122.522C36.8382 123.108 35.8884 123.108 35.3026 122.522C34.7168 121.936 34.7168 120.987 35.3026 120.401L58.7036 97H54.4609L33.1813 118.28C31.4239 120.037 31.4239 122.886 33.1813 124.644C34.9387 126.401 37.7879 126.401 39.5453 124.644L51.1889 113H78.6359L89.2795 123.644C91.0369 125.401 93.8862 125.401 95.6435 123.644C97.4009 121.886 97.4009 119.037 95.6435 117.28L75.3639 97H71.1213L93.5222 119.401C94.108 119.987 94.108 120.936 93.5222 121.522C92.9364 122.108 91.9867 122.108 91.4009 121.522L66.8786 97ZM54.1889 110L57.1889 107H72.6359L75.6359 110H54.1889ZM64.9124 99.2764L69.6359 104H60.1889L64.9124 99.2764Z" fill="black"/>
<rect x="4.5" y="89.5" width="119" height="6" rx="3" stroke="black" stroke-width="3"/>
<rect x="4.5" y="7.5" width="119" height="6" rx="3" stroke="black" stroke-width="3"/>
</svg>
