<svg width="128" height="128" viewBox="0 0 128 128" fill="none" xmlns="http://www.w3.org/2000/svg">
<path d="M92.5 89.5C92.5 93.895 89.6059 98.1103 84.4259 101.305C79.2696 104.484 72.0518 106.5 64 106.5C55.9482 106.5 48.7304 104.484 43.5741 101.305C38.3941 98.1103 35.5 93.895 35.5 89.5C35.5 85.105 38.3941 80.8897 43.5741 77.6953C48.7304 74.5156 55.9482 72.5 64 72.5C72.0518 72.5 79.2696 74.5156 84.4259 77.6953C89.6059 80.8897 92.5 85.105 92.5 89.5Z" stroke="black" stroke-width="3"/>
<path d="M92.5 59.5C92.5 63.895 89.6059 68.1103 84.4259 71.3047C79.2696 74.4844 72.0518 76.5 64 76.5C55.9482 76.5 48.7304 74.4844 43.5741 71.3047C38.3941 68.1103 35.5 63.895 35.5 59.5C35.5 55.105 38.3941 50.8897 43.5741 47.6953C48.7304 44.5156 55.9482 42.5 64 42.5C72.0518 42.5 79.2696 44.5156 84.4259 47.6953C89.6059 50.8897 92.5 55.105 92.5 59.5Z" stroke="black" stroke-width="3"/>
<path d="M92.5 29.5C92.5 33.895 89.6059 38.1103 84.4259 41.3047C79.2696 44.4844 72.0518 46.5 64 46.5C55.9482 46.5 48.7304 44.4844 43.5741 41.3047C38.3941 38.1103 35.5 33.895 35.5 29.5C35.5 25.105 38.3941 20.8897 43.5741 17.6953C48.7304 14.5156 55.9482 12.5 64 12.5C72.0518 12.5 79.2696 14.5156 84.4259 17.6953C89.6059 20.8897 92.5 25.105 92.5 29.5Z" stroke="black" stroke-width="3"/>
<path d="M35.5 28.999V89.999" stroke="black" stroke-width="3"/>
<path d="M92.5 28.999V89.999" stroke="black" stroke-width="3"/>
<path d="M111.274 90C111.274 97.5746 106.317 104.665 97.8115 109.938C89.3284 115.198 77.5149 118.5 64.3871 118.5C51.2593 118.5 39.4458 115.198 30.9627 109.938C22.4568 104.665 17.5 97.5746 17.5 90C17.5 82.4254 22.4568 75.3353 30.9627 70.0617C39.4458 64.8021 51.2593 61.5 64.3871 61.5C77.5149 61.5 89.3284 64.8021 97.8115 70.0617C106.317 75.3353 111.274 82.4254 111.274 90Z" stroke="black" stroke-width="3"/>
<path d="M111.274 60C111.274 67.5746 106.317 74.6647 97.8115 79.9384C89.3284 85.1979 77.5149 88.5 64.3871 88.5C51.2593 88.5 39.4458 85.1979 30.9627 79.9384C22.4568 74.6647 17.5 67.5746 17.5 60C17.5 52.4254 22.4568 45.3353 30.9627 40.0617C39.4458 34.8021 51.2593 31.5 64.3871 31.5C77.5149 31.5 89.3284 34.8021 97.8115 40.0617C106.317 45.3353 111.274 52.4254 111.274 60Z" stroke="black" stroke-width="3"/>
<path d="M111.274 30C111.274 37.5746 106.317 44.6647 97.8115 49.9384C89.3284 55.1979 77.5149 58.5 64.3871 58.5C51.2593 58.5 39.4458 55.1979 30.9627 49.9384C22.4568 44.6647 17.5 37.5746 17.5 30C17.5 22.4254 22.4568 15.3353 30.9627 10.0617C39.4458 4.80209 51.2593 1.5 64.3871 1.5C77.5149 1.5 89.3284 4.80209 97.8115 10.0617C106.317 15.3353 111.274 22.4254 111.274 30Z" stroke="black" stroke-width="3"/>
<path d="M17.5 30V91" stroke="black" stroke-width="3"/>
<path d="M111.279 30V91" stroke="black" stroke-width="3"/>
</svg>
