<svg width="128" height="128" viewBox="0 0 128 128" fill="none" xmlns="http://www.w3.org/2000/svg">
<path d="M63.724 110.725V92.5429C83.076 92.5429 98.006 73.5349 90.541 53.4249C87.776 45.9869 81.971 39.9259 74.229 37.1709C54.324 30.0089 35.247 44.8849 35.247 63.8929H17C17 33.5899 46.582 9.6229 78.93 19.5409C93.03 23.9479 104.088 34.9679 108.512 49.0169C118.465 81.2479 94.412 110.725 63.724 110.725Z" fill="#83D2FF"/>
<path d="M64.0004 92.543H45.7534V74.637H64.0004V92.543ZM45.7534 106.593H31.9294V92.543H45.7534V106.593ZM31.9294 92.543H20.3184V80.973H31.9294V92.543Z" fill="#83D2FF"/>
</svg>
