<svg width="128" height="128" viewBox="0 0 128 128" fill="none" xmlns="http://www.w3.org/2000/svg">
<path d="M59.4472 0H80.3772V96.88C69.6402 98.92 61.7572 99.735 53.1962 99.735C27.6452 99.734 14.3262 88.184 14.3262 66.03C14.3262 44.692 28.4612 30.83 50.3412 30.83C53.7392 30.83 56.3212 31.102 59.4472 31.917V0ZM59.4472 48.765C57.0012 47.95 54.9622 47.679 52.3802 47.679C41.7802 47.679 35.6632 54.202 35.6632 65.618C35.6632 76.763 41.5082 82.878 52.2452 82.878C54.5542 82.878 56.4572 82.742 59.4472 82.336V48.765Z" fill="#83D2FF"/>
<path d="M113.673 32.3211V80.8401C113.673 97.5571 112.449 105.575 108.78 112.506C105.382 119.167 100.897 123.379 91.6557 128L72.2207 118.759C81.4627 114.409 85.9467 110.606 88.8007 104.759C91.7907 98.7801 92.7437 91.8491 92.7437 73.6371V32.3211H113.673ZM92.7427 0.111084H113.673V21.5851H92.7427V0.111084Z" fill="#83D2FF"/>
</svg>
