<svg width="128" height="128" viewBox="0 0 128 128" fill="none" xmlns="http://www.w3.org/2000/svg">
<path d="M126.671 98.4399C122.111 99.5999 119.291 98.4899 116.761 94.6899C111.081 86.1799 104.811 78.0599 98.7608 69.7899C97.9808 68.7199 97.1708 67.6699 96.1608 66.3399C89.0008 75.9999 81.8508 85.1999 75.1408 94.7699C72.7408 98.1899 70.2208 99.6799 65.7408 98.4699L92.6608 62.3399L67.6008 29.7099C71.9108 28.8699 74.8908 29.2999 77.5308 33.1599C83.3608 41.6799 89.7908 49.7899 96.2008 58.3699C102.651 49.8199 109.001 41.6999 115.001 33.2599C117.411 29.8399 120.001 28.5399 124.331 29.7999C121.051 34.1499 117.841 38.4299 114.611 42.6799C110.251 48.4099 105.971 54.2099 101.451 59.8199C99.8408 61.8199 100.101 63.1199 101.541 65.0099C109.901 75.9999 118.161 87.0999 126.671 98.4399ZM1.33078 61.7399C2.05078 58.1299 2.53078 54.4499 3.53078 50.9099C9.53078 29.4799 34.1308 20.5699 51.0308 33.8499C60.9308 41.6399 63.3908 52.6199 62.9008 64.9999H7.10078C6.26078 87.2099 22.2508 100.62 42.6308 93.7799C49.7808 91.3799 53.9908 85.7799 56.1008 78.7799C57.1708 75.2699 58.9408 74.7199 62.2408 75.7199C60.5508 84.4799 56.7208 91.7999 48.7208 96.3799C36.7208 103.24 19.5908 101.02 10.5808 91.4899C5.26078 85.8899 3.00078 78.9199 2.00078 71.3899C1.85078 70.1899 1.54078 69.0099 1.30078 67.8199C1.32078 65.7933 1.33078 63.7666 1.33078 61.7399ZM7.20078 60.2499H57.6308C57.3008 44.1899 47.3008 32.7799 33.6308 32.6799C18.6308 32.5599 7.85078 43.6999 7.20078 60.2499Z" fill="#83D2FF"/>
</svg>
