<svg width="128" height="128" viewBox="0 0 128 128" fill="none" xmlns="http://www.w3.org/2000/svg">
<path d="M124.742 58.378L69.6247 3.26405C66.4527 0.090045 61.3047 0.090045 58.1277 3.26405L46.6847 14.71L61.2027 29.228C64.5777 28.089 68.4457 28.853 71.1347 31.542C72.4162 32.8247 73.3108 34.4421 73.7163 36.2092C74.1218 37.9764 74.0218 39.822 73.4277 41.535L87.4197 55.529C90.8047 54.362 94.7117 55.116 97.4137 57.824C101.194 61.601 101.194 67.724 97.4137 71.503C96.5154 72.4018 95.4489 73.1147 94.275 73.6011C93.1011 74.0875 91.8429 74.3379 90.5722 74.3379C89.3015 74.3379 88.0433 74.0875 86.8694 73.6011C85.6955 73.1147 84.629 72.4018 83.7307 71.503C82.3811 70.1526 81.4611 68.4331 81.0865 66.561C80.712 64.6889 80.8996 62.7478 81.6257 60.982L68.5777 47.933L68.5757 82.274C69.5224 82.7402 70.3867 83.3577 71.1347 84.102C74.9137 87.879 74.9137 94 71.1347 97.785C67.3557 101.562 61.2307 101.562 57.4557 97.785C53.6777 94.0011 53.3677 87.88 57.1447 84.102C58.0787 83.169 58.9997 82.464 59.9997 81.992V47.333C58.9997 46.861 58.0797 46.161 57.1437 45.222C54.2827 42.362 53.7477 38.162 55.2157 34.646L40.9827 20.333L3.2287 58.123C0.0536954 61.3 0.0736954 66.448 3.2487 69.623L58.3747 124.737C61.5477 127.911 66.6997 127.911 69.8777 124.737L124.738 69.879C127.913 66.703 127.916 61.552 124.742 58.378Z" fill="#83D2FF"/>
</svg>
