<svg width="64" height="64" viewBox="0 0 64 64" fill="none" xmlns="http://www.w3.org/2000/svg">
<g clip-path="url(#clip0_2872_591)">
<path d="M32 0C23.3067 0 22.2213 0.04 18.808 0.192C15.4 0.352 13.08 0.888 11.04 1.68C8.936 2.496 7.14933 3.592 5.37067 5.37067C3.592 7.14933 2.49333 8.93333 1.68 11.04C0.888 13.08 0.349333 15.4 0.192 18.808C0.032 22.2213 0 23.3067 0 32C0 40.6933 0.04 41.7787 0.192 45.192C0.352 48.5973 0.888 50.92 1.68 52.96C2.496 55.0613 3.592 56.8507 5.37067 58.6293C7.14933 60.4053 8.93333 61.5067 11.04 62.32C13.0827 63.1093 15.4027 63.6507 18.808 63.808C22.2213 63.968 23.3067 64 32 64C40.6933 64 41.7787 63.96 45.192 63.808C48.5973 63.648 50.92 63.1093 52.96 62.32C55.0613 61.504 56.8507 60.4053 58.6293 58.6293C60.4053 56.8507 61.5067 55.0693 62.32 52.96C63.1093 50.92 63.6507 48.5973 63.808 45.192C63.968 41.7787 64 40.6933 64 32C64 23.3067 63.96 22.2213 63.808 18.808C63.648 15.4027 63.1093 13.0773 62.32 11.04C61.504 8.936 60.4053 7.14933 58.6293 5.37067C56.8507 3.592 55.0693 2.49333 52.96 1.68C50.92 0.888 48.5973 0.349333 45.192 0.192C41.7787 0.032 40.6933 0 32 0ZM32 5.76C40.5413 5.76 41.56 5.80267 44.9333 5.94933C48.0533 6.096 49.7467 6.61333 50.872 7.056C52.3707 7.63467 53.432 8.328 54.5573 9.44533C55.6747 10.5653 56.368 11.6293 56.9467 13.128C57.384 14.2533 57.9067 15.9467 58.048 19.0667C58.2 22.4427 58.2347 23.456 58.2347 32C58.2347 40.544 58.1947 41.56 58.0373 44.9333C57.8747 48.0533 57.3547 49.7467 56.9147 50.872C56.3173 52.3707 55.6373 53.432 54.5173 54.5573C53.4 55.6747 52.32 56.368 50.8373 56.9467C49.7173 57.384 47.9973 57.9067 44.8773 58.048C41.48 58.2 40.48 58.2347 31.92 58.2347C23.3573 58.2347 22.3573 58.1947 18.9627 58.0373C15.84 57.8747 14.12 57.3547 13 56.9147C11.4827 56.3173 10.44 55.6373 9.32267 54.5173C8.2 53.4 7.48267 52.32 6.92267 50.8373C6.48267 49.7173 5.96533 47.9973 5.80267 44.8773C5.68267 41.5173 5.64 40.48 5.64 31.96C5.64 23.4373 5.68267 22.3973 5.80267 18.9973C5.96533 15.8773 6.48267 14.16 6.92267 13.04C7.48267 11.52 8.2 10.48 9.32267 9.35733C10.44 8.24 11.4827 7.52 13 6.96267C14.12 6.52 15.8027 6 18.9227 5.84C22.3227 5.72 23.3227 5.68 31.88 5.68L32 5.76ZM32 15.568C22.92 15.568 15.568 22.928 15.568 32C15.568 41.08 22.928 48.432 32 48.432C41.08 48.432 48.432 41.072 48.432 32C48.432 22.92 41.072 15.568 32 15.568ZM32 42.6667C26.1067 42.6667 21.3333 37.8933 21.3333 32C21.3333 26.1067 26.1067 21.3333 32 21.3333C37.8933 21.3333 42.6667 26.1067 42.6667 32C42.6667 37.8933 37.8933 42.6667 32 42.6667ZM52.9227 14.92C52.9227 17.04 51.2 18.76 49.0827 18.76C46.9627 18.76 45.2427 17.0373 45.2427 14.92C45.2427 12.8027 46.9653 11.0827 49.0827 11.0827C51.1973 11.08 52.9227 12.8027 52.9227 14.92Z" fill="#F03D4F"/>
</g>
<defs>
<clipPath id="clip0_2872_591">
<rect width="64" height="64" fill="white"/>
</clipPath>
</defs>
</svg>
