<svg width="128" height="128" viewBox="0 0 128 128" fill="none" xmlns="http://www.w3.org/2000/svg">
<path fill-rule="evenodd" clip-rule="evenodd" d="M113.823 104.595C112.028 103.117 110.194 101.674 108.515 100.07C106.645 98.2849 105.47 96.1259 105.726 93.3919C105.873 91.8189 105.51 90.4659 103.613 89.9399C104.059 88.7859 104.477 88.0119 104.646 87.1869C104.834 86.2669 104.824 85.2999 104.85 84.3529C105.114 74.3929 101.516 65.6619 96.1872 57.5179C93.7332 53.7699 91.1702 50.0889 88.5542 46.4519C84.4622 40.7639 82.9952 34.3739 82.9212 27.4709C82.8792 24.2844 82.517 21.1101 81.8402 17.9959C80.5272 11.9559 77.2912 7.23293 71.4222 4.69993C66.9252 2.75793 62.2702 2.37293 57.5212 3.61593C50.6202 5.42093 46.4472 10.5499 46.5252 17.7039C46.5992 24.5889 46.9422 31.4829 47.4472 38.3519C47.7352 42.2449 47.1352 45.6039 44.5522 48.6919C42.0682 51.6609 39.8462 54.8639 37.6942 58.0889C36.4652 59.9329 35.3772 61.9419 34.6172 64.0199C32.5472 69.6829 30.6442 75.3929 27.3412 80.5199C26.1172 82.4199 25.9782 84.5459 26.8472 86.7189C27.0722 87.2819 27.2102 88.1479 26.9362 88.6009C24.5822 92.5079 21.9252 95.9459 16.8702 96.6959C12.8942 97.2869 12.6982 98.0099 12.8192 102.109C12.9192 105.446 12.8802 108.814 12.5392 112.13C12.1762 115.685 12.5472 116.651 15.9812 117.503C23.9052 119.471 31.8942 121.15 39.4732 124.357C42.7002 125.722 45.9382 125.248 48.5372 122.594C51.2502 119.823 54.6782 118.739 58.3812 118.735C64.6662 118.73 70.9532 119.033 77.2412 119.104C78.9432 119.124 79.9202 119.757 80.6052 121.303C81.4452 123.196 82.8652 124.587 85.0502 124.829C89.2432 125.291 93.0632 124.669 96.2402 121.47C100.158 117.522 104.676 114.404 109.855 112.243C111.337 111.624 112.733 110.651 113.958 109.595C116.189 107.673 116.071 106.449 113.823 104.595ZM62.4262 24.1199C63.1842 21.5189 64.9632 19.8309 67.6692 19.3189C69.9452 18.8889 71.8722 20.0069 73.3082 22.5649C74.8542 25.3229 75.3622 28.2049 74.0422 31.2229C72.9592 33.6969 72.4512 33.9299 69.9192 33.0909C69.4452 32.9339 68.9822 32.7479 68.1422 32.4389C68.8502 31.8449 69.2962 31.4039 69.8062 31.0569C70.9402 30.2849 71.2582 29.1989 71.1522 27.9089C71.0132 26.2149 69.6812 24.7149 68.3152 24.7339C67.0902 24.7509 66.0532 25.9009 65.9152 27.6489C65.8292 28.7379 66.0102 29.8479 66.0882 31.2379C62.6422 30.2149 61.3772 27.7129 62.4262 24.1199ZM49.6762 21.8689C50.9502 19.9409 52.8732 19.5549 54.7772 20.8449C56.8062 22.2209 58.3242 26.1009 57.5402 28.4209C57.2552 29.2649 56.4132 29.9209 55.8242 30.6619L55.2202 30.2879C54.9902 29.0349 54.9442 27.7029 54.4632 26.5549C54.1592 25.8269 53.2062 25.3709 52.5442 24.7929C51.9222 25.5319 50.8512 26.2359 50.7872 27.0209C50.6992 28.1049 51.2642 29.3009 51.7562 30.3519C52.0672 31.0129 52.7572 31.4969 53.4692 32.2679L51.5472 33.7779C48.5292 31.0779 47.6322 24.9579 49.6762 21.8689ZM87.3402 86.0749C87.1372 88.6789 86.8402 88.7879 84.2222 89.1729C82.3632 89.4449 81.8632 89.9289 81.7692 92.1369C81.6667 94.7202 81.6627 97.3064 81.7572 99.8899C81.8182 101.66 81.2202 103.048 80.0022 104.283C73.2382 111.139 65.1572 114.388 55.4902 113.209C51.3202 112.7 48.5942 110.162 46.3932 106.57C47.3732 106.207 48.0982 105.963 48.8052 105.676C51.9272 104.406 52.5112 101.721 50.0182 99.3989C48.1342 97.6419 46.0322 96.1159 44.0112 94.5069C42.0572 92.9519 40.0772 91.4289 38.1202 89.8779C36.4522 88.5549 35.8152 86.8499 35.7752 84.6899C35.6812 79.5079 36.7472 74.6599 38.9132 69.9429C40.8452 65.7339 42.3422 61.3259 44.1522 57.0579C45.0872 54.8559 46.0582 52.6029 47.4302 50.6699C48.7492 48.8159 49.5642 47.0009 49.4182 44.7299C49.3342 43.4539 49.4022 42.1679 49.4022 40.8869L50.1092 40.5349C51.2502 41.5199 52.4112 42.4839 53.5322 43.4939C57.5772 47.1399 61.4242 47.3069 65.8512 44.1639C67.7392 42.8229 69.7812 41.6939 71.7782 40.5119C72.2752 40.2179 72.8702 40.0889 73.7122 39.7739C75.8632 44.8399 77.9742 49.8069 80.0872 54.7739C81.1592 57.2979 82.0192 59.9409 83.3512 62.3209C86.0222 67.0959 87.4432 72.1339 87.4212 77.5929C87.4092 80.4229 87.5582 83.2629 87.3402 86.0749Z" fill="#83D2FF"/>
</svg>
