<svg width="128" height="128" viewBox="0 0 128 128" fill="none" xmlns="http://www.w3.org/2000/svg">
<rect x="35.5" y="7.5" width="57" height="113" rx="9.5" stroke="black" stroke-width="3"/>
<path d="M51 9H77C77 11.7614 74.7614 14 72 14H56C53.2386 14 51 11.7614 51 9Z" fill="black"/>
<rect x="40" y="22" width="48" height="21" rx="6" fill="black"/>
<rect x="43" y="46" width="9" height="9" rx="4.5" fill="black"/>
<rect x="40" y="57" width="34" height="2" rx="1" fill="black"/>
<rect x="40" y="60" width="28" height="2" rx="1" fill="black"/>
<rect x="40" y="63" width="28" height="2" rx="1" fill="black"/>
<rect x="40" y="66" width="21" height="2" rx="1" fill="black"/>
<rect x="40" y="69" width="9" height="2" rx="1" fill="black"/>
<rect x="54" y="46" width="9" height="9" rx="4.5" fill="black"/>
<rect x="41" y="106" width="45" height="9" rx="4.5" fill="black"/>
<rect x="41" y="74" width="45" height="25" rx="6" fill="black"/>
<rect x="65" y="46" width="9" height="9" rx="4.5" fill="black"/>
<rect x="76" y="46" width="9" height="9" rx="4.5" fill="black"/>
</svg>
