<svg width="129" height="129" viewBox="0 0 129 129" fill="none" xmlns="http://www.w3.org/2000/svg">
<path fill-rule="evenodd" clip-rule="evenodd" d="M88.4454 42.8C90.0504 47.443 91.2064 52.1831 91.5864 57.0961C92.0584 63.191 91.8424 69.243 90.5574 75.238C90.5224 75.403 90.4484 75.5581 90.3934 75.7181C89.9904 75.7191 89.5794 75.669 89.1854 75.73C85.8564 76.253 82.5304 76.795 79.2044 77.334C75.7664 77.891 72.3234 78.426 68.8914 79.021C67.6754 79.231 66.1704 78.9801 65.6794 80.6621C65.6654 80.7081 65.5254 80.716 65.4444 80.742L65.6104 70.6911L65.4414 46.439L67.0434 46.164C69.6634 45.735 72.2834 45.3 74.9054 44.883C78.0344 44.386 81.1664 43.903 84.2974 43.418C85.6784 43.203 87.0614 43.006 88.4454 42.8Z" fill="#83D2FF"/>
<path fill-rule="evenodd" clip-rule="evenodd" d="M62.137 110.042C60.447 108.589 58.698 107.2 57.078 105.672C48.361 97.4502 41.985 87.7732 38.845 76.1062C37.98 72.8952 37.403 69.6322 37.218 66.3142C37.088 63.9922 36.9 61.6492 37.064 59.3392C37.501 53.1952 38.389 47.1102 40.191 41.1922L40.29 41.0542C40.465 41.2872 40.717 41.4932 40.806 41.7562C42.565 46.9362 44.311 52.1202 46.048 57.3072C51.506 73.6072 56.957 89.9112 62.424 106.207C62.531 106.525 62.808 106.786 63.007 107.073L62.137 110.042Z" fill="#428CB6"/>
<path fill-rule="evenodd" clip-rule="evenodd" d="M88.4452 42.8001C87.0612 43.0061 85.6772 43.2031 84.2962 43.4161C81.1652 43.9011 78.0332 44.3841 74.9042 44.8811C72.2822 45.2981 69.6622 45.7331 67.0422 46.1621L65.4402 46.4371L65.4282 45.3921C65.3752 44.5331 65.2842 43.6751 65.2742 42.8161C65.2052 37.3381 65.1622 31.8601 65.0942 26.3821C65.0522 22.9531 64.9892 19.5251 64.9192 16.0971C64.8762 13.9671 64.8302 11.8361 64.7342 9.70913C64.6822 8.56613 64.4982 7.42913 64.4232 6.28613C64.3812 5.62913 64.4392 4.96713 64.4522 4.30713C65.2692 5.89013 66.0682 7.48513 66.9082 9.05613C68.2352 11.5401 70.3492 13.3701 72.2522 15.3671C79.7752 23.2591 85.1162 32.4351 88.4452 42.8001Z" fill="#83D2FF"/>
<path fill-rule="evenodd" clip-rule="evenodd" d="M65.4437 80.741C65.5247 80.715 65.6657 80.707 65.6787 80.661C66.1697 78.979 67.6747 79.23 68.8907 79.02C72.3227 78.426 75.7657 77.89 79.2037 77.333C82.5297 76.794 85.8557 76.252 89.1847 75.729C89.5787 75.667 89.9897 75.718 90.3927 75.717C89.7707 77.937 89.2807 80.205 88.4917 82.364C87.5957 84.813 86.5117 87.203 85.3607 89.546C83.6375 93.0407 81.5049 96.3181 79.0077 99.309C77.0887 101.617 74.9497 103.75 72.8057 105.857C71.6207 107.022 70.2237 107.971 68.9237 109.018L68.5867 108.788L67.3727 107.75L66.1167 104.997C65.2587 101.786 64.7907 98.4824 64.7227 95.159L64.7457 94.598L64.9167 92.172C64.9737 91.344 65.0497 90.517 65.0847 89.687C65.2137 86.705 65.3257 83.723 65.4437 80.741Z" fill="#83D2FF"/>
<path fill-rule="evenodd" clip-rule="evenodd" d="M65.4445 80.7409C65.3265 83.7229 65.2145 86.7049 65.0875 89.6879C65.0525 90.5179 64.9765 91.3449 64.9195 92.1729L64.1545 92.4619C62.4555 87.4599 60.7555 82.5109 59.0925 77.5489C56.3425 69.3399 53.6255 61.1179 50.8795 52.9069C48.6616 46.2794 46.4283 39.657 44.1795 33.0399C44.0745 32.7299 43.7725 32.4879 43.5625 32.2139L48.4585 23.2119C48.6265 23.5039 48.8485 23.7769 48.9545 24.0909C51.222 30.793 53.478 37.499 55.7225 44.2089C58.6385 52.9389 61.5365 61.6759 64.4505 70.4069C64.5665 70.7559 64.7585 71.0779 64.9415 71.4689L65.6115 70.6889L65.4445 80.7409Z" fill="#428CB6"/>
<path fill-rule="evenodd" clip-rule="evenodd" d="M43.563 32.2151C43.773 32.4891 44.074 32.7311 44.18 33.0411C46.4288 39.6582 48.6621 46.2806 50.88 52.9081C53.626 61.1191 56.343 69.3411 59.093 77.5501C60.755 82.5111 62.455 87.4611 64.155 92.4631L64.92 92.1741L64.749 94.6001L64.594 95.1591C64.328 97.8151 64.104 100.477 63.78 103.127C63.617 104.455 63.271 105.759 63.008 107.074C62.81 106.787 62.532 106.526 62.425 106.208C56.958 89.9111 51.507 73.6081 46.049 57.3081C44.3126 52.1207 42.5653 46.9371 40.807 41.7571C40.718 41.4941 40.467 41.2881 40.291 41.0551L43.563 32.2151Z" fill="#428CB6"/>
<path fill-rule="evenodd" clip-rule="evenodd" d="M65.61 70.69L64.94 71.47C64.757 71.079 64.565 70.756 64.449 70.408C61.536 61.677 58.637 52.94 55.721 44.21C53.4766 37.5002 51.2206 30.7942 48.953 24.092C48.848 23.778 48.626 23.504 48.457 23.213L54.512 15.248C54.703 15.503 54.975 15.73 55.074 16.017C56.755 20.938 58.421 25.865 60.077 30.795C61.624 35.399 63.148 40.01 64.713 44.608C64.818 44.916 65.183 45.134 65.427 45.394L65.439 46.439C65.497 54.521 65.554 62.606 65.61 70.69Z" fill="#428CB6"/>
<path fill-rule="evenodd" clip-rule="evenodd" d="M65.4287 45.392C65.1847 45.132 64.8197 44.914 64.7147 44.606C63.1497 40.008 61.6257 35.397 60.0787 30.793C58.4227 25.863 56.7567 20.937 55.0757 16.015C54.9767 15.728 54.7047 15.501 54.5137 15.246C56.4827 13.318 58.3907 11.321 60.4387 9.482C62.2597 7.848 63.7237 6.096 63.7907 3.514C63.7937 3.407 63.8497 3.3 63.9357 3L64.4547 4.306C64.4417 4.967 64.3827 5.628 64.4257 6.285C64.5007 7.428 64.6847 8.565 64.7367 9.708C64.8327 11.835 64.8787 13.966 64.9217 16.096C64.9907 19.524 65.0537 22.952 65.0967 26.381C65.1637 31.859 65.2077 37.337 65.2767 42.815C65.2847 43.676 65.3747 44.533 65.4287 45.392Z" fill="#428CB6"/>
<path fill-rule="evenodd" clip-rule="evenodd" d="M63.0067 107.073C63.2697 105.758 63.6157 104.453 63.7787 103.126C64.1037 100.477 64.3267 97.8139 64.5927 95.1579L64.6587 95.1479L64.7247 95.1589C64.7928 98.4823 65.2608 101.785 66.1187 104.997C65.9427 105.229 65.6937 105.436 65.6007 105.698C64.8737 107.748 64.1887 109.814 63.4577 111.864C63.3577 112.144 63.0797 112.362 62.8837 112.608L62.1367 110.042L63.0067 107.073Z" fill="#A9AA88"/>
<path fill-rule="evenodd" clip-rule="evenodd" d="M62.8848 112.609C63.0808 112.363 63.3598 112.145 63.4588 111.865C64.1898 109.815 64.8758 107.75 65.6018 105.699C65.6948 105.437 65.9428 105.23 66.1198 104.998L67.3748 107.752C67.1268 108.104 66.7848 108.421 66.6468 108.813L64.2428 115.872C64.1438 116.155 63.8058 116.355 63.5798 116.594L62.8848 112.609Z" fill="#A9AA88"/>
<path fill-rule="evenodd" clip-rule="evenodd" d="M63.5801 116.593C63.8071 116.355 64.1441 116.154 64.2431 115.871L66.6471 108.812C66.7841 108.421 67.1271 108.103 67.3751 107.751L68.5901 108.788C68.0031 109.368 67.6771 110.038 67.8731 110.885L67.5041 112.093C67.3361 112.3 67.0931 112.48 67.0101 112.717C66.1711 115.12 65.3701 117.536 64.5251 119.939C64.4181 120.244 64.1211 120.483 63.9111 120.751C63.8021 119.364 63.6911 117.98 63.5801 116.593Z" fill="#A9AA88"/>
<path fill-rule="evenodd" clip-rule="evenodd" d="M63.911 120.751C64.12 120.482 64.417 120.243 64.525 119.939C65.37 117.537 66.171 115.121 67.01 112.717C67.093 112.481 67.335 112.3 67.504 112.093L66.995 117.638C66.859 117.795 66.662 117.932 66.597 118.115C66.022 119.729 65.48 121.355 64.903 122.969C64.784 123.302 64.556 123.596 64.378 123.907C64.22 123.7 63.937 123.5 63.924 123.284C63.873 122.443 63.908 121.596 63.911 120.751Z" fill="#A9AA88"/>
<path fill-rule="evenodd" clip-rule="evenodd" d="M64.377 123.907C64.555 123.595 64.783 123.301 64.902 122.969C65.48 121.356 66.021 119.73 66.596 118.115C66.661 117.932 66.8589 117.796 66.9939 117.638L67.006 121.278L65.7879 124.402L64.377 123.907Z" fill="#A9AA88"/>
<path fill-rule="evenodd" clip-rule="evenodd" d="M65.7891 124.403L67.0071 121.279L67.2581 124.975L65.7891 124.403Z" fill="#A9AA88"/>
<path fill-rule="evenodd" clip-rule="evenodd" d="M67.8716 110.886C67.6756 110.039 68.0006 109.368 68.5886 108.789L68.9256 109.019L67.8716 110.886Z" fill="#A9AA88"/>
<path fill-rule="evenodd" clip-rule="evenodd" d="M64.7238 95.1601L64.6578 95.1491L64.5918 95.1591L64.7468 94.6001L64.7238 95.1601Z" fill="#428CB6"/>
</svg>
