<svg width="128" height="128" viewBox="0 0 128 128" fill="none" xmlns="http://www.w3.org/2000/svg">
<g clip-path="url(#clip0_1861_31)">
<path d="M72.9333 42.9777L68.5528 50.5716L53.5721 24.5941L7.58373 104.33H38.7209C38.7209 108.524 42.1169 111.924 46.3061 111.924H7.58373C4.87406 111.924 2.37047 110.476 1.01586 108.126C-0.338749 105.777 -0.338612 102.882 1.01622 100.533L47.0046 20.7972C48.3595 18.4475 50.8636 17 53.5737 17C56.2837 17 58.7878 18.4475 60.1427 20.7972L72.9333 42.9777Z" fill="#83D2FF"/>
<path d="M106.131 100.533L77.314 50.5714L72.9336 42.9775L68.5531 50.5714L39.7389 100.533C38.384 102.882 38.3839 105.777 39.7385 108.126C41.0931 110.476 43.5967 111.924 46.3064 111.924H99.5544C102.265 111.924 104.769 110.477 106.125 108.128C107.48 105.778 107.48 102.883 106.125 100.533H106.131ZM46.3064 104.33L72.9336 58.1653L99.5544 104.33L46.3064 104.33Z" fill="#428CB6"/>
<path d="M126.735 108.127C125.38 110.476 122.877 111.924 120.167 111.924H99.5544C103.744 111.924 107.14 108.524 107.14 104.33H120.151L83.2305 40.3104L77.314 50.5717L72.9336 42.9778L76.663 36.5135C78.0179 34.1638 80.522 32.7163 83.2321 32.7163C85.9421 32.7163 88.4462 34.1638 89.8011 36.5135L126.735 100.533C128.09 102.883 128.09 105.778 126.735 108.127Z" fill="#326D8E"/>
</g>
<defs>
<clipPath id="clip0_1861_31">
<rect width="128" height="128" fill="white"/>
</clipPath>
</defs>
</svg>
