<svg width="128" height="128" viewBox="0 0 128 128" fill="none" xmlns="http://www.w3.org/2000/svg">
<path d="M64.0003 33.0391C30.2603 33.0391 2.90625 46.9011 2.90625 64.0001C2.90625 81.0991 30.2603 94.9611 64.0003 94.9611C97.7402 94.9611 125.094 81.0991 125.094 64.0001C125.094 46.9011 97.7402 33.0391 64.0003 33.0391ZM48.1033 70.0321C46.6453 71.3961 45.0263 71.9591 43.2433 72.5391C41.4603 73.1201 39.1912 73.0001 36.4323 73.0001H30.1793L28.4462 83.0001H21.1453L27.6602 49.0001H41.7003C45.9243 49.0001 49.0053 50.2151 50.9423 52.4321C52.8793 54.6491 53.4613 57.7961 52.6893 61.7691C52.3703 63.4061 51.8333 64.9281 51.0753 66.2841C50.2898 67.6832 49.2865 68.9484 48.1033 70.0321ZM69.4143 73.0001L72.2952 58.5801C72.6233 56.8921 72.5033 55.6381 71.9342 55.0251C71.3643 54.4111 70.1523 54.0001 68.2993 54.0001H62.5093L58.7783 73.0001H51.5343L58.0493 40.0001H65.2933L63.5613 49.0001H70.0143C74.0752 49.0001 76.8753 49.8151 78.4163 51.2311C79.9573 52.6471 80.4193 54.5871 79.8033 57.7591L76.7723 73.0001H69.4143ZM109.673 61.8221C109.355 63.4591 108.817 64.9551 108.06 66.3101C107.302 67.6671 106.312 68.9081 105.089 70.0321C103.631 71.3961 102.011 71.9591 100.229 72.5391C98.4473 73.1201 96.1763 73.0001 93.4173 73.0001H87.1643L85.4323 83.0001H78.1312L84.6452 49.0001H98.6862C102.91 49.0001 105.991 50.2151 107.927 52.4321C109.862 54.6491 110.445 57.8501 109.673 61.8221ZM95.9193 54.0001H90.9183L88.1913 68.0001H92.6333C95.5753 68.0001 97.7692 67.7101 99.2093 66.6001C100.651 65.4921 101.622 63.7721 102.127 61.1791C102.611 58.6881 102.391 56.7451 101.467 55.7211C100.542 54.6971 98.6933 54.0001 95.9193 54.0001ZM38.9342 54.0001H33.9322L31.2052 68.0001H35.6463C38.5893 68.0001 40.7822 67.7101 42.2233 66.6001C43.6643 65.4921 44.6362 63.7721 45.1403 61.1791C45.6243 58.6881 45.4043 56.7451 44.4803 55.7211C43.5563 54.6971 41.7082 54.0001 38.9342 54.0001Z" fill="#83D2FF"/>
</svg>
