<svg width="126" height="146" viewBox="0 0 126 146" fill="none" xmlns="http://www.w3.org/2000/svg">
<g clip-path="url(#clip0_1863_7)">
<path d="M5.4 61.5065C12.1 64.7065 49.1 79.6065 54.9 82.4065C60.7 85.2065 64.9 85.2065 72.3 81.4065C79.7 77.5065 114.5 63.3065 121.2 59.8065C124.6 58.0065 126.1 56.6065 126.1 55.4065V42.9065C126.1 41.6065 124.4 40.5065 121.1 39.3065C114.6 36.9065 80 23.2065 73.4 20.7065C66.8 18.3065 64.1 18.4065 56.3 21.2065C48.5 24.0065 11.8 38.4065 5.2 41.0065C2 42.3065 0.2 43.4065 0.2 44.7065H0V57.4065C0.2 58.6065 2.1 59.9065 5.4 61.5065ZM65.8 63.3065L45.5 54.9065L74.6 50.4065L65.8 63.3065ZM109.9 43.3065L92.7 50.1065L90.8 50.8065L73.6 44.0065L92.7 36.5065L109.9 43.3065ZM59.3 30.8065L56.5 25.6065L65.3 29.0065L73.6 26.3065L71.4 31.7065L79.8 34.9065L68.9 36.0065L66.5 41.9065L62.6 35.4065L50 34.3065L59.3 30.8065ZM37.6 38.1065C46.2 38.1065 53.2 40.8065 53.2 44.1065C53.2 47.4065 46.2 50.1065 37.6 50.1065C29 50.1065 22 47.4065 22 44.1065C22 40.8065 29 38.1065 37.6 38.1065ZM121.2 68.6065C114.5 72.1065 79.8 86.4065 72.4 90.2065C65 94.1065 60.9 94.0065 55.1 91.2065C49.3 88.4065 12.1 73.5065 5.5 70.3065C2.1 68.7065 0.2 67.4065 0.2 66.1065V78.8065C0.2 80.1065 2.1 81.4065 5.4 83.0065C12.1 86.2065 49.1 101.106 54.9 103.906C60.7 106.706 64.9 106.706 72.3 102.906C79.7 99.0065 114.5 84.8065 121.2 81.3065C124.6 79.5065 126.1 78.1065 126.1 76.9065V64.4065C126.1 65.5065 124.5 66.9065 121.2 68.6065ZM121.2 89.3065C114.5 92.8065 79.8 107.106 72.4 110.906C65 114.806 60.9 114.706 55.1 111.906C49.3 109.106 12.1 94.2065 5.5 91.0065C2.1 89.5065 0.2 88.1065 0.2 86.8065V99.5065C0.2 100.806 2.1 102.106 5.4 103.706C12.1 106.906 49.1 121.806 54.9 124.606C60.7 127.407 64.9 127.407 72.3 123.606C79.7 119.706 114.5 105.506 121.2 102.006C124.6 100.206 126.1 98.8065 126.1 97.6065V85.1065C126.1 86.3065 124.5 87.6065 121.2 89.3065Z" fill="#83D2FF"/>
</g>
<defs>
<clipPath id="clip0_1863_7">
<rect width="126" height="146" fill="white"/>
</clipPath>
</defs>
</svg>
