<svg width="128" height="128" viewBox="0 0 128 128" fill="none" xmlns="http://www.w3.org/2000/svg">
<path d="M125.539 26.23C125.014 23.5919 124.122 21.0404 122.889 18.65C121.6 16.3346 119.999 14.208 118.129 12.33C116.201 10.4434 113.961 8.90408 111.509 7.77999C109.089 6.55969 106.501 5.70699 103.829 5.24999C101.179 4.73999 98.2692 4.73999 95.6192 4.48999H30.2492C28.2101 4.52319 26.1755 4.69358 24.1592 4.99999C22.1583 5.23541 20.1997 5.74694 18.3392 6.51999C17.8092 6.76999 17.0192 7.02999 16.4892 7.27999C14.729 8.22355 13.0558 9.32117 11.4892 10.56C10.9592 11.07 10.4292 11.32 9.89922 11.82C7.95028 13.6277 6.3385 15.7677 5.13922 18.14C3.82955 20.4968 2.93325 23.0605 2.48922 25.72C2.09509 28.3151 1.83143 30.9284 1.69922 33.55V93.94C1.70004 96.5698 1.9647 99.193 2.48922 101.77C3.014 104.408 3.90601 106.96 5.13922 109.35C6.42801 111.665 8.02974 113.792 9.89922 115.67C11.8274 117.557 14.067 119.096 16.5192 120.22C18.9393 121.44 21.5277 122.293 24.1992 122.75C26.8492 123.26 29.7592 123.26 32.4092 123.51H95.6292C98.3834 123.508 101.132 123.254 103.839 122.75C106.511 122.293 109.099 121.44 111.519 120.22C113.919 119.006 116.146 117.475 118.139 115.67C120.088 113.862 121.7 111.722 122.899 109.35C124.209 106.993 125.105 104.429 125.549 101.77C125.943 99.1748 126.207 96.5616 126.339 93.94V34.06C126.335 31.4298 126.067 28.8067 125.539 26.23ZM106.749 101.77C100.999 91 90.3692 94.33 84.9992 96.5C73.8892 102.63 58.6192 103.26 43.2492 96.97C31.2654 92.1076 21.0191 83.7566 13.8392 73C17.1759 75.5542 20.8213 77.6776 24.6892 79.32C40.5592 86.42 56.4192 85.93 67.5892 79.32C51.6892 67.66 38.1892 52.5 28.1292 40.12C26.144 38.0278 24.3719 35.7432 22.8392 33.3C34.9992 43.91 54.3392 57.3 61.2192 61.09C51.396 51.0249 42.3689 40.2124 34.2192 28.75C47.7663 41.9148 62.6732 53.6037 78.6892 63.62C79.3992 64 79.9492 64.32 80.3892 64.62C80.8587 63.4738 81.2627 62.302 81.5992 61.11C85.3092 48.22 81.0692 33.57 71.8092 21.44C93.2492 33.81 105.999 57.05 100.659 76.51C100.519 77.04 100.369 77.51 100.209 78.06L100.399 78.28C110.999 90.91 108.069 104.3 106.749 101.77Z" fill="#83D2FF"/>
</svg>
