<svg width="128" height="128" viewBox="0 0 128 128" fill="none" xmlns="http://www.w3.org/2000/svg">
<path fill-rule="evenodd" clip-rule="evenodd" d="M64 36.9844C49.0797 36.9844 36.9844 49.0797 36.9844 64C36.9844 78.9203 49.0797 91.0156 64 91.0156C78.9203 91.0156 91.0156 78.9203 91.0156 64C91.0156 49.0797 78.9203 36.9844 64 36.9844ZM43.4844 64C43.4844 52.6695 52.6695 43.4844 64 43.4844C75.3305 43.4844 84.5156 52.6695 84.5156 64C84.5156 75.3305 75.3305 84.5156 64 84.5156C52.6695 84.5156 43.4844 75.3305 43.4844 64Z" fill="black"/>
<path fill-rule="evenodd" clip-rule="evenodd" d="M110.312 54.6562H103.563L102.943 54.0358C100.002 51.0948 98.3158 47.1333 98.23 42.9836L103.146 38.0674C105.367 35.8463 105.367 32.2452 103.146 30.024L97.9754 24.8532C95.7543 22.6322 92.1533 22.6321 89.9322 24.8532L85.7227 29.0625H84.8472C80.5545 29.0625 76.4333 27.4004 73.3438 24.4326V17.6875C73.3438 14.5464 70.7974 12 67.6563 12H60.3438C57.2026 12 54.6562 14.5464 54.6562 17.6875V23.7265L54.539 23.8438C51.2763 27.1066 46.8784 28.9733 42.2735 29.0594L38.0672 24.8532C35.846 22.6321 32.245 22.6322 30.0239 24.8532L24.8531 30.024C22.6319 32.2451 22.6319 35.8463 24.8531 38.0674L29.0594 42.2737C28.9733 46.8784 27.1067 51.2762 23.844 54.539L23.7267 54.6562H17.6875C14.5464 54.6562 12 57.2026 12 60.3438V67.6563C12 70.7974 14.5464 73.3438 17.6875 73.3438H24.4329C27.4005 76.4329 29.0625 80.5537 29.0625 84.8459V85.7233L24.8531 89.9326C22.6319 92.1537 22.6319 95.7549 24.8531 97.976L30.0239 103.147C32.245 105.368 35.846 105.368 38.0672 103.147L42.9842 98.23C47.1338 98.3158 51.0954 100.002 54.0363 102.943L54.6562 103.563V110.312C54.6562 113.454 57.2026 116 60.3438 116H67.6563C70.7974 116 73.3438 113.454 73.3438 110.312V102.857C76.4333 99.8887 80.5545 98.2266 84.8472 98.2266H85.0117L89.9322 103.147C92.1533 105.368 95.7543 105.368 97.9754 103.147L103.146 97.976C105.367 95.7549 105.367 92.1537 103.146 89.9326L98.2266 85.013V84.8472C98.2266 80.5545 99.8888 76.4332 102.857 73.3438H110.312C113.454 73.3438 116 70.7974 116 67.6563V60.3438C116 57.2026 113.454 54.6562 110.312 54.6562ZM91.7266 42.6505C91.7266 48.3734 93.8971 53.8725 97.7822 58.0472L97.7719 58.0575L100.871 61.1562H109.5V66.8438H100.16L98.494 68.5095C94.1609 72.8425 91.7266 78.7194 91.7266 84.8472V87.7054L97.9755 93.9543L93.9538 97.9761L87.7041 91.7266H84.8472C78.7195 91.7266 72.8428 94.1607 68.5097 98.4934L66.8438 100.159V109.5H61.1562V100.87L58.6326 98.3465C54.3941 94.1078 48.6453 91.7266 42.651 91.7266H40.2953L34.0456 97.9761L30.0238 93.9543L35.5625 88.4157V84.8459C35.5625 78.7186 33.1285 72.8423 28.7959 68.5096L27.13 66.8438H18.5V61.1562H26.4191L28.4402 59.1351C33.0005 54.5748 35.5625 48.3896 35.5625 41.9402V39.5844L30.0238 34.0457L34.0456 30.024L39.5843 35.5625H41.9401C48.3896 35.5625 54.5749 33.0004 59.1353 28.4399L61.1562 26.4188V18.5H66.8438V27.1298L68.5097 28.7957C72.8428 33.1284 78.7195 35.5625 84.8472 35.5625H88.415L93.9537 30.024L97.9755 34.0457L91.7266 40.2946V42.6505Z" fill="black"/>
</svg>
