<svg width="128" height="128" viewBox="0 0 128 128" fill="none" xmlns="http://www.w3.org/2000/svg">
<path d="M38.0882 77.4659L26.6882 82.3619L37.2472 86.8759L49.4882 82.3619L38.0882 77.4659ZM20.9502 83.5859L20.5682 105.62L37.2472 112.965V90.0889L20.9502 83.5859ZM55.2262 83.5859L40.1532 89.3249V110.9L55.2262 104.779V83.5859ZM73.2052 15.0349L61.7292 19.9309L72.3642 24.4459L84.6052 19.9309L73.2052 15.0349ZM57.2912 21.5379V43.5719L71.5222 47.7039L71.9812 27.6579L57.2912 21.5379ZM89.1192 22.7619L75.6532 28.4999V50.1519L89.1192 44.0309V22.7619ZM19.3052 46.0469L7.90616 50.9439L18.4642 55.4579L30.7052 50.9439L19.3052 46.0469ZM2.16716 52.1679L1.78516 74.2019L18.4642 81.5469V58.6709L2.16716 52.1679ZM36.4422 52.1679L21.3712 57.9059V79.4799L36.4422 73.3599V52.1679ZM56.0292 45.2309L44.6292 50.1279L55.1872 54.6419L67.4282 50.1279L56.0292 45.2309ZM38.8922 51.3519L38.5092 73.3869L55.1882 80.7319V57.8549L38.8922 51.3519ZM73.1672 51.3519L58.0952 57.0899V78.6659L73.1672 72.5449V51.3519ZM109.075 15.0349L97.6762 19.9309L108.235 24.4459L120.476 19.9309L109.075 15.0349ZM91.9382 21.1559L91.5562 43.1899L108.235 50.5339V27.6579L91.9382 21.1559ZM126.213 21.1559L111.142 26.8939V48.4689L126.213 42.3489V21.1559Z" fill="#83D2FF"/>
</svg>
