<svg width="191" height="128" viewBox="0 0 191 128" fill="none" xmlns="http://www.w3.org/2000/svg">
<path d="M150.437 36.071C151.789 51.8186 127.006 66.8067 95.0838 69.5454C63.1618 72.284 36.1881 61.7356 34.8379 45.9888C33.4861 30.2386 58.2691 15.2514 90.1911 12.5127C122.113 9.77484 149.087 20.3208 150.437 36.071Z" fill="#428CB6"/>
<g opacity="0.350006">
<g opacity="0.350006">
<path opacity="0.350006" d="M91.128 14.3596C78.9511 14.1616 64.7021 18.9963 54.0998 23.5238C52.9963 26.7037 52.4023 30.0859 52.4023 33.5918C52.4023 52.2719 69.2697 67.417 90.0774 67.417C110.885 67.417 127.752 52.2719 127.752 33.5918C127.752 27.6801 126.059 22.1259 123.09 17.2903C114.608 15.9718 102.941 14.5516 91.128 14.3596Z" fill="white"/>
</g>
</g>
<path d="M90.076 14.3558C83.3347 13.9445 71.7152 17.4615 62.0261 20.97C60.5539 24.4443 59.7363 28.2464 59.7363 32.2362C59.7363 48.6034 74.5759 61.8718 90.274 61.8718C105.869 61.8718 119.666 48.5821 120.812 32.2362C121.184 26.9133 119.352 21.8976 116.807 17.5733C106.762 15.8041 96.1022 14.7236 90.076 14.3558Z" fill="white"/>
<path d="M72.7759 30.0873C73.6029 28.2558 74.8557 27.3589 76.0693 25.8235C75.9345 25.46 75.6392 24.2711 75.6392 23.8589C75.6392 22.0189 77.1319 20.5254 78.9727 20.5254C79.4071 20.5254 79.8219 20.6116 80.2017 20.7627C85.7192 16.5578 92.9828 14.7246 100.282 16.3564C100.949 16.5066 101.602 16.6883 102.244 16.8881C95.0302 15.8878 86.8986 18.443 81.3675 22.9073C81.5365 23.3059 82.005 24.4452 82.005 24.9035C82.005 26.7444 80.8136 27.1925 78.9727 27.1925C78.5545 27.1925 78.1551 27.1122 77.7856 26.9714C76.5362 28.6493 75.0051 31.8454 74.2558 33.8433C77.3145 36.5794 80.0779 37.5711 83.6794 38.917C83.6701 38.7455 83.8032 38.5867 83.8032 38.4118C83.8032 32.8618 88.6891 28.3514 94.2399 28.3514C99.2137 28.3514 103.332 31.9683 104.136 36.7134C106.618 35.1346 109.018 33.9244 110.847 31.5843C110.42 31.0637 109.96 29.5898 109.96 28.8643C109.96 27.1942 111.315 25.8398 112.986 25.8398C113.222 25.8398 113.449 25.8739 113.67 25.9251C114.599 24.0168 115.299 21.9942 115.747 19.9084C107.068 13.4828 90.2748 14.3593 90.2748 14.3593C90.2748 14.3593 76.9117 13.6621 67.8652 18.0709C68.4686 22.4328 70.2088 26.5797 72.7759 30.0873Z" fill="#DCE5EA"/>
<path d="M114.26 27.5836C114.874 28.1366 115.209 28.6222 115.472 29.0951C116.284 30.5544 114.656 31.8901 112.985 31.8901C112.816 31.8901 112.652 31.867 112.489 31.8397C110.607 34.7807 107.311 38.552 104.383 40.45C108.873 41.1857 113.107 42.9839 116.476 45.7627C118.93 41.3666 120.811 35.0188 120.811 29.6267C120.811 25.5226 119 22.5142 116.264 20.3072C116.121 22.5057 114.948 25.5806 114.26 27.5836Z" fill="#DCE5EA"/>
<path d="M77.8144 55.427C79.3104 51.2955 82.9905 48.0943 86.4716 45.2779C85.9621 44.5807 85.1983 42.8542 84.88 42.0366C80.6341 40.7453 76.8773 38.3284 73.9637 35.1288C73.9423 35.2219 73.9159 35.3123 73.8937 35.4053C73.3449 37.8641 73.2442 40.328 73.5173 42.7313C75.5502 43.1102 77.0889 44.8913 77.0889 47.0343C77.0889 48.3051 75.9752 50.1468 75.1107 50.9482C76.0503 52.9759 76.6912 53.954 77.8144 55.427Z" fill="#DCE5EA"/>
<path d="M77.5501 58.8954C75.7656 57.1211 74.5315 53.5819 73.3734 51.3595C73.1566 51.3928 72.9347 51.4159 72.7077 51.4159C70.2874 51.4159 67.7518 49.3847 68.3253 47.0343C68.6428 45.7337 69.5406 44.8828 71.0026 44.1727C70.6697 41.4784 70.5793 37.6055 71.2048 34.8045C71.384 34.0032 71.7638 33.6276 72.0156 32.8647C69.3452 28.9568 67.6195 23.8276 67.6195 18.7386C67.6195 18.5525 67.6289 18.369 67.6332 18.1847C63.1202 20.448 59.7363 24.0137 59.7363 29.6267C59.7363 42.0425 66.8873 54.222 77.5271 58.9961C77.5348 58.9628 77.5416 58.9287 77.5501 58.8954Z" fill="#DCE5EA"/>
<path d="M103.714 41.7312C102.339 45.6416 98.6214 48.4503 94.2407 48.4503C91.8972 48.4503 89.7473 47.6421 88.0388 46.2988C84.5166 49.0417 81.3214 53.8602 79.6973 58.0404C80.4261 58.8247 80.9339 59.4699 81.7515 60.1654C84.2154 60.8072 87.6086 60.1654 90.2756 60.1654C101.003 60.1654 110.505 55.393 115.952 47.0242C112.33 44.516 108.058 42.1289 103.714 41.7312Z" fill="#DCE5EA"/>
<path d="M72.5005 31.5382C73.3275 29.7068 74.3644 28.0118 75.5772 26.4765C75.4423 26.1138 75.3638 25.7221 75.3638 25.3099C75.3638 23.4698 76.8565 21.9763 78.6973 21.9763C79.1317 21.9763 79.5465 22.0625 79.9263 22.2136C85.4438 18.0087 92.7074 16.1755 100.007 17.8073C100.673 17.9575 101.327 18.1393 101.969 18.339C94.7548 17.3387 87.3008 19.55 81.7697 24.0152C81.9387 24.4129 82.0309 24.8516 82.0309 25.3099C82.0309 27.1507 80.5382 28.6434 78.6973 28.6434C78.2792 28.6434 77.8797 28.5632 77.5102 28.4223C76.2608 30.1002 75.2392 31.9539 74.4899 33.9526C77.1168 36.7835 80.3411 39.022 83.9417 40.3679C83.9332 40.1964 83.9153 40.0265 83.9153 39.8516C83.9153 34.3017 88.4137 29.8024 93.9645 29.8024C98.9383 29.8024 103.057 33.4192 103.861 38.1643C106.343 36.5855 108.548 34.5577 110.376 32.2176C109.949 31.697 109.685 31.0407 109.685 30.3153C109.685 28.6451 111.04 27.2907 112.71 27.2907C112.947 27.2907 113.174 27.3248 113.395 27.376C114.323 25.4677 115.024 23.4451 115.472 21.3593C106.793 14.9338 89.9994 15.8102 89.9994 15.8102C89.9994 15.8102 76.6363 15.113 67.5898 19.5218C68.1932 23.8838 69.9334 28.0306 72.5005 31.5382Z" fill="#83D2FF"/>
<path d="M114.73 28.0787C115.343 28.6317 115.737 29.4246 115.737 30.3156C115.737 31.9857 114.382 33.341 112.711 33.341C112.542 33.341 112.378 33.3179 112.215 33.2906C110.333 36.2316 107.839 38.739 104.91 40.637C109.239 41.3138 113.313 43.1504 116.682 45.9292C119.135 41.5331 120.537 36.4697 120.537 31.0777C120.537 26.9735 118.726 23.9651 115.99 21.7581C115.847 23.9566 115.417 26.0757 114.73 28.0787Z" fill="#83D2FF"/>
<path d="M78.2761 56.4197C79.7722 52.2882 82.3717 48.5808 85.8529 45.7654C85.3434 45.0672 84.9235 44.3051 84.6052 43.4875C80.3585 42.1963 76.6025 39.7793 73.6888 36.5798C73.6675 36.6728 73.6402 36.7633 73.6189 36.8563C73.0692 39.3151 72.9685 41.7789 73.2425 44.1822C75.2745 44.5612 76.8141 46.3423 76.8141 48.4853C76.8141 49.756 76.2688 50.8988 75.4043 51.7002C76.1886 53.3627 77.153 54.9466 78.2761 56.4197Z" fill="#83D2FF"/>
<path d="M77.5385 58.8449C75.7539 57.0706 74.2561 55.0325 73.0989 52.811C72.8812 52.8443 72.6594 52.8665 72.4332 52.8665C70.0128 52.8665 68.0508 50.9045 68.0508 48.485C68.0508 46.7508 69.0613 45.2556 70.5232 44.5455C70.1912 41.852 70.3039 39.0562 70.9303 36.2552C71.1095 35.4547 71.328 34.6729 71.5798 33.9091C68.9093 30.0021 67.345 25.2783 67.345 20.1892C67.345 20.0032 67.3535 19.8197 67.3578 19.6362C62.8448 21.8987 59.4609 25.4652 59.4609 31.0774C59.4609 43.4941 66.8756 54.1714 77.5154 58.9456C77.5231 58.9123 77.5299 58.8781 77.5385 58.8449Z" fill="#83D2FF"/>
<path d="M103.438 43.1822C102.063 47.0926 98.3455 49.9013 93.9648 49.9013C91.6212 49.9013 89.4714 49.0931 87.7628 47.7498C84.2407 50.4927 81.5822 54.2317 79.959 58.4126C80.687 59.197 81.4653 59.936 82.2829 60.6307C84.7476 61.2725 87.3327 61.6165 89.9997 61.6165C100.727 61.6165 110.159 56.0776 115.606 47.7097C111.984 45.2006 107.782 43.5799 103.438 43.1822Z" fill="#83D2FF"/>
<path d="M103.792 40.591L113.076 38.3764L103.757 37.901L111.341 32.1044L102.735 35.1896L108.584 27.0845L100.506 32.4535L103.33 22.9658L97.7826 30.7859L97.6563 20.9039L94.0062 29.7063L90.9628 20.799L91.1275 31.292L85.8678 21.8862L88.714 31.8732L80.1822 25.6687L86.8655 34.0665L76.2734 30.1714L84.6329 36.3563L73.9137 36.6857L84.8735 39.514L73.9043 41.8857L84.7319 42.6709L75.6009 48.5178L85.0033 45.1091L78.4796 53.3713L86.7229 46.723L83.7547 57.81L90.1188 48.7875L89.2269 59.4435L92.8395 49.7834L95.9145 59.9368L96.6621 49.7527L101.226 58.4415L98.5294 48.5033L106.887 54.9774L101.492 46.723L110.661 50.2955L103.65 43.4057L113.052 44.1447L103.792 40.591Z" fill="white"/>
<g opacity="0.350006">
<g opacity="0.350006">
<path opacity="0.350006" d="M4.94727 58.3569C33.7423 29.5628 56.7399 20.6734 77.6115 16.6153C80.3733 16.0785 80.8956 10.0438 80.8956 10.0438C80.8956 10.0438 81.2822 14.4885 83.2152 15.068C85.1474 15.6483 87.6591 8.11077 87.6591 8.11077C87.6591 8.11077 85.3403 14.8751 87.6591 15.2617C89.9787 15.6483 94.2297 8.69111 94.2297 8.69111C94.2297 8.69111 92.4912 14.6814 93.651 15.068C94.8092 15.4546 100.607 6.37232 100.607 6.37232C100.607 6.37232 97.128 12.3626 100.414 12.9429C103.7 13.5224 108.493 8.85412 108.493 8.85412C108.493 8.85412 104.724 13.1256 106.404 13.7153C113.555 16.2287 119.341 6.93474 119.341 6.93474C119.341 6.93474 118 11.0099 114.522 15.4546C122.058 17.3868 127.655 6.03351 127.655 6.03351L122.058 17.3868C124.957 18.9341 136.553 5.59911 136.553 5.59911C136.553 5.59911 130.562 16.0349 127.084 18.16C129.016 19.7064 135.973 13.5224 135.973 13.5224C135.973 13.5224 130.369 20.4788 132.494 20.8654C135.586 23.3779 146.988 7.9179 146.988 7.9179C146.988 7.9179 142.544 17.0002 135.973 24.1511C141.465 26.8984 155.105 9.2706 155.105 9.2706C155.105 9.2706 154.719 14.8751 144.862 23.7645C152.206 22.7984 161.676 8.88399 161.676 8.88399C161.676 8.88399 158.197 19.3198 149.887 26.6628C157.097 25.9126 168.632 8.11077 168.632 8.11077C168.632 8.11077 164.188 20.4788 155.105 27.6298C165.155 29.8521 179.649 14.8751 179.649 14.8751C179.649 14.8751 173.948 25.5047 166.507 29.8521C174.817 33.0405 186.219 19.8993 186.219 19.8993C186.219 19.8993 174.817 37.4861 156.652 36.7129C150.691 36.4594 132.663 18.6302 94.0368 20.093C43.0183 22.0261 32.1967 43.6701 4.94727 58.3569Z" fill="#DCE5EA"/>
</g>
</g>
<path d="M6.12695 56.1699C34.922 27.3758 57.9187 18.4872 78.7904 14.4283C81.553 13.8915 82.0753 7.85765 82.0753 7.85765C82.0753 7.85765 82.461 12.3032 84.3949 12.8818C86.3271 13.4613 88.8388 5.92546 88.8388 5.92546C88.8388 5.92546 86.52 12.6898 88.8388 13.0756C91.1584 13.4613 95.4094 6.50495 95.4094 6.50495C95.4094 6.50495 93.6709 12.4952 94.829 12.8818C95.9889 13.2684 101.786 4.18531 101.786 4.18531C101.786 4.18531 98.3077 10.1764 101.593 10.7559C104.878 11.3363 109.673 6.66796 109.673 6.66796C109.673 6.66796 105.904 10.9394 107.584 11.5291C114.735 14.0417 120.519 4.74858 120.519 4.74858C120.519 4.74858 119.178 8.82374 115.702 13.2684C123.237 15.2015 128.835 3.84649 128.835 3.84649L123.237 15.2015C126.137 16.7471 137.731 3.4138 137.731 3.4138C137.731 3.4138 131.742 13.8479 128.263 15.9738C130.196 17.5203 137.153 11.3363 137.153 11.3363C137.153 11.3363 131.548 18.2935 133.674 18.6792C136.766 21.1926 148.167 5.73174 148.167 5.73174C148.167 5.73174 143.722 14.8149 137.153 21.965C142.645 24.7131 156.285 7.08443 156.285 7.08443C156.285 7.08443 155.899 12.6898 146.042 21.5792C153.386 20.6123 162.856 6.69783 162.856 6.69783C162.856 6.69783 159.377 17.1337 151.066 24.4775C158.277 23.7273 169.811 5.92546 169.811 5.92546C169.811 5.92546 165.367 18.2935 156.285 25.4436C166.334 27.6659 180.828 12.6898 180.828 12.6898C180.828 12.6898 175.127 23.3177 167.686 27.6659C175.997 30.8544 187.399 17.7132 187.399 17.7132C187.399 17.7132 175.997 35.2999 157.83 34.5267C151.871 34.2724 133.842 16.4432 95.2157 17.9069C44.198 19.8391 33.3755 41.4831 6.12695 56.1699Z" fill="#DCE5EA"/>
<g opacity="0.350006">
<g opacity="0.350006">
<path opacity="0.350006" d="M4.19336 61.5061C19.4119 69.1401 33.3272 60.3471 50.8645 65.2894C64.1977 69.0479 80.4318 73.6812 102.462 70.4919C124.492 67.3044 143.335 57.7382 152.323 40.6344C155.125 33.0021 166.526 42.3746 166.526 42.3746C166.526 42.3746 158.217 38.896 158.41 40.5388C158.603 42.1809 170.875 47.8818 170.875 47.8818C170.875 47.8818 159.762 44.4032 160.439 47.0122C161.116 49.6211 174.352 60.057 174.352 60.057C174.352 60.057 159.376 48.655 158.12 50.2006C156.863 51.747 164.497 58.0283 164.497 58.0283C164.497 58.0283 151.839 50.2006 147.393 52.5092C144.196 54.1674 160.536 64.8891 160.536 64.8891C160.536 64.8891 149.906 56.7712 147.393 58.8971C144.882 61.0239 159.376 78.4161 159.376 78.4161C159.376 78.4161 142.948 60.6364 141.307 61.5061C139.663 62.3758 145.847 70.8794 145.847 70.8794C145.847 70.8794 137.731 61.9891 135.509 63.5356C133.287 65.082 147.104 88.1752 147.104 88.1752C147.104 88.1752 132.127 64.5025 125.943 68.4625C135.654 89.7694 132.031 92.8136 132.031 92.8136C132.031 92.8136 130.792 71.0766 118.696 71.6518C112.608 71.9419 121.594 87.885 121.594 87.885C121.594 87.885 113.323 73.3237 107.815 73.6138C117.967 92.8256 114.348 100.64 114.348 100.64C114.348 100.64 116.027 84.2314 102.259 75.1005C107.476 79.7372 98.9847 100.64 98.9847 100.64C98.9847 100.64 106.454 69.8382 93.4758 75.7107C91.425 76.6367 93.3307 91.0743 93.3307 91.0743C93.3307 91.0743 90.7217 74.55 86.8096 75.4206C84.5283 75.9266 72.3148 98.3209 72.3148 98.3209C72.3148 98.3209 82.3162 74.1156 79.2729 75.1304C77.0556 75.8703 72.8951 85.8564 72.8951 85.8564C72.8951 85.8564 74.9237 76 72.8951 75.4206C70.8665 74.8402 59.5602 85.8564 59.5602 85.8564C59.5602 85.8564 67.9674 76 66.5174 73.9706C64.3206 70.8956 61.7458 70.7514 58.6905 71.9419C54.2449 73.6744 48.2555 81.7974 48.2555 81.7974C48.2555 81.7974 54.2262 73.5729 53.1824 70.4919C51.5071 65.542 34.3411 80.0581 34.3411 80.0581C34.3411 80.0581 44.4867 70.492 42.1679 68.4625C39.8491 66.4339 27.2575 67.0611 23.3257 67.05C11.7309 67.0142 7.71294 64.2943 4.19336 61.5061Z" fill="#DCE5EA"/>
</g>
</g>
<path d="M3.61328 59.7666C18.8318 67.4006 32.7462 58.6076 50.2835 63.5507C63.6168 67.3076 79.8517 71.9417 101.882 68.7524C123.913 65.564 142.754 55.9978 151.742 38.8958C154.544 31.2626 165.945 40.6342 165.945 40.6342C165.945 40.6342 157.636 37.1565 157.83 38.7993C158.022 40.4413 170.294 46.1423 170.294 46.1423C170.294 46.1423 159.181 42.6646 159.858 45.2735C160.535 47.8816 173.773 58.3175 173.773 58.3175C173.773 58.3175 158.795 46.9147 157.539 48.462C156.284 50.0075 163.917 56.288 163.917 56.288C163.917 56.288 151.258 48.462 146.813 50.7688C143.616 52.4279 159.955 63.1488 159.955 63.1488C159.955 63.1488 149.325 55.0317 146.813 57.1576C144.301 59.2844 158.796 76.6766 158.796 76.6766C158.796 76.6766 142.368 58.8969 140.726 59.7666C139.084 60.6371 145.268 69.1391 145.268 69.1391C145.268 69.1391 137.15 60.2496 134.928 61.7961C132.706 63.3416 146.523 86.4357 146.523 86.4357C146.523 86.4357 131.546 62.7622 125.362 66.7238C135.073 88.0299 131.45 91.0741 131.45 91.0741C131.45 91.0741 130.211 69.3371 118.115 69.9131C112.027 70.2033 121.013 86.1455 121.013 86.1455C121.013 86.1455 112.742 71.5833 107.235 71.8735C117.388 91.0861 113.767 98.9001 113.767 98.9001C113.767 98.9001 115.446 82.4911 101.678 73.3602C106.895 77.9977 98.4038 98.9001 98.4038 98.9001C98.4038 98.9001 105.875 68.0987 92.8965 73.9712C90.8457 74.8981 92.7515 89.3348 92.7515 89.3348C92.7515 89.3348 90.1408 72.8114 86.2295 73.6811C83.9474 74.1871 71.7338 96.5814 71.7338 96.5814C71.7338 96.5814 81.7353 72.3761 78.6919 73.3917C76.4747 74.13 72.3142 84.116 72.3142 84.116C72.3142 84.116 74.3437 74.2605 72.3142 73.6811C70.2856 73.1016 58.9801 84.116 58.9801 84.116C58.9801 84.116 67.3873 74.2605 65.9364 72.2311C63.7397 69.1561 61.1649 69.0127 58.1104 70.2033C53.664 71.9349 47.6746 80.0579 47.6746 80.0579C47.6746 80.0579 53.6452 71.8325 52.6023 68.7524C50.9262 63.8034 33.761 78.3186 33.761 78.3186C33.761 78.3186 43.9066 68.7524 41.587 66.7238C39.2682 64.6943 26.6766 65.3225 22.7448 65.3105C11.15 65.2738 7.13286 62.5548 3.61328 59.7666Z" fill="#DCE5EA"/>
</svg>
