<svg width="128" height="128" viewBox="0 0 128 128" fill="none" xmlns="http://www.w3.org/2000/svg">
<path d="M62.7882 127.922C52.1791 127.468 44.803 126.058 38.9163 123.356C38.057 122.962 38.1859 123.226 37.2592 119.964C35.6452 114.283 34.4184 109.136 33.1042 102.531C32.4379 99.1824 32.1259 97.7827 30.5874 91.2396C27.8266 79.4987 26.7781 74.1002 26.1748 68.5208C26.022 67.1078 26.297 65.1757 26.7292 64.6262C26.9851 64.301 26.9903 63.4706 26.7369 63.4044C26.5891 63.3657 26.5524 63.2409 26.4983 62.5918C26.4534 62.0529 26.3835 61.7602 26.2632 61.6072C26.1472 61.4597 26.092 61.242 26.092 60.9313C26.092 60.6792 26.051 60.4476 26.001 60.4167C25.9463 60.3829 25.9099 59.7649 25.9099 58.8687C25.9099 57.9724 25.8736 57.3545 25.8189 57.3207C25.7688 57.2898 25.7278 57.3464 25.7278 57.4466C25.7278 58.569 24.9212 56.5247 24.451 54.2107C23.2443 48.2721 21.2639 42.371 21.7195 46.0715C21.8798 47.3733 22.1751 48.6533 23.0231 51.7207C24.0192 55.3242 24.4731 57.8757 24.2705 58.7339C23.9809 59.9603 22.1101 52.5952 21.0319 45.9841C20.7583 44.3063 20.3474 41.7863 20.1189 40.384C19.6082 37.2507 19.1332 34.8976 18.4842 32.2862C17.8346 29.6724 17.8529 29.2484 18.6602 28.2203C20.3243 26.101 25.2075 24.4535 25.7354 25.8332C26.0972 26.7788 25.0309 27.4339 22.131 28.0474C19.6177 28.5792 19.3853 28.9594 20.7496 30.3068C22.1137 31.6539 30.0255 32.8579 39.3864 33.1429C55.9657 33.6477 66.4764 33.7806 69.4354 33.5229C70.1616 33.4596 71.194 33.384 71.7298 33.3548C72.7038 33.3017 72.7038 33.3017 72.6595 33.064C72.626 32.8839 72.7036 32.7158 72.9794 32.371C73.1796 32.1206 73.4786 31.7313 73.6437 31.5059C74.2054 30.7393 75.1487 30.4471 75.5399 30.9185C76.0294 31.5083 75.5971 32.8733 74.7885 33.2915C74.415 33.4846 74.5222 33.5441 75.3842 33.6218C75.7933 33.6588 76.3628 33.7137 76.6496 33.744C77.5174 33.8355 78.179 33.522 77.8144 33.1921C77.0113 32.4653 78.5226 30.9992 80.8631 30.2347C81.2137 30.1202 81.5394 29.9906 81.587 29.9467C81.6346 29.9028 81.7384 29.8669 81.8177 29.8669C82.1163 29.8669 82.9706 29.2047 83.9204 28.2372C84.4609 27.6866 85.068 27.132 85.2695 27.0048C85.4709 26.8777 85.68 26.691 85.7339 26.5901C85.8977 26.2841 85.5786 26.3666 84.8696 26.8135C84.519 27.0345 84.0273 27.3405 83.7769 27.4935C83.257 27.8112 82.1001 28.5783 80.9873 29.3432C80.5684 29.6311 80.1232 29.936 79.998 30.0208C79.8728 30.1057 79.696 30.2374 79.6051 30.3136C79.4037 30.4825 78.4693 30.523 77.9492 30.3855C76.5989 30.0283 76.5019 28.8429 77.6544 26.7841C78.159 25.8828 79.5494 24.0392 79.7247 24.0392C79.7683 24.0392 79.9193 23.8681 80.0603 23.659C80.3156 23.2805 80.4772 23.1583 81.2897 22.7297C81.874 22.4215 82.2154 22.388 82.3082 22.6298C82.3633 22.7734 81.9538 23.6746 81.4924 24.4249C80.5255 25.9978 80.4411 26.1578 80.5315 26.2481C80.6605 26.3771 81.645 25.7864 81.7909 25.4925C81.852 25.3693 82.0156 25.0237 82.1544 24.7246C83.0935 22.7007 85.3413 22.5014 86.7239 24.3194C87.0893 24.7999 87.1911 24.8544 87.1931 24.5704C87.1993 23.6817 88.4367 22.9526 89.9461 22.9481C90.5717 22.9462 90.6128 22.8438 90.071 22.6369C89.3304 22.3541 89.288 22.2126 89.7762 21.6545C90.453 20.8807 90.1319 20.7304 88.846 21.2189C87.6054 21.6903 86.3995 21.9456 85.5748 21.9112C85.1368 21.893 84.6802 21.9149 84.5599 21.96C84.4396 22.0051 84.1185 22.0609 83.8462 22.084C83.5739 22.1072 83.318 22.1466 83.2775 22.1717C83.237 22.1967 83.005 22.19 82.762 22.1568C81.4105 21.9723 81.536 20.8006 83.2283 17.8018C83.4544 17.4011 83.7665 16.807 83.9217 16.4814C84.0769 16.1559 84.7079 14.8652 85.3238 13.6131C85.9398 12.3611 86.6129 10.9679 86.8197 10.5172C87.0265 10.0664 87.2973 9.503 87.4213 9.26509C87.5454 9.02717 87.6469 8.79136 87.6469 8.74106C87.6469 8.69076 87.7518 8.43468 87.88 8.172C88.7079 6.47643 90.028 2.29096 89.8671 1.87182C89.8345 1.78678 89.8618 1.73013 89.9355 1.73013C90.0031 1.73013 90.2635 1.59353 90.5144 1.42658C90.7652 1.25963 91.0821 1.05451 91.2185 0.970756C91.422 0.845835 91.4573 0.772186 91.415 0.560752C91.1801 -0.613664 93.3488 0.137028 96.0472 2.16419C100.016 5.14612 103.54 10.185 106.484 17.0898C109.101 23.2264 109.788 33.6338 108.091 41.4312C106.902 46.8977 106.092 55.2871 105.222 71.1614C104.668 81.2684 104.351 85.8293 103.894 90.2835C103.771 91.4855 103.61 93.2884 103.536 94.29C103.165 99.319 102.606 103.988 101.656 109.997C101.331 112.052 101.286 112.535 101.261 114.186C101.167 120.413 98.8848 123.949 94.5563 124.572C94.1366 124.633 93.2606 124.839 92.6095 125.03C87.3322 126.579 81.7021 127.401 73.9882 127.747C67.7326 128.028 65.9234 128.057 62.7882 127.922V127.922ZM41.2982 118.504C40.1748 113.924 39.5177 111.749 38.7275 109.997C37.8816 108.122 37.6894 107.874 37.7939 108.791C38.2741 113.007 39.4315 116.918 41.3153 120.688C42.3086 122.676 42.3082 122.623 41.2982 118.504V118.504ZM39.329 121.539C39.6569 120.316 39.1325 117.742 37.6058 113.082C36.735 110.424 36.0932 108.112 35.9724 107.198C35.8931 106.598 35.8108 106.548 35.4699 106.888C34.9232 107.435 35.0885 108.567 36.3199 112.705C36.6512 113.819 36.9692 115.089 37.0265 115.528C37.3634 118.107 39.061 122.539 39.329 121.539ZM70.2046 107.978C71.8661 106.878 71.6481 103.67 69.8423 102.647C68.2166 101.727 67.3436 103.733 68.0338 106.804C68.3434 108.181 69.1995 108.644 70.2046 107.978ZM65.3069 107.736C66.5459 107.101 66.9574 104.981 66.1811 103.233C65.4157 101.509 63.8804 102.383 63.6037 104.699C63.5637 105.034 63.4692 105.701 63.3937 106.182C63.1233 107.906 63.8401 108.488 65.3069 107.736ZM35.1578 104.567C35.3564 102.977 34.9445 100.68 33.6117 95.946C33.2337 94.6032 32.7978 92.8617 32.6431 92.0761C32.1372 89.5074 31.3713 88.2557 31.7412 90.6022C31.9208 91.7412 32.9344 96.939 33.1529 97.8413C33.2742 98.3421 33.4791 99.6054 33.6083 100.649C33.9299 103.246 34.212 104.276 34.7668 104.875C35.0418 105.173 35.0865 105.137 35.1578 104.567ZM56.2318 95.7804C63.1681 94.191 65.4047 85.5171 59.93 81.4383C56.4 78.8084 54.1893 78.6173 48.6743 80.4653C47.5474 80.8429 46.533 81.21 46.42 81.2811C46.0181 81.534 45.3963 82.4307 45.3963 82.7576C45.3962 82.9253 45.2353 83.4615 45.0387 83.9492C42.4335 90.4111 49.0665 97.4223 56.2318 95.7804ZM47.445 90.8164C44.7164 90.409 44.1284 88.0857 46.2169 85.9645C47.734 84.4236 49.5006 84.2902 50.7975 85.6186C53.3638 88.2471 51.3322 91.397 47.445 90.8164ZM82.0407 94.5033C86.8052 93.703 89.7926 88.2255 87.8279 83.8925C83.2274 73.7464 66.7054 78.6204 70.3288 89.0546C71.878 93.5158 76.1336 95.4956 82.0407 94.5033V94.5033ZM72.759 90.2925C70.6352 89.7696 69.9463 87.8288 71.0843 85.5744C72.5071 82.7558 75.5515 82.7891 77.0534 85.6396C77.9605 87.3612 77.7548 87.9349 76.2838 87.7866C74.9608 87.6533 74.5267 87.8424 75.1734 88.2704C75.6447 88.5823 76.2475 89.1251 76.3637 89.3423C76.727 90.0212 74.2784 90.6666 72.759 90.2925V90.2925ZM50.3696 52.6464C50.7257 52.5947 50.9783 52.4722 51.4406 52.127C51.7734 51.8785 52.3012 51.4876 52.6136 51.2583C55.4301 49.1913 56.3361 48.4669 57.3703 47.4551C57.7208 47.1121 58.7452 46.188 59.6467 45.4016C60.5482 44.6151 61.454 43.8201 61.6596 43.6348C61.8652 43.4495 62.234 43.1204 62.4791 42.9034C63.2481 42.2227 64.6098 40.9781 65.6565 39.999C66.8851 38.8498 69.541 36.1636 69.5225 36.0888C69.4784 35.9101 68.6951 35.7606 67.7508 35.7506C66.7705 35.7403 66.7493 35.7357 66.7566 35.5331C66.7665 35.2584 66.778 35.2599 64.1085 35.1982C42.7538 34.7051 28.4447 33.9688 20.711 32.9649C19.8103 32.848 19.718 32.8509 19.718 32.9956C19.718 33.2488 20.4553 33.9491 21.038 34.2495C21.7713 34.6275 21.7824 34.7931 21.0828 34.9206C20.3328 35.0572 20.3554 34.9686 20.6499 36.6165C21.8311 43.2269 23.5678 44.7233 27.234 42.2898C29.3425 40.8902 42.8535 39.4406 51.7702 39.6573C53.3007 39.6945 54.356 39.6786 54.8662 39.6107C55.2919 39.554 55.8737 39.4861 56.1591 39.4599C56.4445 39.4337 56.7261 39.3543 56.7849 39.2835C56.8437 39.2127 57.048 39.1547 57.2389 39.1547C57.4298 39.1547 57.7014 39.1074 57.8424 39.0495C58.8076 38.653 66.1573 38.5007 66.1573 38.8772C66.1573 38.9433 65.7791 39.3038 64.9019 40.0739C64.6968 40.2539 63.6354 41.073 62.5432 41.8941C60.8869 43.1393 59.7807 43.9989 59.2825 44.4278C59.2324 44.4709 58.6847 45.0454 58.0655 45.7045C55.5187 48.4149 52.8591 50.2802 50.5734 50.959C50.2537 51.0539 50.1242 51.1471 50.0512 51.3347C49.9281 51.6507 49.5308 52.3575 49.4064 52.4819C49.1991 52.6892 49.3005 52.8363 49.6076 52.7741C49.7704 52.7411 50.1133 52.6837 50.3696 52.6464V52.6464ZM54.7296 51.8117C54.7639 51.7563 55.4543 51.7207 56.4964 51.7207C58.5148 51.7207 60.1475 51.6331 60.1475 51.5247C60.1475 51.4823 60.089 51.4475 60.0174 51.4475C59.6296 51.4475 59.5085 50.9947 59.7532 50.4596C60.0568 49.7958 60.3401 49.4766 63.4421 46.3028C64.6657 45.0507 65.8326 43.8214 66.035 43.571C67.7864 41.4047 69.1987 39.343 69.0401 39.1844C68.9717 39.116 67.6275 40.3739 67.4221 40.6986C67.3414 40.8261 66.9521 41.2501 66.557 41.6409C65.7824 42.4071 65.7374 42.4571 64.2852 44.1629C63.7523 44.7889 63.2001 45.4241 63.0582 45.5743C62.9163 45.7245 62.5978 46.0728 62.3504 46.3483C61.5363 47.2546 60.0418 48.7018 59.3735 49.2309C57.8724 50.4193 55.5535 51.5907 54.8207 51.5307C54.5734 51.5104 54.0467 51.6371 54.0467 51.7169C54.0467 51.9089 54.6203 51.9886 54.7296 51.8117V51.8117ZM75.6156 51.4534C75.7316 51.2789 75.8294 51.2653 76.9815 51.264C78.6725 51.2622 79.5774 50.9103 78.9494 50.4988C78.8214 50.4149 78.7229 50.2626 78.7223 50.1478C78.7193 49.4422 78.1979 48.8596 77.9095 49.2394C77.0705 50.3438 76.914 50.5071 76.4912 50.719C73.7453 52.0955 72.1145 48.9305 73.4874 44.8893C74.6714 41.4039 74.7662 41.0886 75.0461 39.7011C75.1816 39.029 75.056 37.7077 74.8533 37.6734C74.4256 37.6011 72.4501 43.8559 71.6245 47.8963C71.269 49.6361 71.2616 49.6543 70.7819 49.958C69.0975 51.0248 68.4216 50.5319 68.9539 48.6247C69.1205 48.0278 69.6542 46.5493 69.8986 46.0078C69.9944 45.7955 70.0728 45.5986 70.0728 45.5703C70.0728 45.542 70.157 45.3264 70.2599 45.0913C71.4582 42.3528 71.7402 41.3549 71.3476 41.2418C70.2155 40.9155 68.6598 41.7851 67.9805 43.1238C67.9065 43.2696 67.7536 43.5406 67.6407 43.7259C67.3837 44.1479 66.9363 44.9771 66.1766 46.4393C65.1412 48.4322 64.9131 48.8121 64.2151 49.7057C63.4753 50.6529 62.7057 51.1162 61.4678 51.3596C60.583 51.5335 60.5976 51.5784 61.5589 51.6407C64.0559 51.8025 75.4849 51.6502 75.6156 51.4534V51.4534ZM65.3565 50.9879C64.9666 50.8314 64.7666 50.0171 64.9839 49.4713C65.4133 48.3929 65.9903 47.4954 67.9867 44.8003C68.4133 44.2244 68.9178 43.5175 69.1077 43.2296C70.1206 41.694 70.2721 44.408 69.2997 46.667C68.2608 49.0805 66.5546 51.1411 65.6477 51.0775C65.6025 51.0743 65.4714 51.034 65.3565 50.9879ZM89.5399 50.6208C90.047 50.5645 90.4854 50.4674 90.5679 50.3932C90.6672 50.3038 90.94 50.2638 91.4503 50.2638C91.8566 50.2638 92.2143 50.2228 92.2453 50.1727C92.2762 50.1226 92.3763 50.0816 92.4677 50.0816C92.6197 50.0816 92.7976 49.7386 92.6975 49.6385C92.6748 49.6157 92.4408 49.6452 92.1775 49.7039C91.712 49.8078 91.3125 49.8694 90.4696 49.9672C89.3511 50.097 86.233 50.0099 85.3745 49.8249C85.0731 49.76 85.0557 49.7338 84.9595 49.2016C84.7858 48.2414 84.2771 47.7903 83.6256 48.0188C82.9813 48.2447 82.945 48.3632 83.457 48.5681C83.8287 48.7168 84.1867 49.0111 84.1867 49.1679C84.1867 49.3346 83.6211 49.8995 83.4542 49.8995C83.3621 49.8995 83.264 49.9365 83.2361 49.9817C83.1745 50.0814 82.1039 50.4132 81.5688 50.4985C80.5629 50.6589 81.4773 50.719 84.9187 50.719C86.9845 50.719 89.0511 50.6751 89.5399 50.6208V50.6208ZM95.4575 45.6692C95.9482 45.5858 96.4794 45.1152 96.4794 44.7639C96.4794 44.5012 96.2722 44.3623 96.0913 44.5038C95.9787 44.5919 95.2805 44.7759 95.0225 44.7855C94.9474 44.7883 94.7131 44.8185 94.5018 44.8526C93.105 45.0781 89.2198 43.8466 87.4028 42.6024C87.1935 42.459 86.9984 42.3418 86.9694 42.3418C86.8844 42.3418 85.9852 41.7028 85.7119 41.4482C84.77 40.571 86.5309 40.4862 88.8306 41.298C90.2847 41.8113 90.4759 41.8854 90.8665 42.0871C91.4689 42.3982 91.5391 42.4286 92.1815 42.6558C93.6608 43.179 93.7836 43.054 92.6095 42.2199C90.8609 40.9778 89.0006 40.2082 88.3029 40.4384C87.5467 40.688 85.819 40.2374 84.1868 39.3648C81.2633 37.8019 80.1574 37.5185 81.1545 38.5877C82.4908 40.0205 84.2237 41.619 85.3162 42.4267C85.9954 42.9288 86.922 43.5619 87.1005 43.6458C87.1756 43.6811 87.4215 43.8171 87.6469 43.9481C88.1722 44.2533 89.911 45.0346 90.3557 45.1652C91.2249 45.4205 91.6592 45.5231 92.116 45.581C92.3874 45.6154 92.6597 45.6701 92.721 45.7024C92.8674 45.7795 94.9576 45.7541 95.4575 45.6692V45.6692ZM84.733 32.2639C84.9584 32.2448 85.3272 32.2105 85.5525 32.1877C85.9907 32.1435 87.3427 31.87 88.2387 31.6445C88.5392 31.5688 89.83 31.3641 91.1071 31.1895C95.8285 30.544 97.2255 30.0176 98.3987 28.4422C98.9125 27.7522 98.9147 27.6637 98.4404 26.7444C97.4913 24.9049 98.4876 24.3381 100.714 25.4514C101.494 25.8416 101.488 25.8416 101.488 25.456C101.488 25.1061 101.418 25.0402 100.948 24.9438C98.3897 24.4189 97.2076 22.4844 98.5511 21.0206C98.7925 20.7576 98.7727 20.4684 98.4289 19.2359C98.2775 18.6932 98.1898 18.662 97.7492 18.9945C97.5767 19.1246 97.2581 19.309 97.0413 19.4041C96.647 19.5772 96.647 19.5772 97.0502 19.9805C98.3359 21.2662 96.7101 22.8575 93.9298 23.0347C92.1086 23.1508 91.9511 23.2069 92.775 23.4464C94.1672 23.8512 94.3754 24.7175 93.2158 25.2812C92.1359 25.8062 92.184 25.8464 93.5266 25.5401C95.6799 25.049 97.336 25.1206 97.5445 25.7139C98.1189 27.3483 97.0002 29.0226 94.7493 29.8976C94.2109 30.1069 93.8887 30.2049 92.7916 30.4928C92.2369 30.6383 90.636 30.8831 90.5833 30.8304C90.5577 30.8048 90.4686 30.8203 90.3853 30.8649C90.302 30.9095 89.9079 30.9729 89.5095 31.0059C87.178 31.1987 85.9482 31.3611 83.3467 31.8198C81.9066 32.0737 81.7281 32.1201 81.7281 32.241C81.7281 32.3293 83.5152 32.4087 84.0046 32.3421C84.1799 32.3182 84.5077 32.2831 84.733 32.2639V32.2639ZM92.5041 19.3221C92.8626 19.0819 93.6274 18.5735 94.2038 18.1923C96.0243 16.9881 97.2637 15.6906 97.5219 14.7184C97.5903 14.4611 97.673 14.1838 97.7057 14.1023C97.8059 13.8526 97.4707 12.9501 97.3511 13.1473C96.801 14.0543 96.3871 14.5733 95.5711 15.3794C94.2169 16.7171 93.7235 17.1806 93.5591 17.2693C93.2882 17.4154 91.8205 19.077 91.6915 19.3836C91.4372 19.988 91.5195 19.9818 92.5041 19.3221V19.3221ZM27.5489 26.0556C27.5489 25.9626 27.6862 25.7065 27.8539 25.4865C28.2751 24.934 28.4595 24.5517 28.4595 24.2312C28.4595 23.8753 28.3381 23.921 30.5189 23.455C35.3982 22.4124 37.4881 22.1444 41.2234 22.0824C60.926 21.7552 66.7091 21.5745 72.9712 21.0899C74.5647 20.9666 74.5618 20.9658 74.9994 21.6558C75.9452 23.1472 73.2672 24.1274 69.1167 23.8092C68.716 23.7785 66.8106 23.7415 64.8825 23.727C61.3768 23.7006 61.3768 23.7006 59.4731 23.3173C56.6941 22.7576 55.8803 22.7901 55.0803 23.4926C54.705 23.822 54.825 23.8209 53.9256 23.5038C51.6517 22.7023 48.8386 22.6532 44.3035 23.3359C42.776 23.5659 40.9936 23.7992 40.3425 23.8544C36.9598 24.1412 33.7875 24.7274 29.718 25.8177C28.0262 26.271 27.5489 26.3233 27.5489 26.0556Z" fill="#326D8E"/>
<path d="M62.7882 127.922C52.1791 127.468 44.803 126.058 38.9163 123.356C38.057 122.962 38.1859 123.226 37.2592 119.964C35.6452 114.283 34.4184 109.136 33.1042 102.531C32.4379 99.1824 32.1259 97.7826 30.5874 91.2395C27.8266 79.4986 26.7781 74.1001 26.1748 68.5207C26.022 67.1077 26.297 65.1756 26.7292 64.6262C26.9851 64.3009 26.9903 63.4706 26.7369 63.4043C26.5891 63.3656 26.5524 63.2408 26.4983 62.5917C26.4534 62.0529 26.3835 61.7601 26.2632 61.6072C26.1472 61.4596 26.092 61.2419 26.092 60.9312C26.092 60.6791 26.051 60.4476 26.001 60.4166C25.9463 60.3828 25.9099 59.7649 25.9099 58.8686C25.9099 57.9724 25.8736 57.3545 25.8189 57.3206C25.7688 57.2897 25.7278 57.3463 25.7278 57.4465C25.7278 58.5689 24.9212 56.5247 24.451 54.2106C23.2443 48.2721 21.2639 42.3709 21.7195 46.0714C21.8798 47.3733 22.1751 48.6532 23.0231 51.7206C24.0192 55.3241 24.4731 57.8756 24.2705 58.7338C23.9809 59.9603 22.1101 52.5951 21.0319 45.984C20.7583 44.3063 20.3474 41.7862 20.1189 40.384C19.6082 37.2506 19.1332 34.8976 18.4842 32.2862C17.8346 29.6723 17.8529 29.2483 18.6602 28.2202C20.3243 26.101 25.2075 24.4534 25.7354 25.8331C26.0972 26.7788 25.0309 27.4338 22.131 28.0474C19.6177 28.5792 19.3853 28.9594 20.7496 30.3068C22.1137 31.6539 30.0255 32.8579 39.3864 33.1429C55.9657 33.6476 66.4764 33.7805 69.4354 33.5228C70.1616 33.4596 71.194 33.3839 71.7298 33.3548C72.7038 33.3017 72.7038 33.3017 72.6595 33.0639C72.626 32.8839 72.7036 32.7157 72.9794 32.3709C73.1796 32.1205 73.4786 31.7312 73.6437 31.5059C74.2404 30.6915 75.1963 30.4368 75.5832 30.9892C75.8393 31.3548 75.7208 31.4593 75.4385 31.1168C74.9904 30.5732 74.3114 30.791 73.6695 31.6843C73.5193 31.8934 73.2632 32.2295 73.1004 32.4312C72.4667 33.2165 73.0422 33.7728 74.1563 33.4519C74.9437 33.2251 75.6273 32.4193 75.6273 31.7182C75.6273 31.5517 75.6575 31.4997 75.7187 31.5609C75.9781 31.8203 75.3408 33.0058 74.7885 33.2915C74.415 33.4846 74.5222 33.544 75.3842 33.6218C75.7933 33.6587 76.3628 33.7137 76.6496 33.7439C77.5174 33.8354 78.179 33.522 77.8144 33.192C77.0113 32.4652 78.5226 30.9991 80.8631 30.2346C81.2137 30.1201 81.5394 29.9905 81.587 29.9466C81.6346 29.9027 81.7384 29.8668 81.8177 29.8668C82.116 29.8668 82.9702 29.2051 83.9174 28.2402C84.8844 27.2551 85.3297 26.8819 85.4248 26.977C85.4515 27.0038 85.3171 27.141 85.126 27.2819C83.7128 28.324 83.6541 28.7251 85.0184 28.0161C87.0011 26.9858 87.8281 26.774 87.1858 27.4611C86.3611 28.3433 83.6366 29.6446 83.3061 29.3141C83.2369 29.2448 83.0643 29.3089 82.7101 29.5355C82.436 29.7109 81.8058 29.9966 81.3097 30.1705C79.6077 30.767 79.1645 31.0158 78.1787 31.9286C75.0248 34.8485 91.9651 33.6332 101.272 30.2719C102.834 29.708 103.132 29.3716 103.007 28.315C102.791 26.4987 99.2376 24.2346 98.2587 25.2903C98.0255 25.5418 97.9298 25.4722 98.1412 25.2048C98.5051 24.7446 99.4891 24.8389 100.714 25.4513C101.494 25.8418 101.488 25.8417 101.488 25.4537C101.488 25.1148 101.312 24.9554 100.924 24.943C100.72 24.9364 99.9073 24.6058 100.062 24.5922C100.105 24.5885 100.366 24.6514 100.643 24.7319C102.612 25.3043 103.343 24.3162 102.398 22.3613C102.299 22.1573 102.016 21.1913 101.768 20.2147C100.47 15.0908 97.8341 9.56131 96.6897 9.56106C96.4192 9.561 96.4246 9.57412 95.9734 7.83082C95.199 4.83898 94.6276 3.73799 93.5232 3.10962C91.1233 1.74418 90.5359 -0.737663 92.8371 0.210695C97.7756 2.2459 102.81 8.47227 106.484 17.0898C109.101 23.2264 109.788 33.6338 108.091 41.4311C106.902 46.8977 106.092 55.287 105.222 71.1614C104.668 81.2683 104.351 85.8292 103.894 90.2834C103.771 91.4854 103.61 93.2883 103.536 94.29C103.165 99.3189 102.606 103.988 101.656 109.997C101.331 112.052 101.286 112.534 101.261 114.186C101.167 120.413 98.8848 123.949 94.5563 124.572C94.1366 124.633 93.2606 124.839 92.6095 125.03C87.3322 126.579 81.7021 127.401 73.9882 127.747C67.7326 128.028 65.9234 128.057 62.7882 127.922V127.922ZM41.2982 118.504C40.1748 113.924 39.5177 111.749 38.7275 109.997C37.8816 108.122 37.6894 107.874 37.7939 108.791C38.2741 113.007 39.4315 116.918 41.3153 120.688C42.3086 122.676 42.3082 122.623 41.2982 118.504V118.504ZM39.329 121.539C39.6569 120.316 39.1325 117.742 37.6058 113.082C36.735 110.424 36.0932 108.112 35.9724 107.197C35.8931 106.598 35.8108 106.548 35.4699 106.888C34.9232 107.435 35.0885 108.566 36.3199 112.705C36.6512 113.819 36.9692 115.089 37.0265 115.528C37.3634 118.107 39.061 122.539 39.329 121.539ZM70.2046 107.978C71.8661 106.878 71.6481 103.67 69.8423 102.647C68.2166 101.727 67.3436 103.733 68.0338 106.803C68.3434 108.181 69.1995 108.644 70.2046 107.978ZM65.3069 107.736C66.5459 107.1 66.9574 104.981 66.1811 103.233C65.4157 101.509 63.8804 102.383 63.6037 104.699C63.5637 105.034 63.4692 105.701 63.3937 106.182C63.1233 107.906 63.8401 108.488 65.3069 107.736ZM35.1578 104.566C35.3564 102.977 34.9445 100.68 33.6117 95.946C33.2337 94.6031 32.7978 92.8616 32.6431 92.076C32.1372 89.5073 31.3713 88.2557 31.7412 90.6021C31.9208 91.7411 32.9344 96.939 33.1529 97.8412C33.2742 98.342 33.4791 99.6053 33.6083 100.649C33.9299 103.246 34.212 104.276 34.7668 104.875C35.0418 105.173 35.0865 105.137 35.1578 104.566ZM56.2318 95.7803C63.1681 94.1909 65.4047 85.5171 59.93 81.4383C56.4 78.8083 54.1893 78.6172 48.6743 80.4652C47.5474 80.8428 46.533 81.2099 46.42 81.2811C46.0181 81.534 45.3963 82.4307 45.3963 82.7575C45.3962 82.9252 45.2353 83.4615 45.0387 83.9491C42.4335 90.411 49.0665 97.4222 56.2318 95.7803ZM47.445 90.8164C44.7164 90.4089 44.1284 88.0856 46.2169 85.9644C47.734 84.4235 49.5006 84.2901 50.7975 85.6185C53.3638 88.247 51.3322 91.3969 47.445 90.8164ZM82.0407 94.5033C86.8052 93.7029 89.7926 88.2255 87.8279 83.8924C83.2274 73.7463 66.7054 78.6203 70.3288 89.0546C71.878 93.5157 76.1336 95.4955 82.0407 94.5033V94.5033ZM72.759 90.2924C70.6352 89.7695 69.9463 87.8287 71.0843 85.5743C72.5071 82.7558 75.5515 82.789 77.0534 85.6395C77.9605 87.3611 77.7548 87.9349 76.2838 87.7866C74.9608 87.6532 74.5267 87.8423 75.1734 88.2703C75.6447 88.5822 76.2475 89.125 76.3637 89.3423C76.727 90.0211 74.2784 90.6666 72.759 90.2924V90.2924ZM50.3709 52.6462C50.7298 52.5942 50.9778 52.4735 51.4388 52.1267C51.7691 51.8783 52.2758 51.5027 52.5649 51.292C54.1544 50.1334 55.5217 49.0931 56.0044 48.6751C56.6305 48.1329 56.7784 48.0331 56.7784 48.1528C56.7784 48.1997 56.5428 48.4297 56.2548 48.6638C55.9668 48.8979 55.6601 49.148 55.5731 49.2194C55.3306 49.4185 53.6243 50.6893 52.6455 51.3998C51.596 52.1615 51.5839 52.2035 52.4304 52.1434C53.6282 52.0583 53.8778 51.9968 53.8159 51.8019C53.7534 51.605 54.1259 51.4131 54.4505 51.4751C54.598 51.5032 54.5739 51.5264 54.339 51.5823C54.1743 51.6216 54.0546 51.6995 54.0729 51.7555C54.1182 51.8938 54.5916 51.9406 54.7134 51.8188C54.7765 51.7556 55.4168 51.7206 56.5093 51.7206C58.5162 51.7206 60.1475 51.6327 60.1475 51.5247C60.1475 51.4822 60.089 51.4474 60.0174 51.4474C59.8716 51.4474 59.6012 51.2066 59.6012 51.0767C59.6012 51.0302 59.6831 51.0741 59.7833 51.1743C59.9127 51.3037 60.0868 51.3564 60.3849 51.3564C60.7061 51.3564 60.793 51.3861 60.7557 51.4833C60.6223 51.8308 75.3803 51.7978 75.6156 51.4499C75.7308 51.2798 75.8376 51.2652 76.9815 51.264C78.6725 51.2621 79.5774 50.9102 78.9494 50.4987C78.8214 50.4149 78.7229 50.2625 78.7223 50.1478C78.7219 50.0362 78.6213 49.7299 78.4989 49.4669C78.3765 49.204 78.313 48.9889 78.3578 48.9889C78.4749 48.9889 78.5441 49.1243 78.771 49.7981C78.9669 50.3796 78.9842 50.3998 79.3715 50.4992C79.7594 50.5987 79.7629 50.6028 79.4972 50.6466C79.347 50.6714 79.5928 50.6924 80.0436 50.6933C80.6189 50.6945 80.7681 50.675 80.5444 50.6279C80.3691 50.591 80.2534 50.5554 80.2874 50.5489C80.3213 50.5423 80.6679 50.4925 81.0576 50.4383C82.2877 50.2672 83.1679 49.9424 83.202 49.6469C83.2278 49.4229 83.266 49.3986 83.5934 49.3986C84.229 49.3986 84.0713 48.7877 83.4034 48.6624C83.0718 48.6002 82.8625 48.414 82.9553 48.2638C83.0456 48.1178 83.5477 47.8799 83.6693 47.9256C83.7306 47.9486 83.6985 47.993 83.5948 48.0288C83.023 48.2256 82.9828 48.3783 83.4532 48.5665C83.8282 48.7165 84.1867 49.0104 84.1867 49.1678C84.1867 49.3345 83.6211 49.8995 83.4542 49.8995C83.3621 49.8995 83.264 49.9364 83.2361 49.9816C83.1745 50.0813 82.1039 50.4132 81.5688 50.4985C80.5629 50.6588 81.4773 50.719 84.9187 50.719C88.7229 50.719 90.3074 50.6276 90.5679 50.3931C90.6672 50.3037 90.94 50.2637 91.4503 50.2637C91.8566 50.2637 92.2143 50.2227 92.2453 50.1726C92.2762 50.1226 92.3763 50.0816 92.4677 50.0816C92.6197 50.0816 92.7976 49.7385 92.6975 49.6384C92.6748 49.6157 92.4408 49.6422 92.1775 49.6973C91.2192 49.8981 91.1071 49.9126 91.1071 49.8354C91.1071 49.7922 91.3995 49.7028 91.7569 49.6367C94.9354 49.0488 97.3735 47.2693 98.3953 44.7915C98.5371 44.4475 98.9491 43.6224 99.3108 42.958C101.523 38.8945 102.815 35.3831 102.485 34.3315C102.445 34.2047 102.388 33.9545 102.359 33.7754C102.256 33.1559 102.206 33.1355 101.123 33.2795C96.2852 33.9232 86.8834 34.8855 81.1363 35.3254C77.1002 35.6342 71.6094 35.9656 70.5026 35.9671C70.0673 35.9676 70.0673 35.9676 68.4571 37.5114C66.4422 39.4432 66.2732 39.4514 68.1978 37.524C68.9897 36.7309 69.6024 36.0613 69.5593 36.0361C69.2655 35.8643 68.1735 35.6934 67.5089 35.7152C66.7703 35.7393 66.7494 35.7343 66.7566 35.533C66.7665 35.2583 66.778 35.2598 64.1085 35.1982C42.7538 34.7051 28.4447 33.9687 20.711 32.9649C19.8103 32.848 19.718 32.8508 19.718 32.9955C19.718 33.2487 20.4553 33.9491 21.038 34.2495C21.7713 34.6274 21.7824 34.7931 21.0828 34.9205C20.3328 35.0572 20.3554 34.9686 20.6499 36.6164C21.8311 43.2268 23.5678 44.7232 27.234 42.2897C29.3425 40.8901 42.8535 39.4406 51.7702 39.6572C53.3007 39.6944 54.356 39.6785 54.8662 39.6106C55.2919 39.5539 55.8737 39.4861 56.1591 39.4599C56.4445 39.4336 56.7261 39.3542 56.7849 39.2834C56.8437 39.2126 57.048 39.1547 57.2389 39.1547C57.4298 39.1547 57.7014 39.1073 57.8424 39.0494C58.8076 38.6529 66.1573 38.5007 66.1573 38.8771C66.1573 38.9432 65.7791 39.3037 64.9019 40.0738C64.6968 40.2538 63.6354 41.0729 62.5432 41.8941C60.8869 43.1392 59.7807 43.9988 59.2825 44.4277C59.2324 44.4708 58.6847 45.0453 58.0655 45.7044C55.5187 48.4149 52.8591 50.2802 50.5734 50.9589C50.2537 51.0539 50.1242 51.147 50.0512 51.3346C49.9281 51.6506 49.5308 52.3574 49.4064 52.4819C49.1991 52.6891 49.3005 52.8362 49.6076 52.774C49.7704 52.741 50.1139 52.6835 50.3709 52.6462V52.6462ZM27.5489 26.0555C27.5489 25.9625 27.6862 25.7064 27.8539 25.4864C28.2751 24.934 28.4595 24.5516 28.4595 24.2312C28.4595 23.8752 28.3381 23.921 30.5189 23.455C35.3982 22.4124 37.4881 22.1444 41.2234 22.0824C60.926 21.7552 66.7091 21.5744 72.9712 21.0899C74.5647 20.9666 74.5618 20.9658 74.9994 21.6558C75.9452 23.1471 73.2672 24.1273 69.1167 23.8091C68.716 23.7784 66.8106 23.7414 64.8825 23.7269C61.3768 23.7006 61.3768 23.7006 59.4731 23.3172C56.6941 22.7576 55.8803 22.79 55.0803 23.4925C54.705 23.822 54.825 23.8208 53.9256 23.5038C51.6517 22.7022 48.8386 22.6532 44.3035 23.3359C42.776 23.5658 40.9936 23.7991 40.3425 23.8543C36.9598 24.1411 33.7875 24.7273 29.718 25.8176C28.0262 26.2709 27.5489 26.3232 27.5489 26.0555Z" fill="#326D8E"/>
<path d="M62.7882 127.922C52.1791 127.468 44.803 126.058 38.9163 123.356C38.057 122.962 38.1859 123.226 37.2592 119.964C35.6452 114.283 34.4184 109.136 33.1042 102.531C32.4379 99.1824 32.1259 97.7827 30.5874 91.2396C27.8266 79.4986 26.7781 74.1001 26.1748 68.5207C26.022 67.1077 26.297 65.1756 26.7292 64.6262C26.9851 64.301 26.9903 63.4706 26.7369 63.4043C26.5891 63.3657 26.5524 63.2408 26.4983 62.5918C26.4534 62.0529 26.3835 61.7601 26.2632 61.6072C26.1472 61.4596 26.092 61.2419 26.092 60.9312C26.092 60.6791 26.0511 60.4476 26.001 60.4166C25.9463 60.3828 25.9099 59.7649 25.9099 58.8687C25.9099 57.9724 25.8736 57.3545 25.8189 57.3207C25.7688 57.2897 25.7278 57.3463 25.7278 57.4465C25.7278 58.5689 24.9212 56.5247 24.451 54.2106C23.2443 48.2721 21.2639 42.3709 21.7195 46.0714C21.8798 47.3733 22.1751 48.6532 23.0231 51.7206C24.0192 55.3242 24.4731 57.8756 24.2705 58.7339C23.9809 59.9603 22.1101 52.5951 21.0319 45.984C20.7583 44.3063 20.3474 41.7863 20.1189 40.384C19.6082 37.2507 19.1332 34.8976 18.4842 32.2862C17.8346 29.6723 17.8529 29.2483 18.6602 28.2202C20.3243 26.101 25.2075 24.4534 25.7354 25.8332C26.0972 26.7788 25.0309 27.4339 22.131 28.0474C19.6177 28.5792 19.3853 28.9594 20.7496 30.3068C22.1137 31.6539 30.0255 32.8579 39.3864 33.1429C55.9514 33.6472 66.4705 33.7804 69.4354 33.5234C72.364 33.2695 72.5402 33.2712 73.0298 33.5581C73.4663 33.8139 73.4663 33.8139 74.0232 33.6756C74.5806 33.5371 74.7141 33.5406 76.6563 33.7443C77.0791 33.7887 77.2826 33.7599 77.6759 33.6003C78.1122 33.4232 78.2062 33.4137 78.5136 33.516C79.1516 33.7281 85.232 33.6669 87.3737 33.4268C93.3294 32.7589 100.379 31.1328 102.724 29.886C103 29.7393 104.813 29.2998 105.995 29.0932C107.13 28.8948 107.863 28.7199 108.408 28.5178C108.909 28.3319 108.909 28.3319 108.968 29.1222C109.229 32.6353 108.838 38.3046 108.134 41.2035C107.95 41.9638 107.732 43.177 107.409 45.2556C107.303 45.9317 107.172 46.5743 107.118 46.6837C107.063 46.7931 107.043 46.9774 107.073 47.0933C107.103 47.2092 107.027 48.1236 106.904 49.1253C106.256 54.396 105.848 59.7415 105.222 71.1614C104.668 81.2683 104.351 85.8292 103.894 90.2835C103.771 91.4854 103.61 93.2884 103.536 94.29C103.165 99.319 102.606 103.988 101.656 109.997C101.331 112.052 101.286 112.535 101.261 114.186C101.167 120.413 98.8848 123.949 94.5563 124.572C94.1366 124.633 93.2606 124.839 92.6095 125.03C87.3322 126.579 81.7021 127.401 73.9883 127.747C67.7326 128.028 65.9234 128.057 62.7882 127.922V127.922ZM41.2982 118.504C40.1748 113.924 39.5177 111.749 38.7275 109.997C37.8816 108.122 37.6894 107.874 37.7939 108.791C38.2741 113.007 39.4315 116.918 41.3153 120.688C42.3086 122.676 42.3082 122.623 41.2982 118.504V118.504ZM39.329 121.539C39.6569 120.316 39.1325 117.742 37.6058 113.082C36.735 110.424 36.0932 108.112 35.9724 107.197C35.8931 106.598 35.8108 106.548 35.4699 106.888C34.9232 107.435 35.0885 108.567 36.3199 112.705C36.6512 113.819 36.9692 115.089 37.0265 115.528C37.3634 118.107 39.061 122.539 39.329 121.539ZM70.2046 107.978C71.8661 106.878 71.6481 103.67 69.8423 102.647C68.2166 101.727 67.3436 103.733 68.0338 106.803C68.3434 108.181 69.1995 108.644 70.2046 107.978ZM65.3069 107.736C66.5459 107.101 66.9574 104.981 66.1811 103.233C65.4157 101.509 63.8804 102.383 63.6037 104.699C63.5637 105.034 63.4692 105.701 63.3937 106.182C63.1233 107.906 63.8401 108.488 65.3069 107.736ZM35.1578 104.566C35.3564 102.977 34.9445 100.68 33.6117 95.946C33.2337 94.6031 32.7978 92.8616 32.6431 92.0761C32.1372 89.5074 31.3713 88.2557 31.7412 90.6022C31.9208 91.7412 32.9344 96.939 33.1529 97.8412C33.2742 98.3421 33.4791 99.6053 33.6083 100.649C33.9299 103.246 34.212 104.276 34.7668 104.875C35.0418 105.173 35.0865 105.137 35.1578 104.566ZM62.5388 101.62C63.4663 101.12 64.4131 100.892 65.5572 100.892C66.4375 100.893 67.1013 100.984 69.6175 101.448C72.6883 102.015 74.4934 101.588 74.2803 100.346C73.7977 97.531 72.3665 96.9133 67.9715 97.6228C65.4079 98.0366 63.5514 98.056 62.5082 97.6801C61.6841 97.3831 61.7343 97.3855 61.1226 97.6143C58.9107 98.4419 59.008 101.079 61.2769 101.798C61.5822 101.895 61.8392 101.976 61.8479 101.979C61.8565 101.982 62.1675 101.82 62.5388 101.62V101.62ZM56.2318 95.7803C63.1681 94.1909 65.4047 85.5171 59.93 81.4383C56.4 78.8084 54.1893 78.6172 48.6743 80.4652C47.5474 80.8428 46.533 81.21 46.42 81.2811C46.0181 81.534 45.3963 82.4307 45.3963 82.7575C45.3962 82.9253 45.2353 83.4615 45.0387 83.9491C42.4335 90.411 49.0665 97.4222 56.2318 95.7803V95.7803ZM47.445 90.8164C44.7164 90.4089 44.1284 88.0856 46.2169 85.9644C47.734 84.4235 49.5006 84.2901 50.7975 85.6185C53.3638 88.2471 51.3322 91.3969 47.445 90.8164ZM82.0407 94.5033C86.8052 93.703 89.7926 88.2255 87.8279 83.8924C83.2274 73.7464 66.7054 78.6203 70.3288 89.0546C71.878 93.5157 76.1336 95.4956 82.0407 94.5033V94.5033ZM72.759 90.2925C70.6352 89.7695 69.9463 87.8287 71.0843 85.5743C72.5071 82.7558 75.5515 82.789 77.0534 85.6395C77.9605 87.3612 77.7548 87.9349 76.2838 87.7866C74.9608 87.6532 74.5267 87.8424 75.1735 88.2704C75.6447 88.5822 76.2475 89.125 76.3637 89.3423C76.727 90.0211 74.2784 90.6666 72.759 90.2925V90.2925ZM49.8527 52.7251C49.9434 52.6766 50.273 52.6268 50.5854 52.6145C51.0428 52.5964 51.1653 52.5592 51.2157 52.4232C51.2703 52.2755 51.4033 52.2505 52.2754 52.224C53.5866 52.1842 54.106 52.1111 54.5475 51.9044C54.9417 51.7198 58.732 51.5717 61.2402 51.6428C65.7007 51.7694 75.4909 51.6414 75.6147 51.4549C75.7319 51.2784 75.8261 51.2653 76.9815 51.264C78.2795 51.2625 78.8091 51.1586 79.0253 50.8629C79.1355 50.7122 79.4465 50.7026 83.873 50.7134C88.6936 50.7251 90.2836 50.6491 90.5679 50.3931C90.6672 50.3037 90.94 50.2637 91.4503 50.2637C91.8566 50.2637 92.2143 50.2227 92.2453 50.1727C92.2813 50.1144 93.6262 50.0816 95.9808 50.0816C99.5274 50.0816 99.6635 50.0752 99.7545 49.9052C99.8361 49.7527 99.9817 49.7221 100.828 49.6798C102.841 49.5791 103.352 49.5226 103.506 49.3838C103.625 49.2774 103.857 49.2526 104.549 49.2728C105.439 49.2987 105.439 49.2987 105.549 48.8934C105.61 48.6705 105.742 48.2627 105.842 47.9873C105.988 47.5875 106.037 47.1468 106.088 45.8019C106.157 43.9618 106.221 43.3749 106.466 42.3417C106.662 41.5131 106.667 35.9874 106.473 33.8278C106.353 32.4801 103.866 31.9739 102.025 32.9223C101.721 33.0789 94.3487 33.9528 88.6485 34.508C82.8852 35.0693 75.6148 35.6026 71.7118 35.7502C70.6734 35.7895 70.0342 35.8529 69.8768 35.9324C69.6702 36.0366 69.5649 36.0319 69.1483 35.8996C68.8216 35.7958 68.3468 35.7441 67.7053 35.7425C66.7701 35.7401 66.7493 35.7355 66.7566 35.5331C66.7665 35.2584 66.778 35.2598 64.1085 35.1982C42.7538 34.7051 28.4447 33.9687 20.711 32.9649C19.8103 32.848 19.718 32.8508 19.718 32.9955C19.718 33.2487 20.4553 33.9491 21.038 34.2495C21.7713 34.6275 21.7824 34.7931 21.0828 34.9205C20.3328 35.0572 20.3554 34.9686 20.6499 36.6164C21.8311 43.2268 23.5678 44.7232 27.234 42.2897C29.3425 40.8902 42.8536 39.4406 51.7702 39.6573C53.3007 39.6945 54.356 39.6786 54.8662 39.6106C55.2919 39.5539 55.8737 39.4861 56.1591 39.4599C56.4445 39.4336 56.7262 39.3542 56.7849 39.2834C56.8437 39.2126 57.048 39.1547 57.2389 39.1547C57.4298 39.1547 57.7014 39.1073 57.8424 39.0494C58.8076 38.653 66.1573 38.5007 66.1573 38.8772C66.1573 38.9432 65.7791 39.3037 64.9019 40.0738C64.6968 40.2538 63.6354 41.0729 62.5432 41.8941C60.8869 43.1393 59.7807 43.9988 59.2825 44.4277C59.2324 44.4709 58.6847 45.0454 58.0655 45.7044C55.5187 48.4149 52.8591 50.2802 50.5734 50.959C50.2537 51.0539 50.1242 51.1471 50.0512 51.3346C49.9281 51.6506 49.5308 52.3574 49.4064 52.4819C49.1417 52.7465 49.4742 52.9277 49.8527 52.7251V52.7251ZM27.5489 26.0555C27.5489 25.9626 27.6862 25.7065 27.8539 25.4864C28.2751 24.934 28.4595 24.5516 28.4595 24.2312C28.4595 23.8752 28.3381 23.921 30.5189 23.455C35.3982 22.4124 37.4881 22.1444 41.2234 22.0824C60.926 21.7552 66.7091 21.5744 72.9712 21.0899C74.5647 20.9666 74.5618 20.9658 74.9994 21.6558C75.9452 23.1471 73.2673 24.1274 69.1167 23.8091C68.716 23.7784 66.8106 23.7414 64.8825 23.7269C61.3768 23.7006 61.3768 23.7006 59.4731 23.3172C56.6941 22.7576 55.8803 22.7901 55.0803 23.4925C54.705 23.822 54.825 23.8208 53.9256 23.5038C51.6517 22.7023 48.8386 22.6532 44.3035 23.3359C42.776 23.5658 40.9936 23.7991 40.3425 23.8543C36.9598 24.1412 33.7875 24.7274 29.718 25.8177C28.0262 26.2709 27.5489 26.3233 27.5489 26.0555Z" fill="#83D2FF"/>
<path d="M62.7882 127.922C52.1791 127.468 44.803 126.058 38.9163 123.356C38.057 122.962 38.1859 123.226 37.2592 119.964C35.6452 114.283 34.4184 109.136 33.1042 102.531C32.4379 99.1824 32.1259 97.7827 30.5874 91.2396C27.8266 79.4986 26.7781 74.1001 26.1748 68.5207C26.0059 66.9591 26.3198 65.0464 26.8285 64.5378C27.1606 64.2056 27.2043 63.5773 26.9142 63.3069C26.7814 63.1832 26.7127 62.9438 26.6505 62.3877C26.6022 61.956 26.508 61.5701 26.4292 61.4815C26.2546 61.2851 26.1867 60.7084 26.1089 58.7621C26.0746 57.9022 26.0135 57.1658 25.9733 57.1257C25.8854 57.0383 25.7311 57.2589 25.7292 57.4746C25.7195 58.5502 24.9157 56.4978 24.451 54.2106C23.2443 48.2721 21.2639 42.3709 21.7195 46.0714C21.8798 47.3733 22.1751 48.6532 23.0231 51.7206C24.0192 55.3242 24.4731 57.8756 24.2705 58.7339C23.9809 59.9603 22.1101 52.5951 21.0319 45.984C20.7583 44.3063 20.3474 41.7863 20.1189 40.384C19.6082 37.2507 19.1332 34.8976 18.4842 32.2862C17.8346 29.6723 17.8529 29.2483 18.6602 28.2202C20.3243 26.101 25.2075 24.4534 25.7354 25.8332C26.0972 26.7788 25.0309 27.4339 22.131 28.0474C19.6177 28.5792 19.3853 28.9594 20.7496 30.3068C22.1137 31.6539 30.0255 32.8579 39.3864 33.1429C55.9514 33.6472 66.4705 33.7804 69.4354 33.5234C72.364 33.2695 72.5402 33.2712 73.0298 33.5581C73.4663 33.8139 73.4663 33.8139 74.0232 33.6756C74.5806 33.5371 74.7141 33.5406 76.6563 33.7443C77.0791 33.7887 77.2826 33.7599 77.6759 33.6003C78.1122 33.4232 78.2062 33.4137 78.5136 33.516C79.1516 33.7281 85.232 33.6669 87.3737 33.4268C93.3294 32.7589 100.379 31.1328 102.724 29.886C103 29.7393 104.813 29.2998 105.995 29.0932C107.13 28.8948 107.863 28.7199 108.408 28.5178C108.909 28.3319 108.909 28.3319 108.968 29.1222C109.229 32.6353 108.838 38.3046 108.134 41.2035C107.95 41.9638 107.732 43.177 107.409 45.2556C107.303 45.9317 107.172 46.5743 107.118 46.6837C107.063 46.7931 107.043 46.9774 107.073 47.0933C107.103 47.2092 107.027 48.1236 106.904 49.1253C106.256 54.396 105.848 59.7415 105.222 71.1614C104.668 81.2683 104.351 85.8292 103.894 90.2835C103.771 91.4854 103.61 93.2884 103.536 94.29C103.165 99.319 102.606 103.988 101.656 109.997C101.331 112.052 101.286 112.535 101.261 114.186C101.167 120.413 98.8848 123.949 94.5563 124.572C94.1366 124.633 93.2606 124.839 92.6095 125.03C87.3322 126.579 81.7021 127.401 73.9883 127.747C67.7326 128.028 65.9234 128.057 62.7882 127.922V127.922ZM41.2982 118.504C40.1748 113.924 39.5177 111.749 38.7275 109.997C37.8816 108.122 37.6894 107.874 37.7939 108.791C38.2741 113.007 39.4315 116.918 41.3153 120.688C42.3086 122.676 42.3082 122.623 41.2982 118.504V118.504ZM39.329 121.539C39.6569 120.316 39.1325 117.742 37.6058 113.082C36.735 110.424 36.0932 108.112 35.9724 107.197C35.8931 106.598 35.8108 106.548 35.4699 106.888C34.9232 107.435 35.0885 108.567 36.3199 112.705C36.6512 113.819 36.9692 115.089 37.0265 115.528C37.3634 118.107 39.061 122.539 39.329 121.539ZM70.2046 107.978C71.8661 106.878 71.6481 103.67 69.8423 102.647C68.2166 101.727 67.3436 103.733 68.0338 106.803C68.3434 108.181 69.1995 108.644 70.2046 107.978ZM65.3069 107.736C66.5459 107.101 66.9574 104.981 66.1811 103.233C65.4157 101.509 63.8804 102.383 63.6037 104.699C63.5637 105.034 63.4692 105.701 63.3937 106.182C63.1233 107.906 63.8401 108.488 65.3069 107.736ZM35.1578 104.566C35.3564 102.977 34.9445 100.68 33.6117 95.946C33.2337 94.6031 32.7978 92.8616 32.6431 92.0761C32.1372 89.5074 31.3713 88.2557 31.7412 90.6022C31.9208 91.7412 32.9344 96.939 33.1529 97.8412C33.2742 98.3421 33.4791 99.6053 33.6083 100.649C33.9299 103.246 34.212 104.276 34.7668 104.875C35.0418 105.173 35.0865 105.137 35.1578 104.566ZM62.5388 101.62C63.4663 101.12 64.4131 100.892 65.5572 100.892C66.4375 100.893 67.1013 100.984 69.6175 101.448C72.6883 102.015 74.4934 101.588 74.2803 100.346C73.7977 97.531 72.3665 96.9133 67.9715 97.6228C65.4079 98.0366 63.5514 98.056 62.5082 97.6801C61.6841 97.3831 61.7343 97.3855 61.1226 97.6143C58.9107 98.4419 59.008 101.079 61.2769 101.798C61.5822 101.895 61.8392 101.976 61.8479 101.979C61.8565 101.982 62.1675 101.82 62.5388 101.62V101.62ZM56.2318 95.7803C63.1681 94.1909 65.4047 85.5171 59.93 81.4383C56.3104 78.7416 54.0032 78.5887 48.1083 80.6549C46.8719 81.0882 46.2837 81.2548 46.2188 81.19C46.154 81.1251 46.1247 81.1449 46.1247 81.2534C46.1247 81.3401 46.0667 81.4333 45.9958 81.4606C45.7268 81.5638 45.421 82.1693 45.4031 82.6342C45.3922 82.9169 45.2523 83.4195 45.0334 83.9624C42.4334 90.4111 49.0751 97.4203 56.2318 95.7803V95.7803ZM47.445 90.8164C44.7164 90.4089 44.1284 88.0856 46.2169 85.9644C47.734 84.4235 49.5006 84.2901 50.7975 85.6185C53.3638 88.2471 51.3322 91.3969 47.445 90.8164ZM82.0407 94.5033C86.8052 93.703 89.7926 88.2255 87.8279 83.8924C83.2274 73.7464 66.7054 78.6203 70.3288 89.0546C71.878 93.5157 76.1336 95.4956 82.0407 94.5033V94.5033ZM72.759 90.2925C70.6352 89.7695 69.9463 87.8287 71.0843 85.5743C72.5071 82.7558 75.5515 82.789 77.0534 85.6395C77.9605 87.3612 77.7548 87.9349 76.2838 87.7866C74.9608 87.6532 74.5267 87.8424 75.1735 88.2704C75.6447 88.5822 76.2475 89.125 76.3637 89.3423C76.727 90.0211 74.2784 90.6666 72.759 90.2925V90.2925ZM67.4603 59.1355C67.5273 58.9008 67.4955 58.7858 67.2614 58.4166C65.472 55.5951 67.4686 51.674 70.2952 52.4587C71.4514 52.7797 71.4553 53.4183 70.3165 55.9075C69.2408 58.2587 69.3233 58.6865 70.8521 58.6865C71.9345 58.6865 71.8844 58.7614 71.9856 56.9921C72.2458 52.4446 73.617 50.9102 76.5379 51.8981C77.2959 52.1545 77.3088 52.1697 77.5377 53.0733C78.4156 56.5396 79.6128 57.523 82.7753 57.3757C85.0186 57.2712 85.5176 56.7958 86.3766 53.9444C87.1079 51.517 87.6147 50.922 89.1276 50.7152C89.4901 50.6657 89.9711 50.5866 90.1965 50.5394C91.1522 50.3396 92.0989 50.4804 92.3472 50.8593C92.5585 51.1818 92.6825 51.0369 92.6333 50.5251C92.5907 50.0816 92.5907 50.0816 96.1254 50.0816C99.5289 50.0816 99.6636 50.0751 99.7545 49.9052C99.8361 49.7527 99.9817 49.7221 100.828 49.6798C102.841 49.5791 103.352 49.5226 103.506 49.3838C103.625 49.2774 103.857 49.2526 104.549 49.2728C105.439 49.2987 105.439 49.2987 105.549 48.8934C105.61 48.6705 105.742 48.2627 105.842 47.9873C105.988 47.5875 106.037 47.1468 106.088 45.8019C106.157 43.9618 106.221 43.3749 106.466 42.3417C106.662 41.5131 106.667 35.9874 106.473 33.8278C106.353 32.4801 103.866 31.9739 102.025 32.9223C101.721 33.0789 94.3487 33.9528 88.6485 34.508C82.8852 35.0693 75.6148 35.6026 71.7118 35.7502C70.6734 35.7895 70.0342 35.8529 69.8768 35.9324C69.6702 36.0366 69.5649 36.0319 69.1483 35.8996C68.8216 35.7958 68.3468 35.7441 67.7053 35.7425C66.7701 35.7401 66.7493 35.7355 66.7566 35.5331C66.7665 35.2584 66.778 35.2598 64.1085 35.1982C42.7538 34.7051 28.4447 33.9687 20.711 32.9649C19.8103 32.848 19.718 32.8508 19.718 32.9955C19.718 33.2487 20.4553 33.9491 21.038 34.2495C21.7713 34.6275 21.7824 34.7931 21.0828 34.9205C20.3328 35.0572 20.3554 34.9686 20.6499 36.6164C21.8311 43.2268 23.5678 44.7232 27.234 42.2897C28.9786 41.1317 36.0232 40.1838 46.136 39.7464C54.1977 39.3976 52.3889 39.9098 41.7994 40.9743C36.5831 41.4986 34.1311 41.8373 31.601 42.3829C31.0501 42.5017 30.3116 42.6198 29.96 42.6454C26.8968 42.868 23.9721 46.5571 25.5095 48.2589C25.964 48.7619 26.6213 48.9885 27.8793 49.0761C28.4366 49.1148 28.9312 49.1704 28.9784 49.1996C29.0256 49.2288 29.6145 49.3534 30.2871 49.4764C31.7196 49.7386 32.0116 49.8376 32.0757 50.0827C32.1189 50.2478 32.2014 50.2637 33.0119 50.2637C33.8188 50.2637 33.9127 50.2817 34.03 50.4583C34.1379 50.6209 34.274 50.6603 34.8571 50.6977C35.3839 50.7315 35.5928 50.7843 35.7092 50.9129C35.8081 51.0222 35.987 51.0832 36.2081 51.0832C36.3978 51.0832 36.5782 51.1242 36.6092 51.1743C36.6401 51.2244 36.8755 51.2654 37.1322 51.2654C37.4911 51.2654 37.6495 51.3127 37.8169 51.4702C38.0253 51.6662 38.1138 51.6764 39.8408 51.7046C41.4866 51.7315 41.6609 51.7497 41.8055 51.9095C41.9705 52.0918 42.8466 52.172 42.8466 52.0049C42.8466 51.6858 44.4185 51.4204 46.4434 51.3977C47.8953 51.3813 48.4395 51.3387 49.1278 51.1875C50.2714 50.9362 50.3093 50.9946 49.68 52.0393C49.5292 52.2897 49.3664 52.5835 49.3183 52.6921C49.2701 52.8007 49.1189 52.9441 48.9822 53.0108C48.8454 53.0775 48.5711 53.3707 48.3725 53.6624C48.0977 54.0661 47.9004 54.2453 47.5461 54.4128C46.0181 55.1356 44.7778 56.3646 45.5764 56.3646C45.7813 56.3646 46.0468 56.4287 46.1665 56.5071C46.3638 56.6364 46.4095 56.6364 46.6596 56.5071C46.8111 56.4287 46.9928 56.3646 47.0633 56.3646C47.1338 56.3646 47.3488 56.1085 47.541 55.7955C48.1465 54.8095 50.6654 52.4713 50.9884 52.5953C51.0829 52.6315 51.1566 52.5828 51.2049 52.4523C51.273 52.2683 51.3489 52.252 52.2754 52.2231C53.45 52.1863 54.2357 52.0976 54.3726 51.9862C54.432 51.9379 54.7132 51.9999 55.0832 52.1429C56.136 52.5498 56.213 53.0039 55.3103 53.483C53.7141 54.3302 53.4438 56.1633 54.7041 57.595C55.7901 58.8288 57.6147 58.5812 56.5819 57.3402C54.6131 54.9745 55.9924 52.9963 60.1477 52.2259C62.7967 51.7347 66.6834 52.5752 65.9682 53.4845C65.3473 54.2738 65.3477 55.3742 65.9697 57.9103C66.123 58.535 66.2484 59.1414 66.2484 59.2577C66.2484 59.6333 67.3498 59.5223 67.4603 59.1355H67.4603ZM80.8068 55.8746C78.1676 54.9315 78.198 52.0186 80.8463 52.0952C81.5854 52.1166 81.7461 52.0912 82.229 51.8767C84.1125 51.0397 85.8832 52.4165 85.336 54.2926C85.0141 55.3965 84.3708 55.8121 82.8208 55.9175C81.3913 56.0147 81.1865 56.0103 80.8068 55.8746ZM27.5489 26.0555C27.5489 25.9626 27.6862 25.7065 27.8539 25.4864C28.2751 24.934 28.4595 24.5516 28.4595 24.2312C28.4595 23.8752 28.3381 23.921 30.5189 23.455C35.3982 22.4124 37.4881 22.1444 41.2234 22.0824C60.926 21.7552 66.7091 21.5744 72.9712 21.0899C74.5647 20.9666 74.5618 20.9658 74.9994 21.6558C75.9452 23.1471 73.2673 24.1274 69.1167 23.8091C68.716 23.7784 66.8106 23.7414 64.8825 23.7269C61.3768 23.7006 61.3768 23.7006 59.4731 23.3172C56.6941 22.7576 55.8803 22.7901 55.0803 23.4925C54.705 23.822 54.825 23.8208 53.9256 23.5038C51.6517 22.7023 48.8386 22.6532 44.3035 23.3359C42.776 23.5658 40.9936 23.7991 40.3425 23.8543C36.9598 24.1412 33.7875 24.7274 29.718 25.8177C28.0262 26.2709 27.5489 26.3233 27.5489 26.0555Z" fill="#428CB6"/>
<path d="M64.4725 127.969C52.4906 127.328 46.7864 126.385 40.8431 124.065C38.2581 123.056 38.2514 123.052 37.9873 122.185C36.3865 116.932 34.7168 110.127 33.3214 103.17C32.5099 99.1231 32.2297 97.8627 30.6075 90.9611C26.4925 73.4532 25.4574 66.2625 26.8276 64.7019C27.1639 64.3189 27.2094 63.5823 26.9139 63.307C26.7812 63.1833 26.7125 62.9438 26.6503 62.3878C26.602 61.956 26.5078 61.5701 26.429 61.4815C26.2541 61.2847 26.1863 60.7073 26.1087 58.7513C26.06 57.523 26.0172 57.1591 25.914 57.0955C25.7283 56.9811 25.637 57.0635 25.6336 57.3489C25.6237 58.1884 24.8826 55.9747 24.4505 53.815C23.1252 47.1903 20.7818 41.2416 21.7742 47.021C21.9375 47.9721 22.4153 49.8748 23.1201 52.3801C23.723 54.5235 24.0605 56.1557 24.17 57.4573C24.5189 61.6048 22.2916 53.2704 21.1282 46.0751C19.5339 36.2151 19.0826 33.8842 18.2011 30.9596C17.8206 29.697 18.0023 29.0369 19.0246 27.9686C21.1756 25.7209 26.0468 24.4693 25.6894 26.2562C25.5418 26.9939 24.5652 27.4585 22.0906 27.9683C19.5307 28.4956 19.2714 28.9361 20.6938 30.3416C21.8145 31.449 27.9336 32.6059 35.0154 33.0493C36.3324 33.1317 37.8712 33.184 45.9423 33.4207C56.8076 33.7393 66.8494 33.8214 69.3896 33.6124C72.3437 33.3693 72.684 33.3682 73.0977 33.6007C73.4301 33.7875 73.5139 33.7991 73.8881 33.7104C74.2877 33.6157 74.5952 33.6295 76.7322 33.8384C77.1615 33.8803 77.3273 33.8498 77.7462 33.6516C78.175 33.4488 78.2844 33.4297 78.5077 33.5187C79.0201 33.723 85.3165 33.6579 87.3735 33.427C93.333 32.7581 100.379 31.1327 102.724 29.8861C103 29.7393 104.813 29.2998 105.995 29.0932C107.145 28.8921 107.872 28.72 108.344 28.537C109.143 28.2271 109.332 32.4545 108.723 37.009C108.39 39.498 108.316 39.9804 108.141 40.7938C108.039 41.2696 107.899 41.9252 107.829 42.2507C106.82 46.9496 105.951 56.2912 105.131 71.2525C104.535 82.1146 104.249 86.1376 103.675 91.6949C103.58 92.6214 103.476 93.7687 103.446 94.2445C103.177 98.4394 102.574 103.493 101.531 110.294C101.207 112.404 101.139 113.049 101.182 113.618C101.624 119.462 98.9263 123.814 94.4304 124.511C93.9797 124.581 92.8897 124.848 92.0081 125.104C87.5541 126.397 82.5011 127.168 75.8547 127.57C71.5524 127.831 65.7104 128.035 64.4725 127.969V127.969ZM64.0778 126.682C64.412 126.348 63.4249 126.189 59.1457 125.887C58.119 125.815 56.7668 125.695 56.1408 125.62C52.7206 125.213 50.0105 125.19 51.0133 125.576C52.831 126.277 63.5736 127.187 64.0778 126.682ZM42.209 121.983C42.209 121.748 40.5833 115.236 40.1715 113.822C39.4118 111.213 38.0629 107.994 37.7293 107.994C37.4173 107.994 38.1913 112.424 38.9386 114.915C39.9238 118.199 42.209 123.138 42.209 121.983ZM39.3982 121.6C39.7141 120.141 39.2563 117.849 37.6985 113.093C36.8422 110.479 36.1902 108.144 36.0589 107.22C35.9748 106.629 35.8865 106.518 35.6048 106.646C34.7915 107.017 34.9171 108.317 36.1652 112.45C36.4893 113.523 36.8173 114.814 36.894 115.318C37.3857 118.551 39.1177 122.895 39.3982 121.6ZM70.174 108.098C71.6251 107.178 71.8789 105.072 70.7348 103.445C68.8373 100.748 66.8848 103.403 68.0187 107.139C68.3621 108.271 69.2671 108.673 70.174 108.098V108.098ZM65.3067 107.826C66.884 107.015 67.1487 103.918 65.7652 102.462C64.9384 101.592 63.7247 102.85 63.5062 104.804C63.46 105.216 63.383 105.724 63.335 105.932C62.9064 107.788 63.7692 108.617 65.3067 107.826V107.826ZM35.2353 104.572C35.447 103.203 35.0033 100.634 33.8262 96.4146C33.3745 94.7954 32.863 92.7624 32.6896 91.8969C32.2683 89.7931 31.5553 88.3655 31.5553 89.6257C31.5553 90.2617 32.5658 95.7618 33.0563 97.7958C33.1831 98.3216 33.3911 99.5919 33.5185 100.619C33.8565 103.343 34.0712 104.158 34.6195 104.799C35.0312 105.28 35.1317 105.243 35.2353 104.572ZM62.5492 101.62C64.1723 100.73 65.5338 100.677 69.1165 101.365C73.8617 102.276 75.7614 100.901 73.3939 98.2678C72.4245 97.1896 71.4107 97.0728 67.8872 97.6338C65.536 98.0082 63.5097 98.0397 62.6514 97.7153C61.6068 97.3205 60.9504 97.4577 60.1446 98.2392C58.7665 99.5756 59.6882 101.587 61.8589 101.98C61.8738 101.982 62.1844 101.821 62.5492 101.62ZM56.3435 95.8466C57.345 95.5926 57.5996 95.4744 59.175 94.5327C64.3966 91.4113 64.4056 83.8451 59.1912 80.8373C58.8406 80.6351 58.3284 80.3369 58.053 80.1746C55.5514 78.7011 53.1482 78.781 48.3098 80.4986C47.4334 80.8097 46.6016 81.0618 46.4614 81.0587C46.2723 81.0546 46.1847 81.1104 46.1222 81.2748C46.0758 81.3967 46.0029 81.4965 45.96 81.4965C45.7551 81.4965 45.3049 82.3108 45.3049 82.6814C45.3049 82.914 45.1648 83.4101 44.9455 83.954C42.3226 90.4596 49.218 97.6542 56.3435 95.8466V95.8466ZM47.2118 90.6926C44.7921 90.2828 44.3334 88.096 46.2431 86.0747C47.72 84.5115 49.3747 84.3611 50.6802 85.6714C53.3426 88.3435 51.2478 91.3762 47.2118 90.6926V90.6926ZM82.1847 94.5633C87.9687 93.4129 90.3148 87.0535 86.8022 82.0476C81.4639 74.44 68.323 78.8643 69.8951 87.74C70.8348 93.0457 75.841 95.8251 82.1847 94.5633ZM72.8414 90.2352C70.3162 89.7346 69.8535 86.6405 71.9832 84.4964C73.8614 82.6053 76.5312 83.6957 77.4009 86.709C77.6718 87.6476 77.5035 87.7785 76.1128 87.7102C74.5089 87.6315 74.3813 87.7777 75.3921 88.536C76.1934 89.1372 76.433 89.4431 76.263 89.6479C75.8461 90.1502 74.0058 90.4661 72.8414 90.2352V90.2352ZM72.9409 68.2513C73.5919 68.2245 74.268 68.1786 74.4433 68.1493C74.6186 68.1201 74.8849 68.0821 75.0352 68.065C75.1854 68.0479 75.4928 68.0103 75.7181 67.9815C75.9435 67.9528 76.2713 67.9111 76.4466 67.889C76.6219 67.8669 76.9087 67.8256 77.084 67.7973C77.2593 67.7689 77.5256 67.728 77.6759 67.7065C77.9527 67.6667 78.8634 67.5087 80.271 67.2563C86.3077 66.1736 90.5177 64.2284 95.0337 60.4353C95.1651 60.3249 95.4465 60.0911 95.659 59.9159C95.8715 59.7406 96.2186 59.4332 96.4302 59.2329C96.6419 59.0326 97.0917 58.6228 97.4298 58.3223C97.7679 58.0219 98.2593 57.5711 98.5218 57.3207C99.4618 56.4242 100.469 55.5151 101.316 54.7978C101.536 54.6121 101.838 54.3553 101.988 54.2271C102.138 54.0988 102.454 53.841 102.69 53.654C102.991 53.4159 103.137 53.2243 103.179 53.0139C103.233 52.7438 103.268 52.7163 103.52 52.7407C103.74 52.762 103.824 52.7206 103.912 52.5476C103.973 52.4264 104.088 52.2912 104.167 52.2471C104.269 52.1902 104.31 52.0293 104.31 51.6922C104.31 51.2873 104.34 51.2043 104.515 51.1276C104.628 51.0782 104.732 50.9512 104.747 50.8453C104.762 50.7395 104.872 50.6087 104.991 50.5546C105.168 50.4738 105.218 50.3626 105.27 49.9275C105.305 49.6367 105.364 49.3577 105.401 49.3077C105.437 49.2576 105.51 49.0527 105.563 48.8524C105.616 48.652 105.741 48.2628 105.842 47.9873C105.988 47.5873 106.037 47.1474 106.088 45.8019C106.157 43.9618 106.221 43.3749 106.466 42.3418C106.662 41.5132 106.667 35.9874 106.473 33.8279C106.352 32.4802 103.866 31.974 102.025 32.9224C101.721 33.0789 94.3443 33.9533 88.6483 34.508C84.2551 34.9358 78.6265 35.3763 74.6254 35.6055C73.6488 35.6614 72.1942 35.7471 71.3929 35.796C69.4948 35.9117 69.1725 35.9077 69.0022 35.7665C68.9025 35.6837 68.5529 35.6531 67.8193 35.6626C66.8277 35.6756 66.7803 35.6677 66.8246 35.4983C66.899 35.2138 66.646 35.1788 64.0628 35.1154C41.4463 34.5607 29.1391 33.9252 20.5852 32.8703C19.6309 32.7526 19.6267 32.7529 19.6267 32.953C19.6267 33.233 20.3921 34.0013 20.9869 34.3183C21.6522 34.6729 21.6713 34.7549 21.1064 34.8316C20.2062 34.9539 20.2325 34.8348 20.6316 36.9837C21.8038 43.294 23.7767 44.8774 27.3075 42.3417C28.3805 41.5712 34.3839 40.5335 39.9325 40.1596C42.3561 39.9962 42.8083 39.9722 46.0334 39.8351C49.7585 39.6767 50.6563 39.6675 50.5351 39.7887C50.4156 39.9081 47.1184 40.3715 44.3488 40.6581C36.2179 41.4993 35.1357 41.6366 32.1927 42.2C31.3162 42.3678 30.2304 42.5509 29.7796 42.6068C24.9008 43.2123 23.2233 48.8118 27.8219 49.1418C29.4634 49.2596 32.0105 49.8607 32.0105 50.1304C32.0105 50.2389 32.1863 50.2638 32.9555 50.2638C33.8197 50.2638 33.9116 50.2804 34.0297 50.4584C34.1377 50.6209 34.2738 50.6603 34.8569 50.6978C35.3837 50.7316 35.5926 50.7843 35.709 50.9129C35.8079 51.0222 35.9867 51.0833 36.2079 51.0833C36.3975 51.0833 36.578 51.1243 36.6089 51.1743C36.6399 51.2244 36.8753 51.2654 37.132 51.2654C37.4909 51.2654 37.6492 51.3128 37.8167 51.4703C38.0249 51.6661 38.1141 51.6765 39.8259 51.7046C41.4231 51.7308 41.6368 51.7524 41.7992 51.9037C42.0491 52.1365 42.8368 52.1855 43.0413 51.981C43.3649 51.6574 44.7821 51.4277 46.3659 51.442C47.674 51.4538 49.1612 51.314 49.7895 51.1202C50.2143 50.9891 49.2874 52.816 48.8334 53.0046C48.6957 53.0618 48.5822 53.1549 48.5813 53.2114C48.5759 53.5321 48.0089 54.1946 47.5574 54.4078C43.6664 56.2453 43.5975 60.2412 47.4139 62.7222C49.8862 64.3294 50.3471 64.6093 51.4058 65.1462C53.8989 66.4106 57.1885 67.4375 59.8741 67.7898C60.0995 67.8194 60.3863 67.8618 60.5115 67.8842C60.7791 67.932 61.4645 68.0136 62.105 68.0738C62.3554 68.0974 62.7652 68.1373 63.0156 68.1626C63.266 68.1879 63.849 68.2199 64.3112 68.2337C64.7733 68.2475 65.1694 68.2767 65.1914 68.2987C65.2442 68.3515 71.4261 68.3136 72.9409 68.2513ZM27.6398 26.01C27.6398 25.9421 27.777 25.7065 27.9448 25.4865C28.3643 24.9361 28.5504 24.5519 28.5504 24.2357C28.5504 24.0335 28.6006 23.9556 28.7552 23.9178C33.1089 22.8537 37.4706 22.2298 40.9797 22.1691C62.3558 21.7994 66.8753 21.6587 72.8953 21.1758C74.4968 21.0473 74.5267 21.0544 74.9047 21.6505C75.881 23.19 74.4024 23.7233 69.253 23.6888C61.0273 23.6338 61.5939 23.66 59.4853 23.2359C56.7098 22.6776 55.8391 22.7159 54.9888 23.4338C54.7019 23.676 54.7019 23.676 53.7548 23.3591C51.4019 22.5717 49.0641 22.5566 43.9846 23.2958C42.2317 23.5509 40.2427 23.8003 39.5645 23.85C37.2018 24.0232 34.6313 24.5001 30.6512 25.5037C28.083 26.1514 27.6398 26.2259 27.6398 26.01Z" fill="#83D2FF"/>
<path d="M64.4725 127.969C52.4906 127.328 46.7864 126.385 40.8431 124.065C38.2581 123.056 38.2514 123.052 37.9873 122.185C36.3865 116.932 34.7168 110.127 33.3214 103.17C32.5099 99.1231 32.2297 97.8627 30.6075 90.9611C26.5027 73.4965 25.4554 66.2397 26.8197 64.7128C27.2723 64.2063 27.6362 64.8004 28.0369 66.6996C30.322 77.5299 34.0567 91.7089 36.8513 100.163C37.8967 103.326 37.7196 103.022 38.4835 102.958C39.2754 102.892 39.2881 102.919 38.893 103.839C38.1598 105.546 38.5217 106.411 40.8204 108.444C41.795 109.306 41.705 109.559 40.4858 109.383C39.6415 109.262 39.698 109.144 40.0129 110.371C40.1593 110.942 40.3644 111.819 40.4686 112.319C42.0721 120.025 43.6822 122.762 47.0149 123.445C57.3142 125.558 69.0675 125.922 84.6071 124.611C90.7124 124.096 95.4688 122.198 96.9904 119.671C97.3839 119.018 97.3945 119.048 96.7446 118.98C95.6957 118.871 95.7233 118.616 96.8341 118.156C98.48 117.474 98.9938 116.937 98.9684 115.926C98.9574 115.488 99.0209 115.13 99.2123 114.555C99.8619 112.601 99.9938 111.085 99.8428 107.306C99.7155 104.119 99.754 102.853 100.015 101.666C100.417 99.8314 100.632 98.0019 100.988 93.3795C101.229 90.2453 101.407 88.4817 101.622 87.0965C101.825 85.7927 101.929 84.4024 102.076 81.0412C102.243 77.2334 102.348 75.7728 102.586 73.9842C102.881 71.7597 102.931 71.593 103.469 71.055C104.24 70.2842 104.217 69.7436 103.361 68.494C102.055 66.5861 102.054 65.5859 103.357 64.3843C103.857 63.9242 103.873 63.2552 103.49 58.8687C103.084 54.2251 103.092 52.6994 103.52 52.7408C103.74 52.762 103.825 52.7204 103.912 52.5476C103.973 52.4264 104.088 52.2912 104.167 52.2471C104.269 52.1902 104.31 52.0293 104.31 51.6922C104.31 51.2873 104.34 51.2043 104.515 51.1276C104.628 51.0782 104.732 50.9512 104.747 50.8453C104.762 50.7395 104.872 50.6087 104.991 50.5546C105.168 50.4738 105.218 50.3626 105.27 49.9275C105.305 49.6367 105.364 49.3577 105.401 49.3077C105.437 49.2576 105.51 49.0527 105.563 48.8524C105.616 48.652 105.741 48.2628 105.842 47.9873C105.988 47.5873 106.037 47.1474 106.088 45.8019C106.157 43.9618 106.221 43.3749 106.466 42.3418C106.662 41.5132 106.667 35.9874 106.473 33.8279C106.352 32.4802 103.866 31.974 102.025 32.9224C101.721 33.0789 94.3443 33.9533 88.6483 34.508C84.2551 34.9358 78.6265 35.3763 74.6254 35.6055C73.6488 35.6614 72.1942 35.7471 71.3929 35.796C69.4948 35.9117 69.1725 35.9077 69.0022 35.7665C68.9025 35.6837 68.5529 35.6531 67.8193 35.6626C66.8277 35.6756 66.7803 35.6677 66.8246 35.4983C66.899 35.2138 66.646 35.1788 64.0628 35.1154C41.4463 34.5607 29.1391 33.9252 20.5852 32.8703C19.6309 32.7526 19.6267 32.7529 19.6267 32.953C19.6267 33.233 20.3921 34.0013 20.9869 34.3183C21.6522 34.6729 21.6713 34.7549 21.1064 34.8316C20.2062 34.9539 20.2325 34.8348 20.6316 36.9837C21.8038 43.294 23.7767 44.8774 27.3075 42.3417C28.3805 41.5712 34.3839 40.5335 39.9325 40.1596C42.3561 39.9962 42.8083 39.9722 46.0334 39.8351C49.7585 39.6767 50.6563 39.6675 50.5351 39.7887C50.4156 39.9081 47.1184 40.3715 44.3488 40.6581C36.2179 41.4993 35.1357 41.6366 32.1927 42.2C31.3162 42.3678 30.2304 42.5509 29.7796 42.6068C24.9008 43.2123 23.2233 48.8118 27.8219 49.1418C28.6188 49.1989 31.5564 49.754 31.8261 49.8983C32.1397 50.0661 32.055 50.3434 31.6356 50.5215C31.2607 50.6807 31.2607 50.6807 31.6421 50.9331C31.9544 51.1398 32.0038 51.2093 31.9148 51.3165C31.7493 51.516 31.6692 51.4997 28.9491 50.717C25.5313 49.7335 24.7943 49.6611 25.7276 50.4003C26.4425 50.9666 26.3484 51.2006 25.5082 50.9457C24.75 50.7157 24.7948 50.4874 25.1415 52.8134C25.2273 53.3893 25.294 54.0143 25.2897 54.2023C25.2854 54.3902 25.3424 54.8205 25.4164 55.1584C25.7612 56.734 25.7936 57.8282 25.483 57.4045C25.2681 57.1114 24.7489 55.3062 24.4505 53.815C23.1252 47.1903 20.7818 41.2416 21.7742 47.021C21.9375 47.9721 22.4153 49.8748 23.1201 52.3801C23.723 54.5235 24.0605 56.1557 24.17 57.4573C24.5189 61.6048 22.2916 53.2704 21.1282 46.0751C19.5339 36.2151 19.0826 33.8842 18.2011 30.9596C17.8206 29.697 18.0023 29.0369 19.0246 27.9686C21.1756 25.7209 26.0468 24.4693 25.6894 26.2562C25.5418 26.9939 24.5652 27.4585 22.0906 27.9683C19.5307 28.4956 19.2714 28.9361 20.6938 30.3416C21.8145 31.449 27.9336 32.6059 35.0154 33.0493C36.3324 33.1317 37.8712 33.184 45.9423 33.4207C56.8076 33.7393 66.8494 33.8214 69.3896 33.6124C72.3437 33.3693 72.684 33.3682 73.0977 33.6007C73.4301 33.7875 73.5139 33.7991 73.8881 33.7104C74.2877 33.6157 74.5952 33.6295 76.7322 33.8384C77.1615 33.8803 77.3273 33.8498 77.7462 33.6516C78.175 33.4488 78.2844 33.4297 78.5077 33.5187C79.0201 33.723 85.3165 33.6579 87.3735 33.427C93.333 32.7581 100.379 31.1327 102.724 29.8861C103 29.7393 104.813 29.2998 105.995 29.0932C107.145 28.8921 107.872 28.72 108.344 28.537C109.143 28.2271 109.332 32.4545 108.723 37.009C108.39 39.498 108.316 39.9804 108.141 40.7938C108.039 41.2696 107.899 41.9252 107.829 42.2507C106.82 46.9496 105.951 56.2912 105.131 71.2525C104.535 82.1146 104.249 86.1376 103.675 91.6949C103.58 92.6214 103.476 93.7687 103.446 94.2445C103.177 98.4394 102.574 103.493 101.531 110.294C101.207 112.404 101.139 113.049 101.182 113.618C101.624 119.462 98.9263 123.814 94.4304 124.511C93.9797 124.581 92.8897 124.848 92.0081 125.104C87.5541 126.397 82.5011 127.168 75.8547 127.57C71.5524 127.831 65.7104 128.035 64.4725 127.969V127.969ZM64.0778 126.682C64.412 126.348 63.4249 126.189 59.1457 125.887C58.119 125.815 56.7668 125.695 56.1408 125.62C52.7206 125.213 50.0105 125.19 51.0133 125.576C52.831 126.277 63.5736 127.187 64.0778 126.682ZM42.209 121.983C42.209 121.748 40.5833 115.236 40.1715 113.822C39.4118 111.213 38.0629 107.994 37.7293 107.994C37.4173 107.994 38.1913 112.424 38.9386 114.915C39.9238 118.199 42.209 123.138 42.209 121.983ZM39.3982 121.6C39.7141 120.141 39.2563 117.849 37.6985 113.093C36.8422 110.479 36.1902 108.144 36.0589 107.22C35.9748 106.629 35.8865 106.518 35.6048 106.646C34.7915 107.017 34.9171 108.317 36.1652 112.45C36.4893 113.523 36.8173 114.814 36.894 115.318C37.3857 118.551 39.1177 122.895 39.3982 121.6ZM35.2353 104.572C35.447 103.203 35.0033 100.634 33.8262 96.4146C33.3745 94.7954 32.863 92.7624 32.6896 91.8969C32.2683 89.7931 31.5553 88.3655 31.5553 89.6257C31.5553 90.2617 32.5658 95.7618 33.0563 97.7958C33.1831 98.3216 33.3911 99.5919 33.5185 100.619C33.8565 103.343 34.0712 104.158 34.6195 104.799C35.0312 105.28 35.1317 105.243 35.2353 104.572ZM55.2302 113.582C55.105 113.564 54.6338 113.505 54.183 113.45C53.7323 113.396 52.0318 113.087 50.4041 112.763C47.0213 112.091 45.2829 111.822 44.3008 111.82C43.2134 111.818 42.8558 111.34 43.4768 110.719C43.9319 110.264 44.8127 110.365 47.5372 111.187C49.4043 111.75 50.7948 112.088 51.6302 112.182C51.9826 112.222 52.6806 112.343 53.1814 112.451C53.928 112.611 59.2509 113.276 59.7905 113.276C59.8749 113.276 59.9654 113.357 59.9916 113.458C60.0366 113.63 56.2471 113.729 55.2302 113.582V113.582ZM63.8351 109.508C62.6202 108.936 62.177 108.075 61.9217 105.79C61.5768 102.704 61.0911 102.016 58.95 101.579C58.4434 101.476 58.3671 99.8217 58.8231 98.8258C59.306 97.7711 60.4058 96.5565 62.1883 95.1096C62.6819 94.7089 63.3493 94.1264 63.6713 93.815C64.3808 93.1291 64.4782 93.1031 66.2937 93.116C70.37 93.145 74.5317 96.3644 75.7986 100.469C76.1329 101.552 76.0966 101.608 74.3067 102.764C72.0849 104.2 71.6146 104.932 71.8911 106.523C72.3182 108.981 71.2074 109.74 68.2871 108.986C66.3401 108.484 65.447 108.597 64.8135 109.428C64.5446 109.78 64.433 109.79 63.8351 109.508V109.508ZM70.174 108.098C71.6251 107.178 71.8789 105.072 70.7348 103.445C68.8373 100.748 66.8848 103.403 68.0187 107.139C68.3621 108.271 69.2671 108.673 70.174 108.098ZM65.3067 107.826C66.884 107.015 67.1487 103.918 65.7652 102.462C64.9384 101.592 63.7247 102.85 63.5062 104.804C63.46 105.216 63.383 105.724 63.335 105.932C62.9064 107.788 63.7692 108.617 65.3067 107.826V107.826ZM62.5492 101.62C64.1723 100.73 65.5338 100.677 69.1165 101.365C73.8617 102.276 75.7614 100.901 73.3939 98.2678C72.4245 97.1896 71.4107 97.0728 67.8872 97.6338C65.536 98.0082 63.5097 98.0397 62.6514 97.7153C61.6068 97.3205 60.9504 97.4577 60.1446 98.2392C58.7665 99.5756 59.6882 101.587 61.8589 101.98C61.8738 101.982 62.1844 101.821 62.5492 101.62ZM51.9448 97.1574C45.5537 96.0757 41.1911 88.9762 43.7473 83.8168C44.8063 81.6795 45.8159 81.7951 44.9455 83.954C42.123 90.9547 50.7904 98.8097 57.6072 95.4291C64.2683 92.1257 65.1223 84.2586 59.1912 80.8373C58.8406 80.6351 58.3284 80.3369 58.053 80.1746C55.5607 78.7065 53.1653 78.7818 48.3554 80.4792C46.8254 81.0191 46.6431 81.0731 46.4204 81.052C46.2203 81.033 46.2941 80.913 46.8759 80.3104C52.2225 74.774 63.7926 78.7366 64.512 86.3505C65.1418 93.0158 58.9473 98.3426 51.9448 97.1574V97.1574ZM78.4498 96.4597C70.4079 95.6483 65.5535 87.9367 69.3248 81.9638C74.3469 74.01 85.9148 75.0589 89.2389 83.7695C91.7078 90.2393 85.7898 97.2002 78.4498 96.4597ZM82.1847 94.5633C87.9687 93.4129 90.3148 87.0535 86.8022 82.0476C81.4639 74.44 68.323 78.8643 69.8951 87.74C70.8348 93.0457 75.841 95.8251 82.1847 94.5633ZM72.8414 90.2352C70.3162 89.7346 69.8535 86.6405 71.9832 84.4964C73.8614 82.6053 76.5312 83.6957 77.4009 86.709C77.6718 87.6476 77.5035 87.7785 76.1128 87.7102C74.5089 87.6315 74.3813 87.7777 75.3921 88.536C76.1934 89.1372 76.433 89.4431 76.263 89.6479C75.8461 90.1502 74.0058 90.4661 72.8414 90.2352V90.2352ZM47.2118 90.6926C44.7921 90.2828 44.3334 88.096 46.2431 86.0747C47.72 84.5115 49.3747 84.3611 50.6802 85.6714C53.3426 88.3435 51.2478 91.3762 47.2118 90.6926V90.6926ZM27.6398 26.01C27.6398 25.9421 27.777 25.7065 27.9448 25.4865C28.3643 24.9361 28.5504 24.5519 28.5504 24.2357C28.5504 24.0335 28.6006 23.9556 28.7552 23.9178C33.1089 22.8537 37.4706 22.2298 40.9797 22.1691C62.3558 21.7994 66.8753 21.6587 72.8953 21.1758C74.4968 21.0473 74.5267 21.0544 74.9047 21.6505C75.881 23.19 74.4024 23.7233 69.253 23.6888C61.0273 23.6338 61.5939 23.66 59.4853 23.2359C56.7098 22.6776 55.8391 22.7159 54.9888 23.4338C54.7019 23.676 54.7019 23.676 53.7548 23.3591C51.4019 22.5717 49.0641 22.5566 43.9846 23.2958C42.2317 23.5509 40.2427 23.8003 39.5645 23.85C37.2018 24.0232 34.6313 24.5001 30.6512 25.5037C28.083 26.1514 27.6398 26.2259 27.6398 26.01Z" fill="#83D2FF"/>
<path d="M64.3362 127.936C52.4284 127.279 46.5095 126.278 40.6404 123.929C38.2458 122.971 38.2881 122.999 38.0383 122.199C36.6175 117.649 34.7924 110.195 33.3261 102.955C32.4725 98.741 32.1601 97.34 30.5415 90.4655C26.5304 73.4299 25.328 64.6962 26.9937 64.6962C27.388 64.6962 27.5042 65.0333 28.2327 68.293C31.1685 81.4292 34.3915 93.5024 37.0144 101.189C37.7571 103.366 37.6453 103.201 38.3409 103.145C39.0788 103.086 39.0727 103.073 38.6965 103.926C38.0293 105.439 38.4425 106.471 40.4407 108.281C41.5654 109.301 41.5617 109.418 40.4099 109.25C39.498 109.117 39.5128 109.102 39.7402 109.921C39.8424 110.288 40.1338 111.532 40.3879 112.684C42.0843 120.376 43.6191 122.905 47.0155 123.604C57.1376 125.688 69.8397 126.037 85.5526 124.663C91.0081 124.185 96.0134 121.986 97.2521 119.523C97.5252 118.98 97.5132 118.957 96.9124 118.882C95.9707 118.765 95.9833 118.694 97.0258 118.245C98.5841 117.574 99.0685 117.061 99.0864 116.065C99.0946 115.613 99.1838 115.144 99.3767 114.542C99.9898 112.628 100.134 110.792 99.9586 107.129C99.8252 104.341 99.8588 103.218 100.112 101.982C100.544 99.876 100.76 97.9903 101.174 92.6964C101.301 91.0688 101.524 88.8356 101.67 87.7338C101.949 85.6231 102.085 84.0731 102.169 82.0427C102.406 76.3206 102.58 74.2776 103 72.2605C103.114 71.7127 103.19 71.5676 103.576 71.1587C104.428 70.258 104.399 69.789 103.399 68.2718C102.213 66.4734 102.213 65.8284 103.399 64.5325C103.95 63.9293 103.983 62.8585 103.585 58.373C103.29 55.0477 103.288 52.885 103.581 52.8145C103.706 52.7844 103.857 52.6625 103.916 52.5435C103.975 52.4245 104.088 52.2911 104.167 52.247C104.267 52.1912 104.31 52.0322 104.31 51.7249C104.31 51.3159 104.331 51.276 104.584 51.1879C104.734 51.1355 104.857 51.0282 104.857 50.9494C104.857 50.8706 104.954 50.7618 105.073 50.7076C105.333 50.5892 105.542 50.024 105.466 49.6451C105.411 49.3694 105.529 48.8507 105.843 47.9872C105.988 47.5882 106.038 47.144 106.088 45.8018C106.157 43.9617 106.221 43.3748 106.466 42.3416C106.662 41.5131 106.667 35.9873 106.473 33.8278C106.353 32.48 103.866 31.9738 102.025 32.9223C101.721 33.0788 94.3487 33.9527 88.6485 34.5079C82.8981 35.068 75.6464 35.6002 71.7119 35.7509C70.8354 35.7845 70.0413 35.8396 69.9472 35.8734C69.8531 35.9072 69.5663 35.8768 69.3098 35.8059C68.4533 35.5692 68.1194 35.5272 67.5004 35.5787C66.9143 35.6274 66.8858 35.6206 66.8858 35.4316C66.8858 35.1306 67.7599 35.1731 52.5898 34.7366C38.7406 34.3382 30.3586 33.8706 23.1327 33.0934C19.3006 32.6812 19.3456 32.6788 19.7151 33.2767C19.971 33.6907 20.4438 34.0959 20.9996 34.3775C21.5482 34.6555 21.5195 34.7426 20.8518 34.826C20.195 34.9081 20.2024 34.864 20.5348 36.7112C21.7329 43.369 23.537 44.8919 27.2839 42.4085C28.5248 41.5861 34.0763 40.6224 39.9783 40.2049C43.6731 39.9435 49.7879 39.7105 49.6625 39.8358C49.5381 39.9602 46.0843 40.379 41.0255 40.8831C36.6038 41.3237 33.7793 41.7186 31.7832 42.1754C31.3324 42.2786 30.6084 42.3947 30.1742 42.4335C24.8669 42.9078 22.8437 48.8683 27.8582 49.2566C28.4143 49.2996 28.9308 49.3593 29.0059 49.3891C29.081 49.419 29.6819 49.5426 30.3411 49.664C32.0376 49.9762 32.2131 50.1054 31.4089 50.4501C30.9193 50.6599 30.9193 50.6586 31.3962 50.9664C32.0095 51.3623 31.6083 51.3287 29.9606 50.846C25.3628 49.4991 24.3822 49.4003 25.5106 50.3976C26.0432 50.8684 26.016 50.9389 25.3743 50.7508C25.0393 50.6526 24.8616 50.6381 24.796 50.7038C24.6957 50.804 24.9292 52.6129 25.5912 56.8653C25.817 58.3155 24.9632 56.1678 24.6302 54.4478C23.5915 49.0836 21.9488 43.9727 21.4979 44.7023C21.2881 45.0417 21.8973 48.1572 22.8181 51.4538C23.7563 54.813 24.1799 56.8905 24.1799 58.1332C24.1799 60.2094 22.15 52.076 21.1818 46.1205C20.9782 44.8685 20.5884 42.4714 20.3156 40.7937C19.7302 37.1943 19.3092 35.0523 18.7588 32.8717C18.2259 30.7607 18.2488 30.8406 18.1372 30.6987C17.7743 30.2372 18.1622 28.9686 18.9371 28.0829C20.8151 25.936 25.6368 24.5783 25.6368 26.1963C25.6368 26.9099 24.6141 27.3987 21.949 27.9588C19.4506 28.4839 19.2306 28.9224 20.7048 30.4386C21.1801 30.9275 21.3748 31.001 23.6335 31.5443C28.1689 32.6352 32.8258 33.1096 41.1166 33.3253C43.0948 33.3767 46.0655 33.4607 47.7182 33.512C56.2512 33.7765 65.8631 33.8583 68.6159 33.6899C72.1211 33.4755 72.7769 33.4689 73.1652 33.644C73.4808 33.7864 73.5798 33.7928 73.9329 33.694C74.1558 33.6315 74.3887 33.6117 74.4505 33.6499C74.5123 33.6881 74.9355 33.7533 75.391 33.7947C75.8465 33.8362 76.4123 33.8953 76.6482 33.9261C77.0906 33.9839 77.7884 33.7962 78.0959 33.5366C78.2118 33.4387 78.2977 33.4348 78.5057 33.5177C79.0205 33.7229 85.3104 33.6585 87.3738 33.4269C93.3333 32.758 100.38 31.1325 102.724 29.8859C102.999 29.7399 104.806 29.3015 105.995 29.0923C107.354 28.8534 107.724 28.7669 108.209 28.5754C108.568 28.4335 108.719 28.4107 108.795 28.4871C109.048 28.7399 109.096 33.9113 108.862 35.5579C108.812 35.9084 108.688 36.8714 108.587 37.6977C108.486 38.5241 108.221 40.1016 107.998 41.2034C107.66 42.8701 107.156 45.8474 106.989 47.1677C106.246 53.0205 105.728 59.4228 105.177 69.5223C104.503 81.8981 104.258 85.3989 103.632 91.6492C103.512 92.8512 103.387 94.2649 103.355 94.7907C103.129 98.48 102.505 103.651 101.484 110.29C101.18 112.262 101.123 112.854 101.123 114.043C101.123 120.356 98.8486 123.83 94.2905 124.476C93.9176 124.529 93.2282 124.695 92.7585 124.846C87.8682 126.412 80.7285 127.4 72.0761 127.707C71.2498 127.736 70.1024 127.798 69.5265 127.844C68.0068 127.967 65.6466 128.009 64.3362 127.936ZM64.032 126.746C64.9549 126.396 63.4802 126.123 59.1421 125.841C58.3637 125.791 57.0237 125.669 56.1643 125.571C52.3943 125.14 50.0435 125.131 50.8285 125.551C52.1298 126.248 62.8026 127.214 64.032 126.746V126.746ZM42.3003 122.107C42.3003 120.512 39.2241 110.418 38.1451 108.472C36.9515 106.319 38.0836 113.003 39.5988 117.054C40.7699 120.185 42.3003 123.048 42.3003 122.107ZM39.4884 121.157C39.5309 119 39.2773 117.817 37.789 113.23C36.7461 110.015 36.47 109.046 36.198 107.642C35.959 106.409 35.8391 106.276 35.3936 106.75C34.7919 107.391 34.9089 108.401 36.0139 112.107C36.6661 114.293 36.863 115.106 36.9704 116.053C37.1506 117.641 38.421 121.117 39.0943 121.864C39.3209 122.115 39.475 121.839 39.4884 121.157V121.157ZM35.2336 105.027C35.6121 104.041 35.1142 100.849 33.9087 96.533C33.1065 93.6607 32.8227 92.5148 32.6102 91.2893C32.3796 89.9601 31.6988 88.7325 31.5144 89.3136C31.4131 89.6326 32.6066 96.3492 33.0539 97.9777C33.1296 98.2532 33.2973 99.3186 33.4265 100.345C33.8781 103.932 34.7685 106.239 35.2336 105.027V105.027ZM55.5947 113.486C54.6709 113.416 52.4976 113.052 50.2678 112.594C47.44 112.013 46.4053 111.847 44.7133 111.701C43.4385 111.591 43.4385 111.591 43.4118 111.318C43.3207 110.388 44.2861 110.386 47.3998 111.309C49.766 112.009 50.4493 112.178 51.1784 112.24C51.529 112.27 52.1231 112.372 52.4987 112.467C53.2306 112.653 54.9829 112.902 57.1882 113.134C59.0917 113.334 59.3272 113.374 59.1004 113.464C58.9244 113.533 56.4297 113.549 55.5947 113.486V113.486ZM63.8354 109.346C62.6818 108.75 62.294 107.927 62.0172 105.488C61.805 103.618 61.6265 103.03 61.0908 102.437C60.6885 101.992 60.0324 101.638 59.4647 101.56C57.4318 101.282 58.737 98.1958 62.0598 95.4247C62.6858 94.9026 63.4695 94.2218 63.8013 93.9119C64.5091 93.2507 64.7235 93.1903 66.294 93.2094C70.2075 93.2571 74.3069 96.4357 75.6222 100.442C75.9751 101.517 75.9934 101.49 74.0598 102.744C71.8877 104.153 71.4107 105.033 71.81 106.895C72.2122 108.77 70.8204 109.578 68.4338 108.855C66.7408 108.342 65.343 108.503 64.7709 109.277C64.5408 109.588 64.3344 109.604 63.8354 109.346V109.346ZM69.8639 108.311C72.407 107.248 71.5627 101.804 68.9314 102.298C67.4042 102.584 67.1452 107.188 68.6025 108.143C69.0753 108.453 69.4153 108.498 69.8639 108.311ZM65.2435 107.888C66.9426 107.159 67.2487 103.679 65.7309 102.346C64.9997 101.704 63.8015 102.736 63.5644 104.211C63.5399 104.364 63.4372 104.987 63.3362 105.596C62.9351 108.014 63.466 108.652 65.2435 107.888V107.888ZM62.6332 101.627C64.187 100.779 65.5555 100.721 68.8605 101.36C72.1647 102 74.4427 101.728 74.3692 100.702C74.2935 99.6468 73.8381 98.5488 73.2689 98.049C72.177 97.0902 71.2618 97.0492 66.7037 97.7544C64.8725 98.0377 63.0068 97.9196 62.127 97.4646C61.578 97.1807 60.2437 97.8358 59.7558 98.6287C58.6448 100.434 60.7664 102.645 62.6332 101.627V101.627ZM52.2788 97.0636C45.4504 95.9899 40.8449 88.1288 44.2062 83.2844C45.2014 81.85 45.585 82.1898 44.913 83.9104C42.0595 91.2158 50.806 98.9275 57.8729 95.337C64.5908 91.924 65.0701 83.9951 58.7679 80.5307C58.3498 80.3009 57.8028 79.9949 57.5524 79.8507C55.4547 78.6427 52.7925 78.8472 47.916 80.5908C46.2587 81.1834 46.2197 81.1625 47.1946 80.2047C50.7436 76.7182 57.8098 77.2174 61.7989 81.2365C68.2793 87.7654 61.7871 98.5586 52.2788 97.0636ZM78.7233 96.3263C71.0926 95.6783 66.0533 88.6741 69.0036 82.8167C73.5946 73.7014 86.6505 75.1195 89.4933 85.0422C91.0967 90.6389 85.1477 96.8718 78.7233 96.3263ZM80.1082 94.7737C87.967 94.9991 91.3682 86.1779 85.5962 80.5402C81.467 76.5071 73.2474 77.7301 70.6266 82.7675C67.8078 88.1855 72.2452 95.2196 78.2225 94.8084C78.7233 94.7739 79.5719 94.7583 80.1082 94.7737ZM72.5574 90.1058C70.6024 89.4948 70.0925 87.3236 71.4211 85.2679C73.1324 82.6202 76.1575 83.2361 77.266 86.4577C77.6574 87.5956 77.5354 87.7346 76.2238 87.6451C74.5741 87.5327 74.2608 87.7757 75.1948 88.4432C76.2957 89.2298 76.4923 89.5691 75.9961 89.8258C75.2545 90.2092 73.3776 90.3621 72.5574 90.1058V90.1058ZM47.8093 90.6972C45.3648 90.458 44.5168 89.1727 45.4938 87.1881C46.6184 84.9037 49.161 84.1609 50.6658 85.6771C53.1235 88.1533 51.472 91.0557 47.8093 90.6972ZM27.6911 26.0512C27.6631 26.006 27.8231 25.7258 28.0466 25.4285C28.4817 24.8498 28.6417 24.5152 28.6417 24.1843C28.6417 23.9867 28.7477 23.9554 30.9409 23.5062C37.1317 22.2382 36.2472 22.3027 51.0418 22.0399C62.3255 21.8395 68.281 21.6147 73.1662 21.2051C74.4952 21.0936 74.8455 21.2539 75.0697 22.076C75.4377 23.4252 74.3669 23.6329 67.159 23.6098C61.0309 23.5902 62.0062 23.6638 58.2354 22.9368C56.6571 22.6325 55.558 22.7877 55.0115 23.392C54.7913 23.6355 54.7052 23.6327 53.9424 23.3576C52.5777 22.8653 51.6155 22.7288 49.5394 22.7328C47.5502 22.7367 47.3065 22.7615 43.0288 23.3934C42.0021 23.5451 40.6089 23.7124 39.9328 23.7652C36.9988 23.9946 33.957 24.5718 29.3804 25.7674C27.8806 26.1592 27.7694 26.1779 27.6911 26.0512V26.0512Z" fill="#0C0E0E"/>
</svg>
