<svg width="129" height="128" viewBox="0 0 129 128" fill="none" xmlns="http://www.w3.org/2000/svg">
<path d="M125.675 122.783L123.059 120.246C120.58 116.954 117.391 114.062 114.044 111.661C111.375 109.745 105.383 107.157 104.269 104.052L104.064 103.857C105.957 103.643 108.167 102.959 109.914 102.49C112.848 101.704 115.27 101.907 118.3 101.125C119.666 100.735 121.199 100.344 122.199 99.954V99.174C121.199 97.6031 119.772 95.523 118.102 94.101C113.733 90.381 109.061 86.664 104.151 83.564C101.428 81.846 98.1103 80.729 95.2253 79.272C94.2543 78.7811 92.5733 78.526 91.9313 77.71C90.4143 75.778 89.6033 73.328 88.4333 71.077C85.9843 66.36 83.5843 61.209 81.4143 56.246C79.9343 52.862 78.9713 49.526 77.1253 46.49C68.2653 31.923 58.7303 23.132 43.9583 14.49C40.8133 12.652 37.0293 11.927 33.0293 10.977C30.8853 10.848 28.7383 10.717 26.5923 10.586C25.2813 10.04 23.9183 8.43704 22.6903 7.65904C17.7943 4.56704 5.24134 -2.15796 1.61634 6.68404C-0.672664 12.265 5.03634 17.709 7.07834 20.538C8.51334 22.52 10.3483 24.745 11.3713 26.976C12.0463 28.443 12.1613 29.914 12.7383 31.465C14.1563 35.287 15.3893 39.445 17.2253 42.976C18.1523 44.764 19.1743 46.646 20.3473 48.244C21.0653 49.225 22.2973 49.657 22.4923 51.171C21.2883 52.857 21.2193 55.475 20.5423 57.611C17.4923 67.226 18.6443 79.178 23.0793 86.294C24.4393 88.48 27.6453 93.165 32.0543 91.367C35.9103 89.797 35.2803 84.929 36.3833 80.635C36.6323 79.663 36.1983 78.947 37.1983 78.294V78.489C38.2215 80.8628 39.316 83.2052 40.4803 85.513C43.0803 89.7 47.3693 94.075 51.2783 97.027C53.3053 98.558 55.1983 101.204 57.1983 102.1V101.999H57.4193C56.9123 100.999 56.1173 100.832 55.4693 100.195C53.9423 98.699 52.2433 96.813 50.9823 95.098C47.4263 90.271 44.2843 84.976 41.4213 79.476C40.0533 76.85 38.8643 73.947 37.7123 71.275C37.2693 70.245 37.2743 68.683 36.3483 68.15C35.0853 70.108 33.2263 71.69 32.2493 74.003C30.6883 77.699 30.4873 82.207 29.9083 86.88C29.5653 87.002 29.7183 86.918 29.5173 87.074C26.7993 86.419 25.8453 83.622 24.8343 81.221C22.2793 75.151 21.8053 65.378 24.0533 58.392C24.6353 56.583 27.2643 50.891 26.1993 49.22C25.6913 47.555 24.0153 46.59 23.0783 45.317C21.9173 43.743 20.7593 41.671 19.9553 39.853C17.8643 35.122 16.8893 29.809 14.6873 25.025C13.6343 22.738 11.8553 20.423 10.3943 18.391C8.77734 16.138 6.96534 14.479 5.71034 11.756C5.26534 10.788 4.65934 9.23804 5.32034 8.24304C5.53034 7.57204 5.82734 7.29204 6.49134 7.07304C7.62434 6.20004 10.7743 7.36304 11.9543 7.85204C15.0833 9.15204 17.6953 10.352 20.3463 12.108C21.6173 12.952 22.9053 13.998 24.4433 14.998H26.1993C28.9463 14.998 32.0233 15.23 34.5903 16.01C39.1253 17.389 43.1903 19.552 46.8823 21.883C58.1283 28.985 67.3233 39.103 73.6143 51.161C74.6263 53.103 75.0643 54.96 75.9553 57.019C77.7533 61.172 80.0193 65.447 81.8083 69.508C83.5943 73.5611 85.3343 77.65 87.8583 81.022C89.1853 82.7941 94.3093 83.746 96.6383 84.731C98.2713 85.4201 100.946 86.14 102.492 87.071C105.445 88.853 108.306 90.9751 111.078 92.926C112.462 93.9 116.718 96.04 116.931 97.804C110.068 97.616 104.827 98.256 100.346 100.145C99.0733 100.682 97.0413 100.697 96.8333 102.292C97.5333 103.025 97.6423 104.121 98.1983 105.023C99.2673 106.753 101.074 109.075 102.686 110.291C104.448 111.621 106.262 113.042 108.15 114.193C111.509 116.24 115.257 117.41 118.491 119.461C120.397 120.671 122.449 122.194 124.306 123.558C125.226 124.233 125.197 125.282 127.197 125.705V125.511C126.198 124.716 126.251 123.618 125.675 122.783ZM29.7123 23.465C28.2813 23.438 27.1983 23.622 26.1983 23.854V24H26.3963C27.0793 25 28.2843 26.33 29.1273 27.538L31.0793 31.646L31.2723 31.459C32.4813 30.606 33.0353 29.248 33.0283 27.168C32.5453 26.659 32.4723 26.022 32.0543 25.414C31.4963 24.605 30.4153 24.146 29.7123 23.465Z" fill="#83D2FF"/>
</svg>
