<svg width="128" height="128" viewBox="0 0 128 128" fill="none" xmlns="http://www.w3.org/2000/svg">
<path d="M127.477 72.1265C131.956 37.0609 107.192 5.00263 72.1905 0.523441C37.1888 -3.95575 5.00263 20.8078 0.523441 55.8095C-3.95575 90.8112 20.8078 122.933 55.8095 127.477C90.8752 131.956 122.933 107.192 127.477 72.1265Z" fill="#83D2FF"/>
<path d="M87.0982 41.092L60.0951 68.0951L52.4805 60.4805C79.0357 33.9253 81.6592 36.2289 87.0982 41.092Z" fill="white"/>
<path d="M60.0958 68.735C59.9039 68.735 59.7759 68.671 59.6479 68.5431L51.9693 60.9284C51.7134 60.6725 51.7134 60.2885 51.9693 60.0326C78.9724 33.0294 81.7879 35.589 87.4829 40.7081C87.6109 40.836 87.6749 40.964 87.6749 41.156C87.6749 41.3479 87.6109 41.4759 87.4829 41.6039L60.4798 68.5431C60.4158 68.671 60.2238 68.735 60.0958 68.735ZM53.3771 60.4805L60.0958 67.1993L86.1392 41.156C81.404 36.9327 78.2046 35.653 53.3771 60.4805Z" fill="#83D2FF"/>
<path d="M67.8391 75.8379L60.4805 68.4792L87.4836 41.4761C94.7143 48.7708 83.9002 60.6086 67.8391 75.8379Z" fill="white"/>
<path d="M67.8389 76.4778C67.6469 76.4778 67.5189 76.4138 67.391 76.2858L60.0323 68.9271C59.9043 68.7991 59.9043 68.6712 59.9043 68.4792C59.9043 68.2872 59.9683 68.1593 60.0963 68.0313L87.0994 41.0281C87.3554 40.7722 87.7393 40.7722 87.9952 41.0281C89.6589 42.5639 90.5548 44.7395 90.4908 46.9791C90.3628 54.0818 82.3003 63.1042 68.3508 76.2858C68.1588 76.4138 67.9668 76.4778 67.8389 76.4778ZM61.376 68.4792C65.4713 72.6384 67.199 74.3022 67.8389 74.942C78.5889 64.7039 89.0191 54.2098 89.083 46.9791C89.147 45.3154 88.5071 43.6517 87.4193 42.3719L61.376 68.4792Z" fill="#83D2FF"/>
<path d="M52.6091 60.6725L58.0482 66.1116C58.1761 66.2395 58.1761 66.3675 58.0482 66.4955C57.9842 66.5595 57.9842 66.5595 57.9202 66.5595L46.6582 68.991C46.0823 69.055 45.5704 68.6711 45.4424 68.0952C45.3784 67.7753 45.5064 67.4553 45.6984 67.2634L52.2252 60.7365C52.3532 60.6086 52.5451 60.5446 52.6091 60.6725Z" fill="white"/>
<path d="M46.4664 69.6309C45.5066 69.6309 44.8027 68.863 44.8027 67.9032C44.8027 67.4553 44.9947 67.0074 45.3146 66.6874L51.8415 60.1606C52.2254 59.8407 52.7373 59.8407 53.1212 60.1606L58.5603 65.5996C58.9442 65.9196 58.9442 66.4955 58.5603 66.8794C58.4323 67.0074 58.3043 67.0714 58.1123 67.1354L46.8504 69.5669C46.7224 69.5669 46.5944 69.6309 46.4664 69.6309ZM52.4174 61.3764L46.1465 67.6473C46.0185 67.7752 45.9545 67.9672 46.0825 68.1592C46.1465 68.3511 46.3385 68.4151 46.5304 68.3511L57.0885 66.0476L52.4174 61.3764Z" fill="#83D2FF"/>
<path d="M101.369 26.1188C97.2741 22.1515 90.6833 22.2795 86.716 26.4387C82.7487 30.598 82.8767 37.1248 87.0359 41.0921C90.4273 44.3555 95.5464 44.9314 99.5777 42.4998L92.283 35.2052L101.369 26.1188Z" fill="white"/>
<path d="M94.2013 44.6114C88.1224 44.6114 83.1953 39.6843 83.1953 33.6054C83.1953 27.5265 88.1224 22.5994 94.2013 22.5994C97.0168 22.5994 99.7683 23.6872 101.816 25.6708C101.944 25.7988 102.008 25.9268 102.008 26.1187C102.008 26.3107 101.944 26.4387 101.816 26.5667L93.1775 35.2051L99.9603 41.9879C100.216 42.2438 100.216 42.6278 99.9603 42.8837C99.8963 42.9477 99.8963 42.9477 99.8323 43.0117C98.1686 44.0355 96.185 44.6114 94.2013 44.6114ZM94.2013 23.9431C88.8263 23.9431 84.4751 28.2943 84.5391 33.6694C84.5391 39.0444 88.8903 43.3956 94.2653 43.3316C95.7371 43.3316 97.2088 43.0117 98.5525 42.3078L91.8338 35.653C91.7058 35.525 91.6418 35.3971 91.6418 35.2051C91.6418 35.0131 91.7058 34.8852 91.8338 34.7572L100.408 26.1827C98.6805 24.711 96.5049 23.9431 94.2013 23.9431Z" fill="#83D2FF"/>
<path d="M101.56 26.3106L101.432 26.1826L92.2812 35.205L99.512 42.4357C100.216 41.9878 100.92 41.4759 101.496 40.9C105.591 36.8687 105.591 30.3419 101.56 26.3106Z" fill="white"/>
<path d="M99.5771 43.1396C99.3852 43.1396 99.2572 43.0756 99.1292 42.9476L91.8345 35.6529C91.7066 35.5249 91.6426 35.397 91.6426 35.205C91.6426 35.013 91.7066 34.8851 91.8345 34.7571L100.921 25.6707C101.177 25.4148 101.561 25.4148 101.817 25.6707L102.009 25.7987C106.296 30.0859 106.296 36.9967 102.073 41.3479C101.433 41.9878 100.729 42.5637 99.9611 43.0116C99.7691 43.0756 99.6411 43.1396 99.5771 43.1396ZM93.1783 35.205L99.6411 41.6678C100.153 41.3479 100.665 40.9 101.049 40.516C104.696 36.8687 104.888 30.9178 101.369 27.0785L93.1783 35.205Z" fill="#83D2FF"/>
<path d="M88.1867 42.2438C86.651 40.7081 84.1555 40.7081 82.6197 42.2438L58.4961 66.3675L62.5274 70.3988L88.0588 48.0028C89.7225 46.5951 89.8504 44.0995 88.4427 42.4358C88.3147 42.3718 88.2507 42.3078 88.1867 42.2438Z" fill="white"/>
<path d="M62.4641 71.0386C62.2722 71.0386 62.1442 70.9746 62.0162 70.8467L57.9849 66.8154C57.729 66.5594 57.729 66.1755 57.9849 65.9196L82.1086 41.7959C83.9003 40.0042 86.7797 40.0042 88.5714 41.7959C90.3631 43.5876 90.3631 46.4671 88.5714 48.2587C88.5074 48.3227 88.4434 48.3867 88.3795 48.4507L62.8481 70.8467C62.7841 70.9746 62.6561 71.0386 62.4641 71.0386ZM59.3927 66.3675L62.5281 69.5029L87.6116 47.4909C89.0193 46.3391 89.1473 44.2275 87.9955 42.8197C86.8437 41.412 84.7321 41.284 83.3244 42.4358C83.2604 42.4998 83.1964 42.5638 83.0684 42.6278L59.3927 66.3675Z" fill="#83D2FF"/>
<path d="M40.0027 93.8185C39.7467 93.9465 39.6187 94.2024 39.6827 94.4584L40.7705 99.0655C41.0265 99.7054 40.6425 100.473 39.9387 100.665C39.4268 100.857 38.8509 100.665 38.5309 100.281L31.4922 93.3066L54.464 70.3347L62.3986 70.4627L67.7736 75.8377C66.4939 76.9255 58.7513 84.4122 40.0027 93.8185Z" fill="white"/>
<path d="M39.4909 101.305C38.979 101.305 38.4671 101.113 38.1472 100.729L31.1724 93.7545C31.0445 93.6265 30.9805 93.4985 30.9805 93.3066C30.9805 93.1146 31.0445 92.9866 31.1724 92.8587L54.1443 69.8868C54.2723 69.7588 54.4642 69.6948 54.5922 69.6948L62.5268 69.8228C62.7188 69.8228 62.8467 69.8868 62.9747 70.0148L68.3497 75.3898C68.4777 75.5178 68.5417 75.7097 68.5417 75.9017C68.5417 76.0937 68.4777 76.2216 68.2857 76.3496L67.8378 76.7336C61.0551 82.6845 51.8407 88.6354 40.3868 94.3304L41.4746 98.8736C41.6665 99.7054 41.2826 100.601 40.5148 101.049C40.1308 101.241 39.8109 101.305 39.4909 101.305ZM32.4522 93.3066L39.043 99.8334C39.235 100.153 39.6189 100.281 39.9389 100.089C40.2588 99.8974 40.3868 99.5134 40.1948 99.1935L39.107 94.5863C38.979 94.0104 39.235 93.4985 39.7469 93.2426C51.0728 87.5476 60.2232 81.6607 66.942 75.8377L62.2068 71.1026L54.8482 70.9746L32.4522 93.3066Z" fill="#83D2FF"/>
<path d="M26.0539 98.8096L31.5569 93.3066L39.7475 101.497L26.6938 100.601C26.1179 100.537 25.734 100.025 25.798 99.4495C25.798 99.1936 25.862 98.9376 26.0539 98.8096Z" fill="white"/>
<path d="M39.7476 102.073L26.63 101.177C25.6701 101.113 25.0303 100.281 25.0942 99.3216C25.1582 98.9376 25.2862 98.5537 25.6062 98.2978L31.1092 92.7947C31.3651 92.5388 31.749 92.5388 32.005 92.7947L40.1955 100.985C40.3875 101.177 40.4515 101.433 40.3235 101.689C40.1955 101.945 40.0036 102.073 39.7476 102.073ZM31.5571 94.2025L26.502 99.2576C26.31 99.3856 26.31 99.7055 26.502 99.8335C26.566 99.8975 26.63 99.9615 26.7579 99.9615L38.0839 100.729L31.5571 94.2025Z" fill="#83D2FF"/>
<path d="M52.2258 73.2782C51.8419 73.2782 51.5859 72.9582 51.5859 72.6383C51.5859 72.4463 51.6499 72.3183 51.7779 72.1904L57.9848 65.9835C58.2407 65.7275 58.6247 65.7275 58.8806 65.9835L62.9119 70.0147C63.1039 70.2067 63.1679 70.3987 63.1039 70.6546C63.0399 70.8466 62.8479 71.0386 62.592 71.1025L52.3538 73.2782C52.2898 73.2782 52.2258 73.2782 52.2258 73.2782ZM58.4327 67.3272L54.2095 71.5505L61.1202 70.0787L58.4327 67.3272Z" fill="#83D2FF"/>
<path d="M62.3991 70.4627L55.3604 71.9984C54.8485 72.1264 54.3366 71.8064 54.2086 71.2945C54.1446 70.9746 54.2086 70.6546 54.4646 70.3987L58.3679 66.4954L62.3991 70.4627Z" fill="white"/>
<path d="M55.2325 72.6383C54.3367 72.6383 53.6328 71.9344 53.6328 71.0386C53.6328 70.5906 53.8248 70.2067 54.0807 69.8868L57.984 65.9835C58.24 65.7275 58.6239 65.7275 58.8799 65.9835L62.9111 70.0147C63.1031 70.2067 63.1671 70.3987 63.1031 70.6546C63.0391 70.8466 62.8472 71.0386 62.5912 71.1025L55.5525 72.6383C55.4245 72.6383 55.2965 72.6383 55.2325 72.6383ZM58.4319 67.3272L54.9766 70.7826C54.8486 70.9106 54.8486 71.0386 54.9126 71.1665C54.9766 71.2945 55.1045 71.3585 55.2965 71.3585L61.1835 70.0787L58.4319 67.3272Z" fill="#83D2FF"/>
<path d="M101.624 32.4537C101.496 32.0698 101.048 31.8778 100.664 32.0058C100.28 32.1338 100.088 32.5817 100.216 32.9656C100.216 33.0296 100.28 33.0936 100.28 33.1576C100.664 33.9254 100.536 34.8853 100.024 35.5891C99.7683 35.9091 99.8323 36.357 100.088 36.613C100.408 36.8689 100.856 36.8049 101.112 36.485C102.072 35.2692 102.264 33.7335 101.624 32.4537Z" fill="#83D2FF"/>
</svg>
