<svg width="128" height="128" viewBox="0 0 128 128" fill="none" xmlns="http://www.w3.org/2000/svg">
<path d="M49.329 62H78.488C86.605 62 92.999 55.132 92.999 46.981V19.183C92.999 11.271 86.367 5.32701 78.444 4.00701C73.43 3.17201 68.249 2.79201 63.257 2.81601C58.267 2.83901 53.645 3.26401 49.452 4.00701C37.097 6.18801 34.999 10.758 34.999 19.183V30H63.999V34H23.775C15.291 34 7.86104 39.108 5.53804 48.811C2.85704 59.931 2.73804 66.73 5.53804 78.341C7.61304 86.983 12.568 93 21.053 93H30.999V79.952C30.999 70.315 39.427 62 49.329 62ZM47.491 22.89C44.465 22.89 42.013 20.411 42.013 17.345C42.013 14.266 44.464 11.764 47.491 11.764C50.506 11.764 52.97 14.266 52.97 17.345C52.969 20.411 50.505 22.89 47.491 22.89ZM122.28 48.811C120.182 40.363 116.177 34 107.681 34H96.999V46.981C96.999 57.031 88.205 65 78.488 65H49.329C41.341 65 34.999 72.326 34.999 80.326V108.126C34.999 116.036 41.744 120.69 49.461 122.96C58.703 125.677 67.455 126.168 78.512 122.96C85.861 120.831 92.999 116.549 92.999 108.126V97H63.999V93H107.681C116.165 93 119.328 87.224 122.28 78.34C125.327 69.195 125.196 60.541 122.28 48.811ZM80.325 104.417C83.352 104.417 85.804 106.896 85.804 109.964C85.804 113.04 83.353 115.543 80.325 115.543C77.31 115.543 74.847 113.041 74.847 109.964C74.847 106.896 77.31 104.417 80.325 104.417Z" fill="#83D2FF"/>
</svg>
