<svg width="128" height="128" viewBox="0 0 128 128" fill="none" xmlns="http://www.w3.org/2000/svg">
<path d="M63.9996 75.4001C70.2957 75.4001 75.3996 70.2961 75.3996 64.0001C75.3996 57.7041 70.2957 52.6001 63.9996 52.6001C57.7036 52.6001 52.5996 57.7041 52.5996 64.0001C52.5996 70.2961 57.7036 75.4001 63.9996 75.4001Z" fill="#83D2FF"/>
<path d="M107.3 45.2001C105.1 44.4001 102.8 43.6001 100.4 42.9001C101 40.5001 101.5 38.1001 101.9 35.8001C104 22.6001 101.7 13.3001 95.3004 9.7001C93.4004 8.6001 91.3004 8.1001 88.9004 8.1001C81.9004 8.1001 73.0004 13.3001 64.0004 22.0001C55.0004 13.3001 46.1004 8.1001 39.1004 8.1001C36.7004 8.1001 34.6004 8.6001 32.7004 9.7001C26.3004 13.4001 24.0004 22.7001 26.1004 35.8001C26.5004 38.1001 27.0004 40.5001 27.6004 42.9001C25.2004 43.6001 22.9004 44.3001 20.7004 45.2001C8.20039 50.0001 1.40039 56.6001 1.40039 64.0001C1.40039 71.4001 8.30039 78.0001 20.7004 82.8001C22.9004 83.6001 25.2004 84.4001 27.6004 85.1001C27.0004 87.5001 26.5004 89.9001 26.1004 92.2001C24.0004 105.4 26.3004 114.7 32.7004 118.3C34.6004 119.4 36.7004 119.9 39.1004 119.9C46.2004 119.9 55.1004 114.7 64.0004 106C73.0004 114.7 81.9004 119.9 88.9004 119.9C91.3004 119.9 93.4004 119.4 95.3004 118.3C101.7 114.6 104 105.3 101.9 92.2001C101.5 89.9001 101 87.5001 100.4 85.1001C102.8 84.4001 105.1 83.7001 107.3 82.8001C119.8 78.0001 126.6 71.4001 126.6 64.0001C126.6 56.6001 119.8 50.0001 107.3 45.2001ZM92.5004 14.7001C96.6004 17.1001 98.0004 24.5001 96.3004 35.0001C96.0004 37.1001 95.5004 39.3001 94.9004 41.6001C89.7004 40.4001 84.2004 39.6001 78.4004 39.1001C75.0004 34.3001 71.5004 30.0001 68.0004 26.1001C75.4004 18.8001 82.9004 13.8001 89.0004 13.8001C90.3004 13.8001 91.5004 14.1001 92.5004 14.7001ZM81.3004 74.0001C79.5004 77.2001 77.4004 80.4001 75.2004 83.6001C71.5004 83.9001 67.8004 84.0001 64.0004 84.0001C60.1004 84.0001 56.4004 83.9001 52.8004 83.6001C50.6004 80.4001 48.6004 77.2001 46.8004 74.0001C44.9004 70.7001 43.1004 67.3001 41.5004 64.0001C43.1004 60.7001 44.9004 57.3001 46.8004 54.0001C48.6004 50.8001 50.7004 47.6001 52.9004 44.4001C56.6004 44.1001 60.3004 44.0001 64.1004 44.0001C68.0004 44.0001 71.7004 44.1001 75.3004 44.4001C77.5004 47.6001 79.5004 50.8001 81.3004 54.0001C83.2004 57.3001 85.0004 60.7001 86.6004 64.0001C84.9004 67.3001 83.2004 70.6001 81.3004 74.0001ZM89.6004 70.7001C91.1004 74.2001 92.3004 77.6001 93.4004 81.0001C90.0004 81.8001 86.4004 82.4001 82.6004 82.9001C83.8004 81.0001 85.1004 79.0001 86.2004 76.9001C87.4004 74.8001 88.5004 72.7001 89.6004 70.7001ZM64.0004 97.8001C61.6004 95.2001 59.3004 92.4001 57.1004 89.5001C59.4004 89.6001 61.7004 89.7001 64.0004 89.7001C66.3004 89.7001 68.6004 89.6001 70.9004 89.5001C68.7004 92.4001 66.4004 95.2001 64.0004 97.8001ZM45.4004 82.8001C41.6004 82.3001 38.0004 81.7001 34.6004 80.9001C35.7004 77.6001 36.9004 74.1001 38.4004 70.6001C39.5004 72.6001 40.6004 74.7001 41.8004 76.7001C43.0004 78.9001 44.2004 80.8001 45.4004 82.8001ZM38.4004 57.3001C36.9004 53.8001 35.7004 50.4001 34.6004 47.0001C38.0004 46.2001 41.6004 45.6001 45.4004 45.1001C44.2004 47.0001 42.9004 49.0001 41.8004 51.1001C40.6004 53.2001 39.5004 55.3001 38.4004 57.3001ZM64.0004 30.2001C66.4004 32.8001 68.7004 35.6001 70.9004 38.5001C68.6004 38.4001 66.3004 38.3001 64.0004 38.3001C61.7004 38.3001 59.4004 38.4001 57.1004 38.5001C59.3004 35.6001 61.6004 32.8001 64.0004 30.2001ZM86.2004 51.2001L82.6004 45.2001C86.4004 45.7001 90.0004 46.3001 93.4004 47.1001C92.3004 50.4001 91.1004 53.9001 89.6004 57.4001C88.5004 55.3001 87.4004 53.2001 86.2004 51.2001ZM31.7004 35.0001C30.0004 24.5001 31.4004 17.1001 35.5004 14.7001C36.5004 14.1001 37.7004 13.8001 39.0004 13.8001C45.0004 13.8001 52.5004 18.7001 60.0004 26.1001C56.5004 29.9001 53.0004 34.3001 49.6004 39.1001C43.8004 39.6001 38.3004 40.5001 33.1004 41.6001C32.5004 39.3001 32.1004 37.1001 31.7004 35.0001ZM7.00039 64.0001C7.00039 59.3001 12.7004 54.3001 22.7004 50.6001C24.7004 49.8001 26.9004 49.1001 29.1004 48.5001C30.7004 53.5001 32.7004 58.8001 35.1004 64.1001C32.7004 69.4001 30.6004 74.6001 29.1004 79.6001C15.3004 75.6001 7.00039 69.6001 7.00039 64.0001ZM35.5004 113.3C31.4004 110.9 30.0004 103.5 31.7004 93.0001C32.0004 90.9001 32.5004 88.7001 33.1004 86.4001C38.3004 87.6001 43.8004 88.4001 49.6004 88.9001C53.0004 93.7001 56.5004 98.0001 60.0004 101.9C52.6004 109.2 45.1004 114.2 39.0004 114.2C37.7004 114.2 36.5004 113.9 35.5004 113.3ZM96.3004 93.0001C98.0004 103.5 96.6004 110.9 92.5004 113.3C91.5004 113.9 90.3004 114.2 89.0004 114.2C83.0004 114.2 75.5004 109.3 68.0004 101.9C71.5004 98.1001 75.0004 93.7001 78.4004 88.9001C84.2004 88.4001 89.7004 87.5001 94.9004 86.4001C95.5004 88.7001 95.9004 90.9001 96.3004 93.0001ZM105.3 77.4001C103.3 78.2001 101.1 78.9001 98.9004 79.5001C97.3004 74.5001 95.3004 69.2001 92.9004 63.9001C95.3004 58.6001 97.4004 53.4001 98.9004 48.4001C112.7 52.4001 121 58.4001 121 64.0001C121 68.7001 115.2 73.7001 105.3 77.4001Z" fill="#83D2FF"/>
</svg>
