<svg width="128" height="128" viewBox="0 0 128 128" fill="none" xmlns="http://www.w3.org/2000/svg">
<path fill-rule="evenodd" clip-rule="evenodd" d="M1.21875 56.156C1.21875 56.859 1.42575 57.323 1.54175 57.774C2.29775 60.707 3.92275 63.224 5.85075 65.52C8.59675 68.792 11.9598 71.426 15.4047 73.903C18.3927 76.051 21.4417 78.151 24.4417 80.283C24.9567 80.649 25.4438 81.07 26.0028 81.519C25.5217 81.779 25.1217 82.008 24.7057 82.219C20.7467 84.227 16.9377 86.478 13.4268 89.205C11.3108 90.849 9.26475 92.596 7.81975 94.879C5.49475 98.551 4.67175 102.463 6.40475 106.64C6.91075 107.86 7.68275 108.914 8.77175 109.693C9.12475 109.945 9.52075 110.195 9.93375 110.293C10.9917 110.542 12.0697 110.705 13.1407 110.902L16.1737 110.9C19.5278 110.601 22.5807 109.452 25.3398 107.548C29.6518 104.572 32.5567 100.582 33.8057 95.461C34.7137 91.739 34.7507 88.013 33.6807 84.308C33.5783 83.9648 33.4602 83.6264 33.3267 83.294C33.1967 82.961 33.0437 82.637 32.8637 82.222L39.7397 78.268L39.8427 78.356C39.7177 78.765 39.5847 79.173 39.4717 79.586C38.6547 82.57 38.1117 85.606 38.3067 88.703C38.5147 92.003 39.4357 95.092 41.3677 97.849C42.9297 100.079 46.6517 100.162 48.3117 97.924C48.9007 97.129 49.4717 96.298 49.9007 95.411C51.0217 93.096 52.0597 90.74 53.1307 88.4L53.3177 87.972C53.2407 89.08 53.1507 90.053 53.1097 91.027C53.0457 92.548 53.1347 94.06 53.6547 95.507C54.0997 96.745 54.8568 97.67 56.2747 97.833C57.2448 97.944 58.0177 97.5 58.7307 96.937C59.8353 96.0641 60.7509 94.9757 61.4217 93.738C63.3228 90.247 65.2747 86.777 66.9977 83.198C68.8617 79.327 70.4917 75.343 72.2227 71.406L72.5088 70.708C72.9177 72.315 73.2027 73.889 73.7277 75.379C74.3377 77.108 75.0928 78.796 75.9147 80.437C76.3037 81.212 76.2588 81.715 75.7197 82.365C73.4638 85.085 71.2467 87.838 69.0277 90.588C68.5368 91.195 68.0477 91.813 67.6387 92.476C67.3906 92.8947 67.2275 93.3582 67.1587 93.84C67.0899 94.2836 67.1955 94.7366 67.4533 95.104C67.7112 95.4715 68.1012 95.7248 68.5417 95.811C69.4308 96.0025 70.3425 96.0675 71.2497 96.004C74.3467 95.776 77.1587 94.689 79.6447 92.847C82.8657 90.461 83.8997 87.205 83.1198 83.346C82.9088 82.299 82.5357 81.281 82.1727 80.272C82.0097 79.817 81.9987 79.498 82.2957 79.074C84.8707 75.397 87.0707 71.496 89.1167 67.505C89.1977 67.348 89.2807 67.191 89.4227 67.023C90.0857 70.473 91.0837 73.798 92.8717 76.815C91.9597 77.694 91.0567 78.491 90.2397 79.369C88.4407 81.303 86.8808 83.403 86.0667 85.964C85.7168 87.068 85.4477 88.19 85.6037 89.369C85.8457 91.2 87.3457 92.39 89.1468 91.973C93.0007 91.081 96.3278 89.265 98.7588 86.048C100.395 83.882 100.544 81.466 99.8587 78.935C99.6707 78.247 99.4477 77.57 99.2077 76.781C100.159 76.486 101.086 76.132 102.045 75.913C107.024 74.777 111.949 74.975 116.747 76.773C119.548 77.823 121.811 79.58 123.153 82.344C124.792 85.723 123.886 88.929 120.701 91.065C120.404 91.264 120.064 91.421 119.818 91.67C119.739 91.7613 119.68 91.8681 119.645 91.9834C119.609 92.0988 119.599 92.2202 119.613 92.34C119.634 92.463 119.959 92.617 120.146 92.615C121.193 92.607 122.042 92.058 122.857 91.494C124.899 90.081 126.389 88.18 126.71 85.677L126.773 85.489L126.696 83.859C126.665 83.765 126.719 83.672 126.712 83.601C126.278 79.956 124.331 77.129 121.499 74.913C118.219 72.348 114.346 71.292 110.25 71.125C106.928 70.982 103.61 71.4927 100.485 72.628C99.5877 72.953 98.6987 73.338 97.7967 73.701C97.6757 73.482 97.5458 73.272 97.4388 73.055C96.5127 71.159 95.3907 69.347 95.1427 67.173C94.9667 65.629 94.7507 64.087 95.1177 62.56C95.4707 61.091 95.9307 59.647 96.3637 58.198C96.5867 57.452 96.4297 57.034 95.7178 56.698C95.4697 56.5743 95.2049 56.4874 94.9317 56.44C93.1817 56.186 91.4557 56.331 89.7607 56.824C89.1608 56.999 88.7248 57.335 88.5918 57.999C88.5158 58.38 88.3607 58.745 88.2527 59.121C87.8097 60.684 87.4958 62.277 86.7797 63.766C84.9857 67.501 82.9378 71.095 80.8418 74.663C80.6148 75.048 80.3757 75.426 80.0897 75.893C79.3537 74.353 78.5687 72.971 78.3307 71.351C78.0618 69.519 77.8497 67.69 78.3057 65.872C78.6447 64.516 79.0878 63.185 79.4958 61.847C79.6888 61.211 79.5997 60.877 79.0238 60.542C78.7327 60.373 78.4037 60.223 78.0757 60.174C76.2813 59.9007 74.4479 60.0507 72.7217 60.612C72.1787 60.788 71.8937 61.139 71.7277 61.699C71.2397 63.351 70.8237 65.043 70.1387 66.614C67.3647 72.974 64.5107 79.301 61.6597 85.627C61.0647 86.948 60.3677 88.223 59.6967 89.509C59.5267 89.835 59.2788 90.122 59.0667 90.428C58.8968 90.227 58.8307 90.089 58.8317 89.951C58.8368 89.138 58.7397 88.301 58.8947 87.515C59.3707 85.1378 59.8968 82.771 60.4727 80.416C60.9427 78.47 61.4897 76.542 62.0107 74.609C62.1857 73.962 62.1887 73.357 61.7237 72.813C60.9427 71.902 59.3107 71.702 58.3427 72.404L57.9147 72.646L57.9977 71.956C58.2017 70.477 58.2427 69.003 57.8368 67.546C57.3307 65.73 56.0347 64.685 54.1507 64.743C53.2728 64.77 52.3507 64.92 51.5377 65.24C48.1187 66.58 45.4897 68.953 43.2517 71.808C43.0443 72.0731 42.7872 72.2952 42.4947 72.462C39.6017 74.066 36.6997 75.65 33.7987 77.24L30.5697 79.009C29.7038 78.183 28.9167 77.326 28.0238 76.599C25.2968 74.375 22.5258 72.206 19.7798 70.007C17.3458 68.058 14.9878 66.028 13.1838 63.447C11.8418 61.527 10.9768 59.426 10.8938 57.052C10.7888 54.027 11.6468 51.263 13.1868 48.69C15.1568 45.398 17.8438 42.756 20.7978 40.363C23.9228 37.833 27.3027 35.685 30.8057 33.724C35.7067 30.981 40.7477 28.553 46.1527 26.95C51.6947 25.306 57.3177 24.365 63.1177 25.021C65.3978 25.279 67.6117 25.801 69.6447 26.916C71.2017 27.769 72.4787 28.886 73.0727 30.632C73.6587 32.35 73.6407 34.091 73.2347 35.836C72.4098 39.37 70.4747 42.283 68.0397 44.886C64.0457 49.153 59.1737 52.058 53.6887 53.977C50.535 55.0818 47.2538 55.7817 43.9237 56.06C41.1947 56.289 38.5227 56.047 35.9387 55.098C34.2277 54.469 32.7378 53.507 31.5398 52.111C31.3258 51.861 31.0518 51.59 30.6528 51.824C30.2617 52.054 30.1927 52.426 30.3237 52.803C30.5427 53.429 30.7448 54.081 31.0858 54.641C31.9428 56.046 33.1927 57.065 34.5687 57.939C37.2118 59.62 40.1657 60.185 43.2287 60.316C47.8767 60.517 52.4117 59.823 56.8827 58.576C63.2657 56.796 68.8158 53.652 73.2667 48.692C76.9727 44.562 79.6197 39.901 80.1867 34.273C80.4637 31.526 80.1688 28.835 78.8828 26.329C77.4878 23.614 75.2697 21.595 72.6177 20.204C68.7557 18.179 64.5877 17 60.2857 17H55.9757C50.7658 17 45.7287 18.493 40.8327 20.274C37.1267 21.623 33.4928 23.215 29.9648 24.977C22.2817 28.816 15.1267 33.445 9.24975 39.81C6.32175 42.981 3.84275 46.48 2.41675 50.6C1.98636 51.8301 1.61559 53.0802 1.30575 54.346L1.21875 56.156ZM29.1448 90.359C28.8118 94.818 26.7908 98.433 23.4878 101.361C21.6298 103.007 19.4988 104.179 17.0168 104.591C16.1168 104.74 15.1958 104.776 14.3228 104.403C13.0778 103.871 12.7987 102.766 12.7747 101.589C12.7378 99.713 13.3947 98.017 14.2957 96.403C15.4717 94.299 17.1958 92.695 19.0368 91.197C21.9368 88.836 25.0828 86.838 28.3048 84.952L28.5478 84.852C29.0457 86.692 29.2828 88.509 29.1448 90.359ZM54.3027 70.98C54.0677 72.404 53.7738 73.829 53.3577 75.209C51.9198 79.986 50.0728 84.615 48.0757 89.182C47.7067 90.027 47.1697 90.798 46.7027 91.599C46.6233 91.7221 46.5282 91.8344 46.4197 91.933C45.8417 92.504 45.2937 92.474 45.0017 91.727C44.6617 90.859 44.4527 89.93 44.2727 89.011C44.1517 88.394 44.1807 87.746 44.1427 87.114C44.1818 82.62 45.5527 78.536 47.8787 74.734C48.8377 73.166 49.8817 71.672 51.4767 70.68C51.9729 70.3715 52.5098 70.1339 53.0717 69.974C53.9217 69.735 54.4437 70.128 54.3027 70.98ZM71.4668 92.848L77.6357 85.645C77.8928 88.32 73.3457 93.66 71.4668 92.848ZM91.1697 88.001C90.7337 88.251 90.2587 88.431 89.8117 88.662C89.4027 88.874 89.2677 88.66 89.2557 88.308C89.2497 88.0643 89.2811 87.8212 89.3487 87.587C90.1817 84.649 91.7148 82.141 93.9958 80.101L94.1557 80.019C95.2407 83.054 93.9867 86.387 91.1697 88.001Z" fill="#83D2FF"/>
</svg>
