<svg width="128" height="128" viewBox="0 0 128 128" fill="none" xmlns="http://www.w3.org/2000/svg">
<path d="M2 63.9099V126.41H127V1.40991H2V63.9099ZM102.73 58.9099C105.724 59.6047 108.445 61.1705 110.55 63.4099C111.709 64.6164 112.716 65.9596 113.55 67.4099C113.55 67.5699 108.15 71.2199 104.86 73.2599C104.74 73.3399 104.26 72.8199 103.73 72.0299C103.129 70.9936 102.276 70.1263 101.25 69.509C100.223 68.8917 99.057 68.5446 97.86 68.4999C94.07 68.2399 91.63 70.2299 91.65 73.4999C91.6187 74.3141 91.8051 75.1218 92.19 75.8399C93.02 77.5699 94.57 78.5999 99.43 80.6999C108.38 84.5499 112.21 87.0899 114.59 90.6999C117.25 94.6999 117.84 101.16 116.04 105.94C114.04 111.14 109.14 114.67 102.21 115.84C99.0448 116.202 95.8468 116.169 92.69 115.74C87.8722 114.958 83.4279 112.664 80 109.19C78.85 107.92 76.61 104.61 76.75 104.37C77.1151 104.099 77.4994 103.855 77.9 103.64L82.5 101L86.09 98.9199L86.84 100.03C88.1057 101.841 89.7166 103.383 91.58 104.57C95.58 106.67 101.04 106.38 103.74 103.95C104.647 103.059 105.212 101.879 105.338 100.615C105.464 99.3504 105.143 98.0818 104.43 97.0299C103.43 95.6399 101.43 94.4699 95.84 92.0299C89.39 89.2499 86.61 87.5299 84.07 84.7899C82.4843 82.9818 81.3136 80.8486 80.64 78.5399C80.1375 75.9024 80.0633 73.2011 80.42 70.5399C81.75 64.3099 86.42 59.9599 93.24 58.6699C96.3984 58.2791 99.5977 58.3668 102.73 58.9299V58.9099ZM73.39 64.1499V69.2699H57.16V115.5H45.65V69.2599H29.38V64.2599C29.3363 62.5387 29.3831 60.8163 29.52 59.0999C29.58 59.0199 39.52 58.9799 51.52 58.9999H73.33L73.39 64.1499Z" fill="#83D2FF"/>
</svg>
