<svg width="128" height="128" viewBox="0 0 128 128" fill="none" xmlns="http://www.w3.org/2000/svg">
<g clip-path="url(#clip0_1861_152)">
<path d="M109.009 28.64L71.2792 6.23999C69.0292 4.90999 66.5092 4.23999 63.9992 4.23999C61.4892 4.23999 58.9692 4.90999 56.7192 6.24999L18.9792 28.65C14.4792 31.32 11.6992 36.26 11.6992 41.61V86.41C11.6992 91.76 14.4692 96.7 18.9792 99.37L56.7092 121.77C58.9592 123.11 61.4692 123.77 63.9892 123.77C66.4992 123.77 69.0192 123.1 71.2692 121.77L109.009 99.37C113.509 96.7 116.289 91.75 116.289 86.41V41.6C116.289 36.26 113.519 31.31 109.009 28.64ZM79.7892 98.59L79.8492 101.81C79.8492 102.2 79.5992 102.64 79.2992 102.8L77.3892 103.9C77.0892 104.05 76.8292 103.87 76.8292 103.48L76.7992 100.31C75.1692 100.99 73.5092 101.15 72.4592 100.73C72.2592 100.65 72.1692 100.36 72.2492 100.02L72.9392 97.11C72.9992 96.88 73.1192 96.65 73.2792 96.51C73.3392 96.45 73.3992 96.41 73.4592 96.38C73.5692 96.32 73.6792 96.31 73.7692 96.35C74.9092 96.73 76.3592 96.55 77.7592 95.85C79.5392 94.95 80.7292 93.13 80.7092 91.33C80.6892 89.69 79.8092 89.02 77.6592 89C74.9192 89.01 72.3592 88.47 72.3192 84.43C72.2892 81.11 74.0092 77.65 76.7492 75.47L76.7192 72.22C76.7192 71.82 76.9592 71.38 77.2692 71.22L79.1192 70.04C79.4192 69.89 79.6792 70.08 79.6792 70.47L79.7092 73.72C81.0692 73.18 82.2492 73.03 83.3192 73.28C83.5492 73.34 83.6592 73.66 83.5592 74.03L82.8392 76.91C82.7792 77.13 82.6592 77.35 82.5092 77.49C82.4535 77.5461 82.3894 77.5934 82.3192 77.63C82.2192 77.68 82.1292 77.69 82.0392 77.68C81.5492 77.57 80.3892 77.32 78.5592 78.24C76.6392 79.21 75.9692 80.88 75.9792 82.12C75.9992 83.6 76.7492 84.05 79.3692 84.09C82.8592 84.15 84.3592 85.67 84.3992 89.18C84.4492 92.62 82.6092 96.33 79.7892 98.59ZM99.5692 93.18C99.5692 93.48 99.5292 93.76 99.2792 93.9L89.7392 99.7C89.4892 99.85 89.2892 99.72 89.2892 99.42V96.96C89.2892 96.66 89.4692 96.5 89.7192 96.35L99.1192 90.73C99.3692 90.58 99.5692 90.71 99.5692 91.01V93.18ZM106.129 38.09L70.4292 60.14C65.9792 62.74 62.6992 65.66 62.6892 71.03V115.02C62.6892 118.23 63.9892 120.31 65.9792 120.92C65.3292 121.03 64.6592 121.11 63.9992 121.11C61.9092 121.11 59.8492 120.54 58.0392 119.47L20.3092 97.07C16.6192 94.88 14.3292 90.79 14.3292 86.4V41.6C14.3292 37.21 16.6192 33.12 20.3092 30.93L58.0492 8.52999C59.8592 7.45999 61.9192 6.88999 64.0092 6.88999C66.0992 6.88999 68.1592 7.45999 69.9692 8.52999L107.709 30.93C110.819 32.78 112.919 35.97 113.509 39.56C112.239 36.89 109.419 36.17 106.129 38.09Z" fill="#83D2FF"/>
</g>
<defs>
<clipPath id="clip0_1861_152">
<rect width="128" height="128" fill="white"/>
</clipPath>
</defs>
</svg>
