<svg width="128" height="128" viewBox="0 0 128 128" fill="none" xmlns="http://www.w3.org/2000/svg">
<path d="M35.2004 34.9001L26.9004 26.6001V86.3001L27.0004 89.1001C27.0004 90.4001 27.2004 91.9001 27.7004 93.4001L93.3004 116.5L109.6 109.3L35.2004 34.9001Z" fill="#83D2FF"/>
<path d="M109.6 109.3L93.3004 116.5L27.9004 93.3999C29.2004 98.1999 31.9004 103.5 34.9004 106.6L56.2004 127.8L103.8 127.9L109.6 109.3Z" fill="#83D2FF"/>
<path d="M1.70086 65.1C-0.399138 67.3 0.700862 72 4.00086 75.5L18.7009 90.3L27.9009 93.6C27.6009 92.1 27.2009 90.6 27.2009 89.3L27.1009 86.5L26.9009 26.7L1.70086 65.1ZM109.601 109.3L116.801 92.9L93.8009 27.3C92.3009 27 90.8009 26.7 89.5009 26.6L86.6009 26.5L27.0009 26.6" fill="#428CB6"/>
<path d="M93.5996 27.3C93.7996 27.3 93.7996 27.3 93.5996 27.3C93.7996 27.3 93.7996 27.3 93.5996 27.3ZM109.6 109.3L127.3 103.5V54.8L106.9 34.3C103.9 31.3 98.5996 28.5 93.6996 27.3L116.8 92.9001" fill="#428CB6"/>
<path d="M90.5004 18.2001L75.7004 3.50008C72.3004 0.100075 67.7004 -0.899924 65.3004 1.20008L26.9004 26.6001H86.4004L89.3004 26.7001C90.6004 26.7001 92.1004 26.9001 93.6004 27.4001L90.5004 18.2001Z" fill="#83D2FF"/>
</svg>
