<svg width="64" height="64" viewBox="0 0 64 64" fill="none" xmlns="http://www.w3.org/2000/svg">
<g clip-path="url(#clip0_2872_593)">
<path d="M32 0.791992C14.32 0.791992 0 15.12 0 32.792C0 46.9333 9.168 58.9253 21.88 63.152C23.48 63.4533 24.0667 62.464 24.0667 61.6133C24.0667 60.8533 24.04 58.84 24.0267 56.1733C15.1253 58.104 13.248 51.88 13.248 51.88C11.792 48.1867 9.688 47.2 9.688 47.2C6.78933 45.216 9.912 45.256 9.912 45.256C13.1253 45.48 14.8133 48.552 14.8133 48.552C17.6667 53.4453 22.304 52.032 24.1333 51.2133C24.4213 49.144 25.2453 47.7333 26.16 46.9333C19.0533 46.1333 11.584 43.3813 11.584 31.12C11.584 27.6267 12.824 24.7733 14.8773 22.5333C14.5173 21.7253 13.4373 18.472 15.1573 14.064C15.1573 14.064 17.8373 13.2053 23.9573 17.344C26.5173 16.632 29.2373 16.28 31.9573 16.264C34.6773 16.28 37.3973 16.632 39.9573 17.344C46.0373 13.2053 48.7173 14.064 48.7173 14.064C50.4373 18.472 49.3573 21.7253 49.0373 22.5333C51.0773 24.7733 52.3173 27.6267 52.3173 31.12C52.3173 43.4133 44.8373 46.12 37.7173 46.9067C38.8373 47.8667 39.8773 49.8293 39.8773 52.8267C39.8773 57.1093 39.8373 60.5493 39.8373 61.5893C39.8373 62.4293 40.3973 63.4293 42.0373 63.1093C54.84 58.912 64 46.912 64 32.792C64 15.12 49.672 0.791992 32 0.791992Z" fill="#F03D4F"/>
</g>
<defs>
<clipPath id="clip0_2872_593">
<rect width="64" height="64" fill="white"/>
</clipPath>
</defs>
</svg>
