<svg width="128" height="128" viewBox="0 0 128 128" fill="none" xmlns="http://www.w3.org/2000/svg">
<path d="M108.2 64.8001C108.1 64.7001 108 64.6 107.8 64.6L107.7 64.5C107.6 64.4001 107.5 64.4001 107.5 64.3001L107.4 64.2C107.3 64.2 107.2 64.1 107.2 64.1L107 64C106.9 64 106.8 63.9001 106.8 63.9001L106.6 63.8C106.5 63.8 106.4 63.7001 106.4 63.7001C106.3 63.7001 106.3 63.7 106.2 63.6L105.9 63.5C105.8 63.5 105.8 63.5 105.7 63.4001L105.4 63.3H105.3L104.9 63.2001H104.7C104.6 63.2001 104.5 63.2 104.4 63.1H102.1C101.5 49.8 102.7 36.3 99.2996 23.5C112.2 18.9 102.1 1.20005 90.8996 9.10005C83.4996 2.70005 73.2996 1.30005 62.5996 1.30005C52.0996 2.00005 42.1996 4.20005 35.1996 9.70005C32.3996 8.30005 29.6996 7.90005 27.2996 8.60005V8.70005C27.1996 8.70005 26.9996 8.80005 26.8996 8.90005C26.7996 8.90005 26.5996 9.00005 26.4996 9.10005H26.3996C26.2996 9.10005 26.1996 9.20005 25.9996 9.30005H25.8996L25.5996 9.50005H25.4996L25.1996 9.70005H25.0996L24.7996 9.90005C24.7996 9.90005 24.6996 9.90005 24.6996 10L24.3996 10.2C24.3996 10.2 24.2996 10.2 24.2996 10.3L23.9996 10.5C23.9996 10.5 23.8996 10.5 23.8996 10.6L23.5996 10.8L23.4996 10.9C23.3996 11 23.2996 11 23.2996 11.1L23.1996 11.2L22.9996 11.4L22.8996 11.5C22.7996 11.6 22.7996 11.7 22.6996 11.7L22.5996 11.8C22.4996 11.9 22.4996 12 22.3996 12L22.2996 12.1C22.1996 12.2 22.1996 12.3 22.0996 12.3L21.9996 12.4C21.8996 12.5 21.8996 12.6 21.7996 12.6L21.6996 12.7C21.5996 12.8 21.5996 12.9 21.4996 12.9L21.3996 13L21.2996 13.3C21.2996 13.3 21.2996 13.4 21.1996 13.4L21.0996 13.7C21.0996 13.7 21.0996 13.8 20.9996 13.8L20.8996 14.1C20.8996 14.1 20.8996 14.2 20.7996 14.2L20.6996 14.5C20.6996 14.5 20.6996 14.6 20.5996 14.6C20.9996 14.9 20.9996 15 20.9996 15V15.1L20.8996 15.4V15.5C20.8996 15.6 20.8996 15.7 20.7996 15.8V18.9C20.7996 19 20.7996 19.1 20.8996 19.2001V19.3L20.9996 19.6V19.7001L21.0996 20C21.0996 20 21.0996 20.1 21.1996 20.1L21.2996 20.4C21.2996 20.4 21.2996 20.5 21.3996 20.5L21.4996 20.8C21.4996 20.8 21.4996 20.9 21.5996 20.9L21.7996 21.2001C21.7996 21.2001 21.7996 21.3 21.8996 21.3L22.0996 21.6C22.0996 21.6 22.0996 21.7001 22.1996 21.7001L22.3996 22L22.4996 22.1L22.7996 22.4L23.0996 22.7001H23.1996C24.1996 23.6 25.1996 24.3 27.1996 24.9V24.7001C22.9996 37.3 26.4996 50 26.6996 63C26.0996 63 25.9996 63.4001 24.9996 63.5H24.4996C24.3996 63.5 24.1996 63.5 23.9996 63.6C23.8996 63.6 23.6996 63.6001 23.5996 63.7001L23.1996 63.8H23.0996L22.6996 63.9001H22.5996L22.2996 64H22.1996L21.8996 64.1C21.8996 64.1 21.7996 64.1 21.7996 64.2L21.4996 64.3001L21.2996 64.4001C21.1996 64.4001 21.0996 64.5 21.0996 64.5L20.8996 64.6L20.6996 64.7C20.5996 64.7 20.4996 64.8001 20.4996 64.8001L20.2996 64.9001L19.8996 65.2C19.7996 65.3 19.6996 65.4 19.5996 65.4L19.1996 65.8L19.0996 65.9C18.9996 66.1 18.7996 66.3 18.6996 66.4L18.4996 66.7L18.1996 67.3L18.0996 67.6V67.9C18.0996 68.4 18.2996 68.8 18.9996 69.1C19.1996 72.8 22.8996 71.1 24.5996 69.9L24.6996 69.8C24.8996 69.6001 25.1996 69.5 25.2996 69.5H25.3996L25.5996 69.4C25.6996 69.4 25.6996 69.4 25.7996 69.3C25.9996 69.2001 26.1996 69.2 26.2996 69.1C26.3996 69.1 26.3996 69 26.3996 68.9L26.4996 68.8C26.5996 68.6001 26.6996 68.2 26.6996 67.6L26.7996 66.3V68.1C26.2996 81.2 22.7996 98.8 30.0996 110.6C31.3996 112.7 32.9996 114.5 34.7996 116H34.2996C34.0996 116.2 33.7996 116.4 33.4996 116.6L32.5996 117.2L32.2996 117.4L31.6996 117.8L30.7996 118.5L29.6996 119.5C29.4996 119.7 29.3996 119.9 29.2996 120L28.8996 120.6L28.6996 120.9C28.5996 121.1 28.4996 121.3 28.4996 121.5L28.3996 121.8C28.1996 122.6 28.3996 123.5 28.9996 124.5L29.3996 124.9H29.5996C29.6996 124.9 29.7996 124.9 29.9996 125C30.1996 125.4 31.1996 127.5 33.8996 125.9C36.6996 124.4 38.5996 121.3 41.9996 120.8L41.4996 120.2C47.3996 123 54.2996 124.2 60.4996 124.4C69.1996 124.7 79.0996 123.5 86.9996 119.2C89.1996 119.9 90.8996 123.1 92.7996 124.6L92.8996 124.7L92.9996 124.8L93.0996 124.9L93.1996 125C93.1996 125 93.2996 125 93.2996 125.1C93.2996 125.1 93.3996 125.1 93.3996 125.2C93.3996 125.2 93.4996 125.2 93.4996 125.3H95.5996C95.5996 125.3 95.6996 125.3 95.6996 125.2H95.7996C95.7996 125.2 95.8996 125.2 95.8996 125.1H95.9996C95.9996 125.1 96.0996 125.1 96.0996 125C96.0996 125 96.1996 125 96.1996 124.9L96.2996 124.8C96.2996 124.8 96.3996 124.8 96.3996 124.7L96.4996 124.6H96.5996L96.7996 124.4L96.9996 124.3H97.0996L97.1996 124.2H97.2996L97.3996 124.1L97.4996 124L97.5996 123.9L97.6996 123.8L97.7996 123.7L97.8996 123.6L97.9996 123.5V123.4C97.9996 123.4 97.9996 123.3 98.0996 123.3V123.2C98.0996 123.2 98.0996 123.1 98.1996 123.1V123C98.1996 123 98.1996 122.9 98.2996 122.9V121.5C98.2996 121.5 97.9996 121.5 97.9996 121.4L97.6996 121.3V121.2L97.9996 121.1C97.9996 121.1 98.1996 121.1 98.1996 121L98.2996 120.9V118.8C98.2996 118.8 98.2996 118.7 98.1996 118.7V118.6C98.1996 118.6 98.1996 118.5 98.0996 118.5V118.4C98.0996 118.4 98.0996 118.3 97.9996 118.3C97.9996 118.3 97.9996 118.2 97.8996 118.2C97.8996 118.2 97.8996 118.1 97.7996 118.1C97.7996 118.1 97.7996 118 97.6996 118C97.6996 118 97.6996 117.9 97.5996 117.9C97.5996 117.9 97.5996 117.8 97.4996 117.8C97.4996 117.8 97.4996 117.7 97.3996 117.7C97.3996 117.7 97.3996 117.6 97.2996 117.6C97.2996 117.6 97.2996 117.5 97.1996 117.5C97.1996 117.5 97.1996 117.4 97.0996 117.4C97.0996 117.4 97.0996 117.3 96.9996 117.3C96.9996 117.3 96.9996 117.2 96.8996 117.2C96.8996 117.2 96.8996 117.1 96.7996 117.1C96.7996 117.1 96.7996 117 96.6996 117L96.5996 116.9L96.4996 116.8L96.3996 116.7L96.2996 116.6L96.1996 116.5L96.0996 116.4L95.9996 116.3L95.8996 116.2L95.7996 116.1L95.6996 116L95.5996 115.9L95.4996 115.8V115.7L95.3996 115.6L95.2996 115.5L95.1996 115.4L95.0996 115.3L94.9996 115.2L94.8996 115.1L94.7996 115L94.6996 114.9L94.5996 114.8L94.4996 114.7L94.3996 114.6L94.2996 114.5L94.1996 114.4L94.0996 114.3L93.9996 114.2L93.8996 114.1L93.7996 114L93.6996 113.9L93.5996 113.8C95.5996 111.9 97.3996 109.6 98.6996 106.9C104.6 95.1 103.6 80.7 102.8 67.7H102.9C103 67.7 103.1 67.8 103.1 67.8H103.4C103.4 67.8 103.5 67.8 103.5 67.9H103.6C103.6 67.9 103.7 67.9 103.7 68L103.9 68.1C105.6 69.3 109.3 71 109.5 67.3C111.1 67.9 109.2 65.5001 108.2 64.8001ZM35.9996 23C32.7996 7.00005 58.3996 4.00005 59.2996 19.6C60.0996 32.6 39.2996 35.9 35.9996 23ZM72.0996 38C70.7996 39.4001 69.3996 39.2001 67.9996 38.7001C67.9996 40.6001 68.3996 42.6 68.0996 44.6C67.5996 45.5 66.5996 45.6 65.7996 46C64.5996 45.8 63.6996 45.1 63.1996 44L62.9996 43.9001C59.0996 49.1001 56.6996 42.8001 57.7996 38.9001C56.5996 39 55.5996 38.7001 54.7996 37.4001C53.3996 34.8001 55.4996 31.6 58.1996 31.1C58.8996 34.1001 66.8996 33.7001 68.2996 30.9C71.3996 32.4 74.7996 35.2001 72.0996 38ZM65.0996 20.5C64.1996 6.70005 85.3996 3.00005 88.4996 16.5C91.9996 31.5 67.6996 35.4 65.0996 20.5ZM41.6996 17C39.7996 17 38.1996 18.7 38.1996 20.8C38.1996 22.9 39.7996 24.6 41.6996 24.6C43.5996 24.6 45.1996 22.9 45.1996 20.8C45.1996 18.7 43.6996 17 41.6996 17ZM43.2996 22.7001C42.7996 22.7001 42.4996 22.3001 42.4996 21.7001C42.4996 21.2001 42.8996 20.7001 43.2996 20.7001C43.7996 20.7001 44.0996 21.1 44.0996 21.7001C44.0996 22.2001 43.7996 22.7001 43.2996 22.7001ZM71.0996 16.1C69.1996 16.1 67.6996 17.8 67.6996 19.9C67.6996 22 69.1996 23.7001 71.0996 23.7001C72.9996 23.7001 74.4996 22 74.4996 19.9C74.4996 17.8 72.9996 16.1 71.0996 16.1ZM72.6996 21.7001C72.2996 21.7001 71.8996 21.3001 71.8996 20.7001C71.8996 20.2001 72.2996 19.7001 72.6996 19.7001C73.0996 19.7001 73.4996 20.1 73.4996 20.7001C73.4996 21.3001 73.0996 21.7001 72.6996 21.7001Z" fill="#83D2FF"/>
</svg>
