<svg width="128" height="128" viewBox="0 0 128 128" fill="none" xmlns="http://www.w3.org/2000/svg">
<rect x="38" y="41" width="57" height="18" rx="3" stroke="black" stroke-width="2"/>
<rect x="54" y="49" width="33" height="3" rx="1.5" fill="black"/>
<rect x="41" y="49" width="3" height="3" rx="1.5" fill="black"/>
<rect x="45" y="49" width="3" height="3" rx="1.5" fill="black"/>
<rect x="49" y="49" width="3" height="3" rx="1.5" fill="black"/>
<rect x="89" y="49" width="3" height="3" rx="1.5" fill="black"/>
<rect x="38" y="62" width="57" height="18" rx="3" stroke="black" stroke-width="2"/>
<rect x="54" y="70" width="33" height="3" rx="1.5" fill="black"/>
<rect x="41" y="70" width="3" height="3" rx="1.5" fill="black"/>
<rect x="45" y="70" width="3" height="3" rx="1.5" fill="black"/>
<rect x="49" y="70" width="3" height="3" rx="1.5" fill="black"/>
<rect x="89" y="70" width="3" height="3" rx="1.5" fill="black"/>
<path fill-rule="evenodd" clip-rule="evenodd" d="M86.9172 25.4667L85.8195 24.2316C81.3273 19.1772 74.7866 16 67.5 16C56.9185 16 47.8964 22.7098 44.471 32.1164L43.6655 34.3285L41.3254 34.0721C40.8912 34.0245 40.449 34 40 34C34.6929 34 30.183 37.4472 28.6024 42.2328L28.0437 43.9242L26.2913 44.2434C19.3001 45.5167 14 51.6425 14 59C14 61.1373 14.4453 63.1649 15.2473 65H37.126C37.0438 65.3196 37 65.6547 37 66V68H13.4081C11.8765 65.3524 11 62.2786 11 59C11 50.1672 17.3621 42.8204 25.7537 41.292C27.7282 35.314 33.3603 31 40 31C40.5584 31 41.1096 31.0305 41.6521 31.0899C45.4952 20.5363 55.6175 13 67.5 13C75.6792 13 83.0245 16.5708 88.0618 22.2386C89.0179 22.0816 89.9994 22 91 22C98.0944 22 104.23 26.1043 107.163 32.0679C116.366 32.8656 123.588 40.5894 123.588 50C123.588 59.7444 115.845 67.6803 106.176 67.9906C105.981 67.9968 105.785 68 105.588 68C105.391 68 105.195 67.9968 105 67.9906V68H96V66C96 65.6547 95.9563 65.3196 95.874 65H102V64.8928L105.096 64.9921C105.259 64.9973 105.423 65 105.588 65C113.872 65 120.588 58.2843 120.588 50C120.588 42.1594 114.57 35.7211 106.904 35.0567L105.217 34.9106L104.47 33.3917C102.023 28.4147 96.9076 25 91 25C90.1629 25 89.3439 25.0683 88.5479 25.199L86.9172 25.4667Z" fill="black"/>
<rect x="38" y="83" width="57" height="18" rx="3" stroke="black" stroke-width="2"/>
<rect x="54" y="91" width="33" height="3" rx="1.5" fill="black"/>
<rect x="41" y="91" width="3" height="3" rx="1.5" fill="black"/>
<rect x="45" y="91" width="3" height="3" rx="1.5" fill="black"/>
<rect x="49" y="91" width="3" height="3" rx="1.5" fill="black"/>
<rect x="89" y="91" width="3" height="3" rx="1.5" fill="black"/>
</svg>
