<svg width="129" height="128" viewBox="0 0 129 128" fill="none" xmlns="http://www.w3.org/2000/svg">
<path fill-rule="evenodd" clip-rule="evenodd" d="M123.457 76.784C123.007 73.866 120.556 71.955 117.705 71.826C116.673 71.779 115.625 71.887 114.596 72.018C113.353 72.176 112.125 72.456 110.885 72.641C110.028 72.769 109.159 72.828 108.303 72.916L108.282 72.805C109.88 69.787 111.545 66.802 113.057 63.741C114.216 61.393 115.208 58.96 116.233 56.547C117.929 52.549 119.284 48.427 120.406 44.238C121.481 40.227 122.401 36.172 122.69 32.011C122.806 30.349 122.886 28.68 122.877 27.016C122.869 25.689 122.726 24.36 122.593 23.037C122.443 21.521 121.985 20.084 121.351 18.701C120.515 16.879 119.219 15.384 117.855 13.964C116.763 12.827 115.562 11.791 114.371 10.756C112.673 9.279 110.764 8.1 108.781 7.053C106.535 5.85933 104.155 4.93622 101.691 4.303C100.198 3.922 98.6712 3.639 97.1592 3.337C96.6152 3.227 96.0702 3 95.5262 3H85.2852C84.9152 3 84.5482 3.191 84.1752 3.233C81.7232 3.506 79.3002 3.968 76.9472 4.697C76.0672 4.97 75.2632 4.798 74.4272 4.721C73.7862 4.662 73.1562 4.49 72.5152 4.458C70.0732 4.336 67.6282 4.157 65.1872 4.183C62.8482 4.207 60.5332 4.592 58.2692 5.235C56.3742 5.773 54.5202 6.43 52.8222 7.426C52.0952 7.852 51.5192 7.772 50.7672 7.555C48.2402 6.826 45.6952 6.141 43.1282 5.566C41.5282 5.208 39.8832 5.03 38.2492 4.859C36.6813 4.69605 35.1073 4.59796 33.5312 4.565C31.9932 4.532 30.4442 4.533 28.9132 4.669C26.4747 4.881 24.071 5.38907 21.7552 6.182C19.1905 7.05772 16.7941 8.36483 14.6692 10.047C12.5022 11.762 10.7642 13.856 9.36622 16.247C7.89322 18.77 6.88322 21.471 6.25522 24.308C5.91522 25.845 5.70022 27.425 5.46722 28.986C5.39422 29.472 6.19922 29.958 5.19922 30.442V37.236C6.19922 37.688 5.40722 38.139 5.46522 38.592C5.60422 39.681 5.72722 40.779 5.91122 41.86C6.20222 43.571 6.54722 45.277 6.89922 46.977C7.38799 49.353 7.90335 51.7235 8.44522 54.088C8.84122 55.808 9.29222 57.518 9.76422 59.219C10.4852 61.817 11.1952 64.42 12.0102 66.989C12.7672 69.376 13.6342 71.729 14.4942 74.082C15.6852 77.337 17.1112 80.487 18.8212 83.506C20.3002 86.12 21.9902 88.568 24.2572 90.582C25.7512 91.909 27.4142 92.929 29.3502 93.439C30.8712 93.839 32.4172 93.887 33.9742 93.568C35.7482 93.2071 37.4053 92.4133 38.7982 91.257C38.9612 91.123 39.1402 91.021 39.3332 91.267C40.0682 92.198 41.0522 92.819 42.0812 93.356C44.8582 94.804 47.8842 95.238 50.9582 95.415C51.7022 95.458 52.4542 95.351 53.2042 95.33C54.6652 95.29 56.0852 95.005 57.4822 94.601C58.2142 94.389 58.9292 94.12 59.6742 93.869C59.7132 94.662 59.7632 95.426 59.7862 96.19L59.8902 100.356C59.9092 100.99 59.9342 101.626 59.9932 102.257C60.1442 103.884 60.2922 105.512 60.4862 107.134C60.6212 108.252 60.7612 109.379 61.0242 110.47C61.5515 112.672 62.2737 114.824 63.1822 116.898C64.052 118.912 65.3889 120.689 67.0822 122.083C69.3022 123.919 71.9042 124.702 74.7142 124.847C75.8762 124.908 77.0712 124.851 78.2152 124.643C80.0335 124.32 81.832 123.894 83.6022 123.368C87.1932 122.284 90.2972 120.412 92.6162 117.387C93.9362 115.663 95.0202 113.798 95.7162 111.739C96.2902 110.038 96.8312 108.32 97.2612 106.579C97.6012 105.207 97.7692 103.792 97.9762 102.391C98.1132 101.464 98.1952 100.528 98.2812 99.594C98.4212 98.077 98.5642 96.561 98.6652 95.041C98.7352 93.983 98.7322 92.92 98.7742 91.86C98.7872 91.537 98.8392 91.216 98.8692 90.894C98.8972 90.596 99.0472 90.493 99.3512 90.498C100.422 90.514 101.495 90.542 102.563 90.494C103.76 90.44 104.968 90.389 106.146 90.191C107.825 89.9106 109.49 89.5546 111.136 89.124C113.079 88.616 114.861 87.706 116.576 86.669C118.574 85.462 120.395 84.046 121.873 82.222C123.158 80.631 123.767 78.792 123.457 76.784ZM120.045 77.766C119.979 78.681 119.56 79.465 118.952 80.135C116.083 83.298 112.484 85.217 108.367 86.162C106.803 86.52 105.189 86.706 103.588 86.854C102.22 86.9743 100.846 87.0067 99.4742 86.951C98.4682 86.913 97.4702 86.683 96.4422 86.535C96.3392 87.475 96.2412 88.454 96.1222 89.431L95.6432 93.176C95.4982 94.363 95.3852 95.554 95.2362 96.74C95.0902 97.891 94.9082 99.038 94.7552 100.189C94.6122 101.261 94.5072 102.338 94.3482 103.408C94.1032 105.048 93.8692 106.692 93.5492 108.319C93.1652 110.264 92.5762 112.148 91.6152 113.902C90.4432 116.043 88.7812 117.674 86.6662 118.882C84.4862 120.128 82.1032 120.776 79.6872 121.318C77.9772 121.702 76.2152 121.765 74.4832 121.609C71.4792 121.337 68.9152 120.052 66.9772 117.723C65.1272 115.5 63.8752 112.952 63.4272 110.068C63.2181 108.695 63.0543 107.316 62.9362 105.932C62.8036 104.394 62.7039 102.854 62.6372 101.312C62.5486 99.3558 62.4829 97.3987 62.4402 95.441C62.3872 93.035 62.3702 90.629 62.3362 88.223L62.3302 88.131C61.1062 88.865 59.9032 89.669 58.6272 90.331C57.1361 91.1024 55.5037 91.5627 53.8292 91.684C52.5112 91.784 51.1762 91.875 49.8642 91.77C47.7132 91.597 45.5642 91.26 43.6382 90.201C42.8572 89.771 42.0422 89.248 41.5042 88.561C40.2142 86.915 40.8322 84.835 42.7772 83.834C44.1212 83.141 45.5882 82.852 47.0452 82.515C48.3134 82.2273 49.5682 81.8839 50.8062 81.486C52.0282 81.086 52.7992 80.095 53.5602 79.123L54.7662 77.572C54.2632 77.519 53.7892 77.465 53.3152 77.421C51.8762 77.285 50.5032 76.889 49.1902 76.307C48.0662 75.81 48.0492 75.756 47.2252 76.65C45.8492 78.144 44.5112 79.673 43.1632 81.192C42.1712 82.309 41.1852 83.433 40.1982 84.553C39.2202 85.661 38.3042 86.832 37.2512 87.863C35.6872 89.394 33.8022 90.315 31.5532 90.211C30.1102 90.145 28.7892 89.639 27.6012 88.812C25.1492 87.104 23.4972 84.715 21.9932 82.206C20.0662 78.991 18.5872 75.566 17.3212 72.047C16.4452 69.615 15.5652 67.181 14.8002 64.714C13.9692 62.033 13.2402 59.318 12.5232 56.604C11.9876 54.5535 11.4935 52.4924 11.0412 50.422C10.5138 48.0707 10.0257 45.7107 9.57722 43.343C9.27922 41.744 9.10622 40.122 8.86522 38.512C8.54022 36.342 8.48022 34.152 8.59822 31.973C8.70322 30.01 8.98522 28.052 9.26522 26.102C9.65322 23.404 10.5422 20.858 11.8212 18.454C12.6042 16.981 13.5762 15.642 14.7002 14.398C16.5452 12.356 18.7782 10.88 21.2622 9.772C22.9982 8.998 24.8322 8.532 26.7012 8.168C29.4752 7.628 32.2742 7.649 35.0742 7.707C36.2982 7.732 37.5172 7.955 38.7402 8.076C41.3732 8.338 43.9542 8.892 46.5022 9.576C48.3592 10.074 50.1782 10.719 52.0202 11.279C52.2052 11.335 52.4762 11.33 52.6272 11.231C55.1232 9.602 57.8512 8.527 60.7522 7.912C61.8532 7.679 62.9892 7.577 64.1152 7.505C65.4842 7.418 66.8642 7.338 68.2302 7.417C69.8722 7.511 71.5062 7.753 73.1382 7.977C73.9302 8.085 74.7032 8.36 75.4972 8.435C75.8772 8.471 76.2802 8.193 76.6822 8.1C78.7312 7.627 80.7712 7.1 82.8382 6.726C84.3772 6.448 85.9492 6.317 87.5142 6.227C89.2592 6.127 91.0172 6.054 92.7612 6.138C94.9696 6.24736 97.1635 6.55629 99.3162 7.061C101.993 7.684 104.561 8.589 107.002 9.845C108.826 10.783 110.56 11.871 112.121 13.209C113.144 14.087 114.191 14.954 115.115 15.932C116.255 17.138 117.418 18.345 118.133 19.89C118.671 21.055 119.055 22.261 119.161 23.537C119.293 25.123 119.453 26.715 119.438 28.303C119.424 29.822 119.217 31.34 119.07 32.855C118.736 36.309 117.985 39.688 117.073 43.022C116.31 45.776 115.447 48.5012 114.484 51.192C113.605 53.673 112.591 56.109 111.566 58.535C110.812 60.332 109.992 62.1008 109.108 63.838C107.431 67.124 105.687 70.376 103.67 73.471C103.322 74.006 102.992 74.554 102.652 75.1C103.532 75.694 104.529 75.903 105.533 76.011C106.488 76.115 107.462 76.177 108.416 76.106C109.943 75.993 111.465 75.775 112.983 75.562C114.487 75.352 115.961 74.924 117.505 75.037C119.047 75.149 120.15 76.321 120.045 77.766ZM98.0322 74.413C97.3772 73.567 96.7092 72.731 96.0682 71.875C95.0622 70.531 94.3392 69.03 93.6132 67.522C92.9252 66.093 92.0812 64.74 91.3562 63.327C90.0912 60.862 88.8032 58.405 87.6382 55.892C86.1732 52.735 85.0182 49.466 84.6542 45.969C84.5002 44.489 84.4612 43.011 84.7602 41.545C85.2392 39.204 86.4622 37.373 88.5182 36.117C90.4252 34.952 92.5502 34.576 94.7272 34.458C96.0782 34.385 97.4352 34.445 98.8372 34.445L98.7902 34.208C97.9182 32.385 97.1032 30.531 96.1492 28.751C94.8032 26.239 93.0812 23.974 91.1632 21.874C89.7422 20.319 88.2032 18.876 86.5172 17.601C84.8592 16.346 83.1122 15.225 81.2482 14.308C79.0252 13.215 76.7102 12.37 74.2812 11.831C71.9472 11.313 69.5982 10.996 67.2042 10.97C65.1622 10.948 63.1332 11.04 61.1442 11.501C58.1422 12.196 55.3962 13.432 53.0072 15.434C51.6855 16.5425 50.5044 17.8086 49.4902 19.204C48.2942 20.847 47.3292 22.621 46.5042 24.481C45.3722 27.033 44.5952 29.689 44.0642 32.419C43.7982 33.78 43.5902 35.153 43.3782 36.525C43.3042 37.005 43.2982 37.496 43.2552 38.046C43.6242 37.854 43.8902 37.706 44.1622 37.574L45.0472 37.177C48.0402 35.808 51.1412 34.927 54.4742 35.028C55.8902 35.071 57.2452 35.351 58.5042 35.971C60.9192 37.162 62.3322 39.187 62.9462 41.75C63.3702 43.519 63.6602 45.323 63.9422 47.122C64.1632 48.527 64.3892 49.947 64.4152 51.364C64.4522 53.435 64.3472 55.51 64.2342 57.58C64.1372 59.3402 63.773 61.0753 63.1542 62.726C62.0342 65.719 60.7862 68.663 59.6202 71.639C59.2352 72.622 58.9392 73.64 58.5752 74.721C59.1372 74.721 59.5932 74.717 60.0492 74.723C60.2272 74.726 60.4092 74.731 60.5812 74.772C61.9212 75.088 63.0832 75.695 64.0362 76.726C65.3072 78.098 65.9742 79.699 66.0082 81.552C66.0272 82.579 65.9192 83.609 65.9242 84.636C65.9452 89.422 65.9812 94.208 66.0212 98.993C66.0282 99.775 66.0672 100.558 66.1232 101.339C66.2402 102.974 66.3582 104.61 66.5182 106.241C66.6302 107.398 66.7862 108.553 66.9692 109.702C67.2282 111.33 67.9692 112.779 68.8102 114.164C69.5342 115.355 70.4752 116.367 71.7152 117.065C73.8222 118.251 76.0912 118.35 78.3782 117.913C79.9232 117.618 81.4402 117.144 82.9402 116.655C84.4153 116.182 85.7622 115.376 86.8772 114.301C87.9282 113.282 88.6742 112.04 89.1772 110.669C90.1532 108.01 90.4572 105.21 90.8612 102.432C91.0122 101.392 91.1432 100.349 91.2812 99.307C91.4382 98.121 91.5972 96.936 91.7492 95.751C91.8612 94.868 91.9632 93.983 92.0712 93.1C92.2252 91.832 92.3882 90.565 92.5352 89.296C92.6482 88.315 92.7442 87.33 92.8442 86.347C92.9732 85.091 93.1122 83.835 93.2232 82.577C93.3092 81.622 93.2742 80.65 93.4432 79.713C93.7542 77.995 94.5662 76.533 96.0892 75.588C96.7262 75.193 97.4452 74.933 98.1522 74.599L98.0322 74.413ZM40.4352 67.361C39.6757 65.5749 39.2181 63.675 39.0812 61.739C38.9532 59.914 39.1702 58.096 39.3572 56.279C39.5392 54.519 39.6902 52.751 39.7432 50.983C39.8312 48.077 39.6352 45.175 39.4962 42.271C39.4122 40.542 39.6132 38.792 39.7672 37.059C39.9062 35.498 40.0792 33.933 40.3742 32.395C40.8692 29.814 41.5262 27.27 42.4602 24.804C43.3472 22.466 44.3662 20.189 45.8052 18.139C46.7912 16.733 47.9102 15.419 48.9852 14.045L48.6662 13.932C45.1682 12.821 41.6132 11.953 37.9572 11.574C36.2282 11.395 34.4932 11.29 32.7592 11.187C32.2272 11.155 31.6872 11.227 31.1532 11.278C29.8312 11.404 28.4932 11.454 27.1922 11.702C24.9782 12.123 22.8542 12.831 20.8872 13.984C19.1212 15.019 17.6382 16.357 16.3962 17.962C15.0242 19.734 14.1012 21.738 13.4382 23.875C12.6552 26.396 12.2822 28.99 12.1812 31.608C12.0932 33.903 12.0492 36.211 12.4452 38.497C12.7402 40.199 12.9372 41.919 13.2622 43.614C13.7052 45.925 14.1802 48.231 14.7292 50.518C15.5142 53.792 16.2982 57.071 17.2282 60.305C18.1182 63.404 19.1222 66.475 20.2102 69.509C21.1002 71.985 22.1292 74.415 23.2132 76.813C23.9192 78.375 24.7742 79.878 25.6702 81.341C26.6232 82.894 27.7072 84.368 29.1782 85.495C31.0342 86.918 32.4712 87.139 34.3572 85.578C35.1652 84.909 35.8482 84.083 36.5512 83.296C37.6682 82.046 38.7462 80.762 39.8582 79.508C41.2742 77.91 42.7082 76.329 44.1312 74.739C44.4322 74.403 44.7212 74.057 45.0142 73.717L44.5302 73.292C42.7728 71.6169 41.3789 69.598 40.4352 67.361ZM94.1232 19.792C95.2867 21.1447 96.3907 22.5473 97.4322 23.996C99.4322 26.805 101.03 29.838 102.207 33.083C102.728 34.513 103.144 35.957 102.958 37.522C102.829 38.618 102.84 39.73 102.743 40.832C102.662 41.749 102.517 42.661 102.398 43.575C102.22 44.953 101.962 46.327 101.885 47.711C101.812 49.028 101.888 50.359 101.971 51.679C102.055 53.02 102.236 54.355 102.359 55.694C102.498 57.212 102.685 58.73 102.728 60.251C102.763 61.5 102.652 62.757 102.543 64.004C102.413 65.506 102.032 66.96 101.464 68.355C101.065 69.337 100.588 70.289 100.137 71.272L100.318 71.464L100.593 71.677L100.87 71.181C103.209 67.4996 105.288 63.6593 107.092 59.688C108.246 57.1245 109.342 54.5351 110.379 51.922C112.003 47.858 113.288 43.68 114.282 39.419C114.728 37.506 115.069 35.564 115.372 33.622C115.608 32.104 115.805 30.568 115.849 29.036C115.896 27.411 115.806 25.773 115.656 24.152C115.544 22.928 115.242 21.696 114.475 20.701C113.242 19.099 111.911 17.567 110.274 16.355C108.896 15.334 107.523 14.287 106.044 13.428C103.699 12.068 101.161 11.162 98.5092 10.545C95.9212 9.942 93.2992 9.682 90.6602 9.627C89.1042 9.594 87.5412 9.761 85.9882 9.907C84.5812 10.039 83.1832 10.264 81.7662 10.45C83.2862 11.305 84.7852 12.065 86.1992 12.961C89.1722 14.844 91.8362 17.11 94.1232 19.792ZM55.4982 72.514C56.4592 69.441 57.7682 66.507 59.0362 63.555C60.0642 61.161 60.6262 58.639 60.8132 56.049C60.9062 54.772 60.8802 53.479 60.8172 52.198C60.7547 50.7729 60.6239 49.3516 60.4252 47.939C60.1592 46.138 59.8562 44.336 59.4302 42.568C58.9682 40.655 57.8032 39.323 55.8072 38.832C54.5912 38.533 53.3832 38.545 52.1542 38.739C49.1522 39.212 46.4042 40.318 43.8442 41.938C43.3292 42.264 43.0462 42.527 43.1352 43.266C43.3232 44.831 43.3642 46.421 43.3572 48.001C43.3472 50.237 43.2522 52.473 43.1672 54.708C43.1392 55.436 43.0342 56.16 42.9562 56.885C42.8362 57.995 42.6052 59.104 42.6122 60.212C42.6192 61.354 42.7362 62.523 43.0132 63.629C43.8932 67.136 45.7572 70.006 48.8122 72.031C50.6912 73.276 52.7702 73.904 55.0522 74.023C55.2072 73.499 55.3452 73.004 55.4982 72.514ZM51.9122 42.427C51.5102 41.583 51.7402 40.884 52.6722 40.56C52.8992 40.48 53.1332 40.395 53.3692 40.372C53.6932 40.34 54.0232 40.364 54.3512 40.364C55.5332 40.37 56.6702 40.535 57.6462 41.287C58.2722 41.769 58.4402 42.409 58.0352 43.066C57.4602 43.998 56.5832 44.466 55.5062 44.556C53.8092 44.697 52.6182 43.906 51.9122 42.427ZM98.9522 42.119C99.0882 40.995 99.1972 39.868 99.3362 38.744C99.3922 38.292 99.1542 38.17 98.7752 38.159C97.5832 38.126 96.3912 38.084 95.1992 38.062C93.8552 38.038 92.5472 38.254 91.3032 38.765C89.9232 39.333 88.8722 40.243 88.4432 41.745C88.1294 42.8526 88.0299 44.01 88.1502 45.155C88.3173 46.9255 88.7184 48.666 89.3432 50.331C90.1772 52.552 91.0502 54.772 92.0932 56.9C93.5062 59.781 95.1052 62.57 96.6062 65.407C97.0072 66.164 97.3442 66.954 97.7622 67.838C98.605 66.0806 99.0655 64.1644 99.1132 62.216C99.1542 60.606 99.0252 58.989 98.9312 57.378C98.8722 56.392 98.7332 55.412 98.6372 54.428C98.5032 53.057 98.3002 51.687 98.2692 50.313C98.2382 48.916 98.3372 47.511 98.4572 46.116C98.5702 44.778 98.7912 43.451 98.9522 42.119ZM96.2632 41.037C95.8202 42.26 94.8732 42.95 93.6452 43.153C92.5002 43.341 91.4972 42.918 90.7512 42.005C90.2202 41.355 90.4232 40.585 91.2192 40.146C92.1332 39.64 93.1382 39.512 94.3232 39.435C94.6452 39.494 95.1302 39.543 95.5912 39.675C96.2602 39.864 96.5072 40.367 96.2632 41.037ZM60.8412 78.697C60.1862 78.162 59.3202 78.131 58.6972 78.718C57.9242 79.448 57.2442 80.283 56.5642 81.106C55.7792 82.057 55.0432 83.046 54.0302 83.783C52.5562 84.854 50.8382 85.298 49.1112 85.718C47.7382 86.052 46.3592 86.362 44.9822 86.683L44.9652 86.861C45.3742 87.05 45.7702 87.286 46.1962 87.421C48.2962 88.086 50.4322 88.417 52.6512 88.229C54.2532 88.093 55.7792 87.744 57.2252 87.058C59.2152 86.115 60.7462 84.621 62.0482 82.883C62.2662 82.593 62.3652 82.164 62.3912 81.79C62.4802 80.469 61.8092 79.487 60.8412 78.697ZM112.592 79.223C110.902 79.404 109.21 79.596 107.515 79.693C106.697 79.74 105.867 79.584 105.041 79.517C103.656 79.405 102.304 79.097 101.133 78.357C100.455 77.93 99.8922 77.882 99.1722 78.124C98.1442 78.47 97.3052 78.996 97.0572 80.11C96.8882 80.863 96.8272 81.643 96.7592 82.414C96.7462 82.55 96.9162 82.8 97.0462 82.834C97.8392 83.043 98.6362 83.29 99.4472 83.363C100.443 83.453 101.457 83.424 102.46 83.374C103.543 83.32 104.633 83.25 105.7 83.07C108.215 82.648 110.648 81.96 112.809 80.534C113.588 80.019 114.36 79.493 115.134 78.972L115.07 78.862C114.244 78.985 113.422 79.135 112.592 79.223Z" fill="#83D2FF"/>
</svg>
