<svg width="1670" height="829" viewBox="0 0 1670 829" fill="none" xmlns="http://www.w3.org/2000/svg">
<rect x="1401" y="273" width="267" height="284" rx="39" stroke="#E91539" stroke-width="4"/>
<rect x="2" y="273" width="267" height="284" rx="39" stroke="#E91539" stroke-width="4"/>
<rect x="684" y="2" width="302" height="825" rx="39" stroke="#E91539" stroke-width="4"/>
<path d="M798.132 236.596H863.736V244.78H798.132V236.596ZM795.756 259.168H866.508V267.616H795.756V259.168ZM839.712 239.104H848.556V297.052H839.712V239.104ZM812.52 239.5H821.232V263.656C821.232 265.68 820.968 268.188 820.44 271.18C819.912 274.084 818.988 277.208 817.668 280.552C816.436 283.896 814.632 287.152 812.256 290.32C809.88 293.576 806.844 296.48 803.148 299.032C802.444 298.064 801.432 296.964 800.112 295.732C798.792 294.588 797.604 293.664 796.548 292.96C800.948 290.232 804.292 287.064 806.58 283.456C808.868 279.76 810.408 276.152 811.2 272.632C812.08 269.024 812.52 265.988 812.52 263.524V239.5ZM781.764 202.144H818.856V209.14H781.764V202.144ZM842.616 202.144H880.104V209.14H842.616V202.144ZM876.144 183.796H885.912V286.756C885.912 289.66 885.516 291.948 884.724 293.62C884.02 295.38 882.7 296.7 880.764 297.58C878.74 298.372 876.056 298.856 872.712 299.032C869.368 299.296 865.144 299.384 860.04 299.296C859.952 298.416 859.732 297.36 859.38 296.128C859.116 294.984 858.764 293.796 858.324 292.564C857.884 291.332 857.444 290.276 857.004 289.396C860.612 289.484 863.956 289.528 867.036 289.528C870.204 289.528 872.36 289.528 873.504 289.528C874.472 289.44 875.132 289.22 875.484 288.868C875.924 288.428 876.144 287.68 876.144 286.624V183.796ZM782.688 183.796H824.928V228.28H782.688V220.624H815.556V191.32H782.688V183.796ZM880.896 183.796V191.32H846.048V220.756H880.896V228.412H836.676V183.796H880.896ZM776.748 183.796H786.516V299.692H776.748V183.796ZM794.832 409.98H867.432V419.484H794.832V409.98ZM781.5 368.796H820.836V377.508H781.5V368.796ZM778.2 439.152H883.536V448.392H778.2V439.152ZM817.536 368.796H819.252L821.1 368.4L827.7 371.568C825.324 378.08 822.244 384.152 818.46 389.784C814.764 395.328 810.54 400.388 805.788 404.964C801.124 409.54 796.152 413.588 790.872 417.108C785.592 420.628 780.268 423.62 774.9 426.084C774.284 424.94 773.36 423.62 772.128 422.124C770.896 420.628 769.796 419.44 768.828 418.56C773.756 416.536 778.684 413.94 783.612 410.772C788.54 407.516 793.16 403.82 797.472 399.684C801.872 395.548 805.788 391.016 809.22 386.088C812.74 381.16 815.512 376.012 817.536 370.644V368.796ZM808.824 414.468H818.724V437.172C818.724 441.748 818.284 446.28 817.404 450.768C816.612 455.256 814.94 459.612 812.388 463.836C809.924 467.972 806.228 471.844 801.3 475.452C796.46 479.148 789.948 482.404 781.764 485.22C781.324 484.428 780.752 483.548 780.048 482.58C779.344 481.612 778.552 480.644 777.672 479.676C776.88 478.796 776.132 478.048 775.428 477.432C782.908 474.88 788.848 472.064 793.248 468.984C797.736 465.816 801.08 462.472 803.28 458.952C805.568 455.432 807.064 451.824 807.768 448.128C808.472 444.432 808.824 440.736 808.824 437.04V414.468ZM841.428 363.516C844.508 371.524 848.6 379.048 853.704 386.088C858.896 393.128 864.836 399.376 871.524 404.832C878.212 410.2 885.472 414.424 893.304 417.504C892.512 418.12 891.676 418.956 890.796 420.012C889.916 420.98 889.08 421.992 888.288 423.048C887.496 424.016 886.836 424.984 886.308 425.952C878.3 422.256 870.864 417.46 864 411.564C857.224 405.668 851.196 398.848 845.916 391.104C840.636 383.36 836.28 375.044 832.848 366.156L841.428 363.516ZM779.784 387.408L786.12 382.128C788.144 383.536 790.256 385.164 792.456 387.012C794.744 388.772 796.9 390.532 798.924 392.292C800.948 393.964 802.62 395.46 803.94 396.78L797.34 402.852C796.108 401.444 794.48 399.86 792.456 398.1C790.52 396.252 788.452 394.404 786.252 392.556C784.052 390.62 781.896 388.904 779.784 387.408ZM866.112 364.572L873.636 369.852C870.292 373.108 866.596 376.452 862.548 379.884C858.5 383.316 854.804 386.22 851.46 388.596L845.256 383.844C847.456 382.172 849.832 380.236 852.384 378.036C855.024 375.748 857.532 373.46 859.908 371.172C862.372 368.796 864.44 366.596 866.112 364.572ZM881.688 379.62L889.08 384.9C885.56 388.332 881.6 391.808 877.2 395.328C872.8 398.848 868.752 401.884 865.056 404.436L858.984 399.684C861.36 397.924 863.956 395.9 866.772 393.612C869.588 391.324 872.316 388.948 874.956 386.484C877.596 384.02 879.84 381.732 881.688 379.62ZM841.824 414.864H851.988V469.644C851.988 471.756 852.296 473.12 852.912 473.736C853.528 474.264 854.98 474.528 857.268 474.528C857.796 474.528 858.764 474.528 860.172 474.528C861.58 474.528 863.076 474.528 864.66 474.528C866.332 474.528 867.872 474.528 869.28 474.528C870.688 474.528 871.744 474.528 872.448 474.528C873.856 474.528 874.912 474.132 875.616 473.34C876.32 472.46 876.804 470.832 877.068 468.456C877.42 466.08 877.684 462.56 877.86 457.896C878.916 458.688 880.324 459.48 882.084 460.272C883.844 460.976 885.428 461.504 886.836 461.856C886.484 467.488 885.868 471.888 884.988 475.056C884.108 478.224 882.744 480.424 880.896 481.656C879.048 482.976 876.496 483.636 873.24 483.636C872.624 483.636 871.48 483.636 869.808 483.636C868.224 483.636 866.464 483.636 864.528 483.636C862.592 483.636 860.788 483.636 859.116 483.636C857.532 483.636 856.476 483.636 855.948 483.636C852.164 483.636 849.26 483.196 847.236 482.316C845.212 481.524 843.804 480.116 843.012 478.092C842.22 476.068 841.824 473.208 841.824 469.512V414.864ZM772.128 590.492H889.872V599.468H772.128V590.492ZM783.744 564.752H860.304V573.464H783.744V564.752ZM805.26 634.844H867.432V642.764H805.26V634.844ZM805.26 656.624H867.432V665.204H805.26V656.624ZM817.668 548.12H827.436V595.244H817.668V548.12ZM875.484 552.608L883.932 557.228C875.132 568.756 864.968 579.316 853.44 588.908C842 598.5 829.68 607.08 816.48 614.648C803.28 622.216 789.64 628.684 775.56 634.052C775.208 633.26 774.636 632.38 773.844 631.412C773.052 630.356 772.216 629.344 771.336 628.376C770.544 627.32 769.84 626.44 769.224 625.736C783.48 620.808 797.164 614.736 810.276 607.52C823.388 600.304 835.488 592.076 846.576 582.836C857.752 573.596 867.388 563.52 875.484 552.608ZM799.848 613.328H873.636V669.032H863.472V621.776H809.748V669.56H799.848V613.328Z" fill="#E91539"/>
<rect x="343" y="193" width="267" height="443" rx="39" stroke="#E91539" stroke-width="4"/>
<circle cx="477" cy="415" r="78" fill="#E91539"/>
<rect x="1060" y="193" width="267" height="443" rx="39" stroke="#E91539" stroke-width="4"/>
<circle cx="1194" cy="415" r="78" fill="#E91539"/>
</svg>
