<svg width="101" height="114" viewBox="0 0 101 114" fill="none" xmlns="http://www.w3.org/2000/svg">
<path d="M0 31.3371V82.4512C0 84.5195 1.1068 86.4201 2.89557 87.4598L47.1677 113.017C48.9564 114.045 51.1589 114.045 52.9476 113.017L97.2197 87.4598C99.0085 86.4312 100.115 84.5195 100.115 82.4512V31.3371C100.115 29.2688 99.0085 27.3682 97.2197 26.3285L52.9476 0.771408C51.1589 -0.257136 48.9564 -0.257136 47.1677 0.771408L2.89557 26.3285C1.1068 27.3682 0 29.2688 0 31.3371Z" fill="#E7002A"/>
<path d="M79.6747 27.5581L55.9655 93.6753H53.5289L31.4128 31.2677H25.5838L48.0186 93.6753H44.0827L20.3359 27.5581H34.018L54.7659 86.05L74.4081 31.2677H68.5792L54.7659 70.2373L52.8355 64.6355L65.9927 27.5581H79.6747Z" fill="white"/>
</svg>
