<svg width="1612" height="572" viewBox="0 0 1612 572" fill="none" xmlns="http://www.w3.org/2000/svg">
<g opacity="0.3">
<path d="M144.326 217V3.71875H217.422C241.543 3.71875 259.902 8.55273 272.5 18.2207C285.098 27.8887 291.396 42.293 291.396 61.4336C291.396 71.1992 288.76 79.9883 283.486 87.8008C278.213 95.6133 270.498 101.668 260.342 105.965C271.865 109.09 280.752 114.998 287.002 123.689C293.35 132.283 296.523 142.635 296.523 154.744C296.523 174.764 290.078 190.145 277.188 200.887C264.395 211.629 246.035 217 222.109 217H144.326ZM181.387 120.76V187.41H222.549C234.17 187.41 243.252 184.529 249.795 178.768C256.338 173.006 259.609 164.998 259.609 154.744C259.609 132.576 248.281 121.248 225.625 120.76H181.387ZM181.387 93.5137H217.715C229.238 93.5137 238.223 90.9258 244.668 85.75C251.211 80.4766 254.482 73.0547 254.482 63.4844C254.482 52.9375 251.455 45.3203 245.4 40.6328C239.443 35.9453 230.117 33.6016 217.422 33.6016H181.387V93.5137ZM452.969 167.342H370.352L353.066 217H314.541L395.107 3.71875H428.359L509.072 217H470.4L452.969 167.342ZM380.752 137.459H442.568L411.66 48.9824L380.752 137.459ZM692.91 147.566C690.762 170.32 682.363 188.094 667.715 200.887C653.066 213.582 633.584 219.93 609.268 219.93C592.275 219.93 577.285 215.926 564.297 207.918C551.406 199.812 541.445 188.338 534.414 173.494C527.383 158.65 523.721 141.414 523.428 121.785V101.863C523.428 81.7461 526.992 64.0215 534.121 48.6895C541.25 33.3574 551.455 21.541 564.736 13.2402C578.115 4.93945 593.545 0.789062 611.025 0.789062C634.561 0.789062 653.506 7.18555 667.861 19.9785C682.217 32.7715 690.566 50.8379 692.91 74.1777H655.996C654.238 58.8457 649.746 47.8105 642.52 41.0723C635.391 34.2363 624.893 30.8184 611.025 30.8184C594.912 30.8184 582.51 36.7266 573.818 48.543C565.225 60.2617 560.83 77.498 560.635 100.252V119.148C560.635 142.195 564.736 159.773 572.939 171.883C581.24 183.992 593.35 190.047 609.268 190.047C623.818 190.047 634.756 186.775 642.08 180.232C649.404 173.689 654.043 162.801 655.996 147.566H692.91ZM787.393 124.861L763.223 150.496V217H726.162V3.71875H763.223V103.768L783.73 78.4258L846.133 3.71875H890.957L811.709 98.2012L895.498 217H851.553L787.393 124.861ZM1040.08 121.785H952.48V187.41H1054.87V217H915.42V3.71875H1053.85V33.6016H952.48V92.4883H1040.08V121.785ZM1254.24 217H1217.18L1122.11 65.6816V217H1085.05V3.71875H1122.11L1217.47 155.623V3.71875H1254.24V217ZM1298.04 217V3.71875H1361.03C1379.87 3.71875 1396.57 7.91797 1411.12 16.3164C1425.77 24.7148 1437.1 36.6289 1445.11 52.0586C1453.12 67.4883 1457.12 85.1641 1457.12 105.086V115.779C1457.12 135.994 1453.07 153.768 1444.96 169.1C1436.95 184.432 1425.48 196.248 1410.54 204.549C1395.69 212.85 1378.65 217 1359.41 217H1298.04ZM1335.1 33.6016V187.41H1359.27C1378.7 187.41 1393.59 181.355 1403.95 169.246C1414.39 157.039 1419.72 139.559 1419.91 116.805V104.939C1419.91 81.7949 1414.88 64.1191 1404.82 51.9121C1394.77 39.7051 1380.17 33.6016 1361.03 33.6016H1335.1Z" fill="#111214"/>
<path d="M0.0390625 569V355.719H63.0273C81.875 355.719 98.5742 359.918 113.125 368.316C127.773 376.715 139.102 388.629 147.109 404.059C155.117 419.488 159.121 437.164 159.121 457.086V467.779C159.121 487.994 155.068 505.768 146.963 521.1C138.955 536.432 127.48 548.248 112.539 556.549C97.6953 564.85 80.6543 569 61.416 569H0.0390625ZM37.0996 385.602V539.41H61.2695C80.7031 539.41 95.5957 533.355 105.947 521.246C116.396 509.039 121.719 491.559 121.914 468.805V456.939C121.914 433.795 116.885 416.119 106.826 403.912C96.7676 391.705 82.168 385.602 63.0273 385.602H37.0996ZM320.693 473.785H233.096V539.41H335.488V569H196.035V355.719H334.463V385.602H233.096V444.488H320.693V473.785ZM440.811 522.564L495.01 355.719H535.732L458.975 569H423.086L346.621 355.719H387.197L440.811 522.564ZM684.561 473.785H596.963V539.41H699.355V569H559.902V355.719H698.33V385.602H596.963V444.488H684.561V473.785ZM766.592 539.41H863.418V569H729.531V355.719H766.592V539.41ZM1052.68 467.926C1052.68 488.824 1049.06 507.184 1041.84 523.004C1034.61 538.727 1024.26 550.836 1010.78 559.332C997.402 567.73 981.973 571.93 964.492 571.93C947.207 571.93 931.777 567.73 918.203 559.332C904.727 550.836 894.277 538.775 886.855 523.15C879.531 507.525 875.82 489.508 875.723 469.098V457.086C875.723 436.285 879.385 417.926 886.709 402.008C894.131 386.09 904.531 373.932 917.91 365.533C931.387 357.037 946.816 352.789 964.199 352.789C981.582 352.789 996.963 356.988 1010.34 365.387C1023.82 373.688 1034.22 385.699 1041.54 401.422C1048.87 417.047 1052.58 435.26 1052.68 456.061V467.926ZM1015.62 456.793C1015.62 433.16 1011.12 415.045 1002.14 402.447C993.252 389.85 980.605 383.551 964.199 383.551C948.184 383.551 935.635 389.85 926.553 402.447C917.568 414.947 912.979 432.672 912.783 455.621V467.926C912.783 491.363 917.324 509.479 926.406 522.271C935.586 535.064 948.281 541.461 964.492 541.461C980.898 541.461 993.496 535.211 1002.29 522.711C1011.17 510.211 1015.62 491.949 1015.62 467.926V456.793ZM1126.65 489.752V569H1089.59V355.719H1171.18C1195.01 355.719 1213.91 361.92 1227.87 374.322C1241.93 386.725 1248.96 403.131 1248.96 423.541C1248.96 444.439 1242.08 460.699 1228.31 472.32C1214.64 483.941 1195.45 489.752 1170.74 489.752H1126.65ZM1126.65 460.016H1171.18C1184.37 460.016 1194.42 456.939 1201.36 450.787C1208.29 444.537 1211.76 435.553 1211.76 423.834C1211.76 412.311 1208.24 403.131 1201.21 396.295C1194.18 389.361 1184.51 385.797 1172.21 385.602H1126.65V460.016ZM1406.14 473.785H1318.54V539.41H1420.94V569H1281.48V355.719H1419.91V385.602H1318.54V444.488H1406.14V473.785ZM1529.48 486.822H1488.17V569H1451.11V355.719H1526.11C1550.72 355.719 1569.72 361.236 1583.1 372.271C1596.47 383.307 1603.16 399.273 1603.16 420.172C1603.16 434.43 1599.7 446.393 1592.76 456.061C1585.93 465.631 1576.36 473.004 1564.05 478.18L1611.95 567.096V569H1572.26L1529.48 486.822ZM1488.17 457.086H1526.26C1538.76 457.086 1548.53 453.961 1555.56 447.711C1562.59 441.363 1566.1 432.721 1566.1 421.783C1566.1 410.357 1562.83 401.52 1556.29 395.27C1549.84 389.02 1540.18 385.797 1527.29 385.602H1488.17V457.086Z" fill="#272D3D"/>
</g>
</svg>
