<svg width="59" height="65" viewBox="0 0 59 65" fill="none" xmlns="http://www.w3.org/2000/svg">
<path fill-rule="evenodd" clip-rule="evenodd" d="M25.242 1.13234C27.8769 -0.377446 31.1231 -0.377446 33.758 1.13234L54.742 13.1564C57.3769 14.6662 59 17.4564 59 20.4759V44.5241C59 47.5436 57.3769 50.3338 54.742 51.8436L33.758 63.8677C31.1231 65.3774 27.8769 65.3774 25.242 63.8677L4.25796 51.8436C1.62313 50.3338 0 47.5436 0 44.5241V20.4759C0 17.4564 1.62312 14.6662 4.25796 13.1564L25.242 1.13234ZM50.0109 16.9517L30.9193 6.01203C30.041 5.50877 28.959 5.50877 28.0807 6.01203L8.98915 16.9516L29.5 30.5227L50.0109 16.9517ZM32.3387 58.1747L51.9034 46.9639C52.7817 46.4606 53.3227 45.5306 53.3227 44.5241V21.5323L32.3387 35.4165V58.1747Z" fill="white"/>
</svg>
