<svg width="128" height="55" viewBox="0 0 128 55" fill="none" xmlns="http://www.w3.org/2000/svg">
<rect x="3" y="3" width="16" height="16" fill="#326D8E"/>
<rect x="29" y="6" width="10" height="10" fill="#326D8E"/>
<path d="M16.1041 45.7699C17.0182 46.9861 18.2062 47.9696 19.5716 48.6408C21.0483 49.3722 22.6778 49.7421 24.3256 49.7198C25.6579 49.7547 26.9842 49.5285 28.2296 49.0539C29.2257 48.6626 30.1149 48.0409 30.8245 47.2398C31.4904 46.4593 31.9765 45.5419 32.2485 44.5527C32.545 43.4835 32.6917 42.3784 32.6846 41.2689V37.4108H32.5931C31.7295 38.7796 30.4838 39.8654 29.01 40.5341C27.6048 41.1459 26.0876 41.4587 24.555 41.4527C23.0532 41.464 21.5636 41.1832 20.1689 40.626C18.8484 40.1017 17.6402 39.33 16.6092 38.3524C15.5861 37.3702 14.7735 36.1902 14.2207 34.8842C13.6324 33.5055 13.3353 32.02 13.3481 30.5211C13.3354 29.0265 13.6164 27.5439 14.1751 26.1576C14.7032 24.8461 15.4745 23.6462 16.4484 22.6212C17.4221 21.6046 18.5948 20.7994 19.8932 20.2557C21.2827 19.678 22.775 19.3889 24.2797 19.406C24.9648 19.41 25.6484 19.4714 26.3232 19.5895C27.0654 19.7191 27.7899 19.935 28.482 20.2327C30.1251 20.9449 31.5455 22.0876 32.5931 23.5401H32.6846V19.9571H35.7163V41.2689C35.706 42.5211 35.5596 43.7685 35.2798 44.9891C34.9872 46.3088 34.407 47.5477 33.5805 48.6175C32.6402 49.7976 31.4369 50.7416 30.0667 51.3738C28.5661 52.1083 26.6063 52.4755 24.1875 52.4755C22.2225 52.509 20.2707 52.15 18.4463 51.4194C16.7009 50.6717 15.1352 49.56 13.8538 48.1587L16.1041 45.7699ZM16.6551 30.4295C16.6475 31.5241 16.8584 32.6093 17.2754 33.6214C17.6729 34.5926 18.2492 35.4806 18.9744 36.2393C19.6953 36.9912 20.5526 37.5991 21.5007 38.0308C22.4883 38.4796 23.5621 38.7069 24.6469 38.6967C26.7952 38.7044 28.8653 37.8912 30.434 36.4234C31.2044 35.6964 31.8078 34.8108 32.2025 33.8278C32.6279 32.7472 32.8235 31.5899 32.7768 30.4295C32.7845 29.341 32.5978 28.2599 32.2255 27.237C31.8717 26.2649 31.3248 25.3744 30.6178 24.6191C29.891 23.8535 29.0159 23.2441 28.0458 22.8279C26.9717 22.3714 25.8139 22.1445 24.6469 22.1617C23.5621 22.1518 22.4883 22.3792 21.5007 22.8279C20.5529 23.26 19.6957 23.8678 18.9744 24.6191C18.2494 25.378 17.6731 26.2659 17.275 27.237C16.8583 28.2494 16.6475 29.3347 16.6551 30.4295V30.4295ZM48.0709 41.4527H44.7642V8.93357H54.7769C58.0838 8.93357 60.6942 9.65315 62.6079 11.0923C64.5214 12.5319 65.4783 14.706 65.4788 17.6145C65.537 19.7257 64.7709 21.7766 63.343 23.3327C61.9189 24.8793 59.8597 25.7749 57.1654 26.0195L66.5352 41.4524H62.493L53.583 26.3414H48.0712L48.0709 41.4527ZM48.0709 23.31H53.9502C55.2135 23.3366 56.4741 23.1819 57.6934 22.8506C58.5852 22.6122 59.4206 22.1985 60.1508 21.6337C60.7399 21.1596 61.1982 20.5431 61.4826 19.8425C61.762 19.1332 61.9024 18.3768 61.8961 17.6145C61.8994 16.8676 61.759 16.127 61.4826 15.4331C61.1949 14.7278 60.7374 14.1045 60.1508 13.6186C59.4276 13.0426 58.5898 12.6277 57.6934 12.4014C56.4713 12.0868 55.212 11.94 53.9502 11.9653H48.0709V23.31ZM72.2297 8.93357H81.6917C84.9985 8.93357 87.6087 9.65326 89.5224 11.0926C91.4359 12.5322 92.3929 14.7063 92.3933 17.6148C92.3933 20.5242 91.4363 22.7058 89.5224 24.1597C87.6087 25.6144 84.9985 26.3416 81.6917 26.3414H75.5371V41.4527H72.2297V8.93357ZM75.5374 23.3104H80.8654C82.1287 23.3369 83.3892 23.1822 84.6086 22.8509C85.5003 22.6124 86.3357 22.1987 87.066 21.634C87.655 21.1599 88.1133 20.5434 88.3977 19.8428C88.6773 19.1336 88.8177 18.3772 88.8112 17.6148C88.8147 16.8679 88.6743 16.1273 88.3977 15.4334C88.11 14.7281 87.6526 14.1049 87.066 13.6189C86.3427 13.0431 85.505 12.6281 84.6086 12.4017C83.3864 12.0871 82.1271 11.9404 80.8654 11.9656H75.5371L75.5374 23.3104ZM125.6 36.3085C125.018 37.1706 124.332 37.9574 123.557 38.651C122.718 39.4049 121.783 40.0456 120.778 40.5568C119.704 41.1049 118.572 41.5288 117.402 41.8202C116.147 42.1316 114.859 42.2858 113.566 42.2794C111.261 42.3009 108.973 41.8639 106.838 40.9936C104.823 40.1791 102.992 38.9659 101.457 37.4269C99.9221 35.8878 98.7137 34.0545 97.9044 32.0369C97.0293 29.8626 96.5923 27.5368 96.6186 25.1931C96.5924 22.8494 97.0293 20.5237 97.9044 18.3493C98.7136 16.3318 99.9221 14.4986 101.457 12.9596C102.992 11.4206 104.823 10.2076 106.838 9.39333C108.973 8.52281 111.261 8.08562 113.566 8.10721C115.645 8.11834 117.702 8.52347 119.629 9.30113C121.685 10.1238 123.479 11.4891 124.819 13.2514L121.926 15.4101C121.537 14.8311 121.074 14.306 120.548 13.8484C119.94 13.3102 119.269 12.8476 118.55 12.4707C117.782 12.0661 116.974 11.7428 116.139 11.5061C115.303 11.2642 114.437 11.1405 113.566 11.1386C111.637 11.1069 109.724 11.4989 107.963 12.2869C106.365 13.0119 104.934 14.0595 103.761 15.3639C102.599 16.6721 101.702 18.193 101.119 19.8425C99.8947 23.3045 99.8947 27.0818 101.119 30.5437C101.702 32.1932 102.599 33.7141 103.761 35.022C104.934 36.3269 106.365 37.3747 107.963 38.0994C109.724 38.8879 111.637 39.28 113.566 39.248C114.421 39.2483 115.275 39.1714 116.116 39.0183C116.971 38.8609 117.804 38.5987 118.596 38.2375C119.43 37.8548 120.204 37.3517 120.893 36.7443C121.666 36.0535 122.338 35.2574 122.89 34.3795L125.6 36.3085Z" fill="#71BCC4"/>
<path d="M11.3492 5.88859L6.20117 11.0752L11.3875 16.2232L15.7752 16.2069L11.174 11.6428L33.8939 11.5586L31.9026 13.5632L34.0965 13.5552L36.6706 10.9619L34.0773 8.38809L31.8835 8.39607L33.8897 10.3864L11.1699 10.4706L15.7366 5.87231L11.3492 5.88859V5.88859Z" fill="#71BCC4"/>
</svg>
