<svg width="71" height="67" viewBox="0 0 71 67" fill="none" xmlns="http://www.w3.org/2000/svg">
<path fill-rule="evenodd" clip-rule="evenodd" d="M43.0969 20.0774H46.2737C47.7521 20.0774 48.9507 21.276 48.9507 22.7544V26.1963C48.9507 27.6747 47.7521 28.8732 46.2737 28.8732H42.7645C41.3675 30.3274 40.5851 32.2672 40.5851 34.2877V34.3657L42.9007 36.6813C43.9461 37.7267 43.9461 39.4217 42.9007 40.4671L40.4669 42.9009C39.4214 43.9463 37.7265 43.9464 36.6811 42.9009L34.3651 40.5851H34.2877C32.2672 40.5851 30.3274 41.3674 28.8732 42.7643V46.2737C28.8732 47.7521 27.6747 48.9507 26.1963 48.9507H22.7544C21.276 48.9507 20.0774 47.7521 20.0774 46.2737V43.0966L19.7856 42.8048C18.4014 41.4205 16.5368 40.6271 14.5836 40.5867L12.2693 42.9009C11.2238 43.9463 9.5289 43.9463 8.48348 42.9009L6.04968 40.4671C5.00424 39.4217 5.00424 37.7267 6.04968 36.6813L8.03097 34.7V34.2871C8.03097 32.2668 7.2487 30.3272 5.8519 28.8732H2.67699C1.19853 28.8732 0 27.6747 0 26.1963V22.7544C0 21.276 1.19853 20.0774 2.67699 20.0774H5.51951L5.57471 20.0222C7.1104 18.4865 7.98898 16.4166 8.0295 14.2492L6.04968 12.2694C5.00424 11.224 5.00424 9.52898 6.04967 8.48354L8.48349 6.04975C9.5289 5.00434 11.2238 5.00433 12.2693 6.04972L14.2491 8.0295C16.4165 7.98898 18.4865 7.11036 20.0222 5.57461L20.0774 5.51943V2.67699C20.0774 1.19853 21.276 0 22.7544 0H26.1963C27.6747 0 28.8732 1.19853 28.8732 2.67699V5.85176C30.3274 7.24865 32.2672 8.03097 34.2877 8.03097H34.6997L36.6811 6.04972C37.7265 5.00433 39.4214 5.00434 40.4669 6.04975L42.9007 8.48355C43.9461 9.52898 43.9461 11.224 42.9007 12.2694L40.5867 14.5833C40.6271 16.5365 41.4205 18.4011 42.8048 19.7854L43.0969 20.0774ZM24.4753 14.819C19.1423 14.819 14.819 19.1423 14.819 24.4753C14.819 29.8084 19.1423 34.1316 24.4753 34.1316C29.8084 34.1316 34.1316 29.8084 34.1316 24.4753C34.1316 19.1423 29.8084 14.819 24.4753 14.819Z" fill="white"/>
<path fill-rule="evenodd" clip-rule="evenodd" d="M55.9297 48.7398L57.4986 48.4913C58.2287 48.3756 58.9143 48.8738 59.03 49.6039L59.2992 51.3036C59.4148 52.0338 58.9167 52.7194 58.1865 52.835L56.4535 53.1095C55.8774 53.9369 55.6427 54.9561 55.8008 55.9539L55.8069 55.9924L57.1315 56.9548C57.7296 57.3893 57.8622 58.2264 57.4276 58.8244L56.4161 60.2167C55.9816 60.8148 55.1445 60.9473 54.5465 60.5129L53.2216 59.5503L53.1834 59.5564C52.1856 59.7144 51.2888 60.2525 50.68 61.0561L50.9545 62.7892C51.0701 63.5193 50.572 64.2049 49.8418 64.3206L48.1421 64.5898C47.412 64.7054 46.7263 64.2073 46.6107 63.4771L46.3622 61.9082L46.1953 61.7869C45.4034 61.2115 44.4205 60.9655 43.4528 61.0984L42.4909 62.4223C42.0564 63.0203 41.2193 63.1529 40.6213 62.7184L39.229 61.7068C38.6309 61.2723 38.4984 60.4353 38.9329 59.8372L39.7564 58.7038L39.7241 58.4999C39.566 57.5022 39.028 56.6055 38.2245 55.9967L36.6566 56.2451C35.9264 56.3607 35.2408 55.8626 35.1252 55.1324L34.856 53.4327C34.7403 52.7026 35.2385 52.0169 35.9686 51.9013L37.3723 51.679L37.3953 51.6474C38.0336 50.7689 38.3055 49.6779 38.156 48.6044L37.0234 47.7815C36.4254 47.347 36.2928 46.51 36.7273 45.9119L37.7389 44.5196C38.1734 43.9216 39.0104 43.789 39.6085 44.2235L40.7411 45.0464C41.8083 44.8568 42.7618 44.261 43.4001 43.3825L43.423 43.3509L43.2007 41.9472C43.085 41.217 43.5832 40.5314 44.3133 40.4158L46.013 40.1466C46.7432 40.0309 47.4288 40.5291 47.5444 41.2592L47.7928 42.827C48.6202 43.4031 49.6393 43.6378 50.6371 43.4797L50.8406 43.4475L51.6641 42.3141C52.0986 41.7161 52.9356 41.5835 53.5337 42.018L54.926 43.0295C55.524 43.464 55.6566 44.3011 55.2221 44.8992L54.2603 46.2229C54.4331 47.1843 54.9708 48.043 55.7626 48.6184L55.9297 48.7398ZM46.3229 47.5995C43.6892 48.0166 41.8923 50.4898 42.3095 53.1235C42.7266 55.7571 45.1998 57.554 47.8334 57.1369C50.4671 56.7197 52.264 54.2466 51.8469 51.6129C51.4297 48.9792 48.9565 47.1823 46.3229 47.5995Z" fill="white"/>
<path fill-rule="evenodd" clip-rule="evenodd" d="M65.8496 12.3576L67.4185 12.1091C68.1486 11.9934 68.8342 12.4916 68.9499 13.2217L69.2191 14.9214C69.3347 15.6516 68.8366 16.3372 68.1065 16.4528L66.3735 16.7273C65.7973 17.5547 65.5626 18.5739 65.7207 19.5717L65.7268 19.6102L67.0514 20.5726C67.6495 21.0071 67.7821 21.8442 67.3476 22.4422L66.336 23.8345C65.9015 24.4326 65.0645 24.5651 64.4664 24.1306L63.1416 23.1681L63.1033 23.1742C62.1055 23.3322 61.2088 23.8703 60.5999 24.6739L60.8744 26.407C60.99 27.1371 60.4919 27.8227 59.7617 27.9384L58.062 28.2076C57.3319 28.3232 56.6463 27.8251 56.5306 27.0949L56.2821 25.526L56.1152 25.4047C55.3233 24.8293 54.3404 24.5833 53.3727 24.7162L52.4108 26.0401C51.9763 26.6381 51.1392 26.7707 50.5412 26.3362L49.1489 25.3246C48.5509 24.8901 48.4183 24.0531 48.8528 23.455L49.6763 22.3216L49.644 22.1177C49.486 21.12 48.9479 20.2233 48.1444 19.6145L46.5765 19.8629C45.8464 19.9785 45.1607 19.4804 45.0451 18.7502L44.7759 17.0505C44.6602 16.3204 45.1584 15.6347 45.8885 15.5191L47.2923 15.2968L47.3152 15.2652C47.9535 14.3867 48.2255 13.2957 48.076 12.2222L46.9434 11.3993C46.3453 10.9648 46.2127 10.1278 46.6473 9.52972L47.6588 8.13743C48.0933 7.5394 48.9303 7.40682 49.5284 7.84131L50.661 8.66415C51.7282 8.47461 52.6817 7.8788 53.32 7.00026L53.3429 6.96869L53.1206 5.56497C53.005 4.83484 53.5031 4.14921 54.2332 4.03357L55.933 3.76436C56.6631 3.64871 57.3487 4.14686 57.4644 4.87698L57.7127 6.44482C58.5401 7.02093 59.5592 7.25555 60.557 7.09752L60.7605 7.06528L61.584 5.93188C62.0185 5.33385 62.8556 5.20128 63.4536 5.63578L64.8459 6.64733C65.444 7.08184 65.5765 7.9189 65.142 8.51695L64.1803 9.84067C64.353 10.8021 64.8907 11.6608 65.6826 12.2362L65.8496 12.3576ZM56.2428 11.2173C53.6091 11.6344 51.8122 14.1076 52.2294 16.7413C52.6465 19.3749 55.1197 21.1718 57.7534 20.7547C60.387 20.3375 62.1839 17.8644 61.7668 15.2307C61.3496 12.597 58.8765 10.8001 56.2428 11.2173Z" fill="white"/>
</svg>
