<svg width="512" height="512" viewBox="0 0 512 512" fill="none" xmlns="http://www.w3.org/2000/svg">
<path fill-rule="evenodd" clip-rule="evenodd" d="M64.7071 195.934C63.339 199.33 62.6549 203.413 62.6549 208.182V314.795C62.6549 377.768 79.3579 426.379 112.764 460.627C146.17 494.876 194.259 512 257.033 512C319.807 512 367.713 494.876 400.752 460.627C434.158 426.379 450.861 377.768 450.861 314.795V208.182C450.861 191.61 442.601 183.324 426.082 183.324H321.95C320.076 183.004 318.042 182.843 315.848 182.843H182.592C157.262 182.843 136.888 175.662 121.47 161.3C106.419 146.937 98.8934 128.34 98.8934 105.508C98.8934 84.5166 104.583 69.0495 115.963 59.1064C127.343 49.5315 144.964 44.7441 168.826 44.7441H315.848C330.899 44.7441 338.425 37.1947 338.425 22.0958C338.425 7.36528 330.899 0 315.848 0L168.275 0C97.425 0 62.0001 32.2231 62.0001 96.6693C62.0001 115.819 66.2217 132.943 74.665 148.042C83.2612 163.133 95.3522 174.894 110.938 183.324H87.4341C79.6891 183.324 73.7597 185.146 69.6459 188.788C67.444 190.639 65.7977 193.021 64.7071 195.934ZM101.2 311.48V228.621H412.316V311.48C412.316 413.121 360.555 463.942 257.033 463.942C153.145 463.942 101.2 413.121 101.2 311.48Z" fill="#7C3AED"/>
</svg>
